if (_typeface_js && _typeface_js.loadFace) _typeface_js.loadFace({"glyphs":{"0":{"ha":556,"x_min":77,"x_max":652,"o":"m 199 434 q 189 161 165 274 q 282 47 213 47 q 429 160 362 47 q 529 441 495 273 q 537 709 560 601 q 445 818 514 818 q 298 708 366 818 q 199 434 231 598 m 88 433 q 162 650 111 552 q 288 809 213 749 q 448 869 363 869 q 557 834 511 869 q 625 739 604 799 q 652 600 647 680 q 637 433 656 521 q 562 215 613 313 q 436 56 511 117 q 278 -4 361 -4 q 142 57 194 -4 q 78 215 90 118 q 88 433 66 312 z "},"1":{"ha":556,"x_min":140,"x_max":519,"o":"m 269 673 q 257 688 262 677 q 252 707 252 700 q 256 715 252 711 q 505 871 500 871 l 507 871 q 518 845 518 871 q 480 718 496 800 l 377 183 q 363 62 362 100 q 397 44 365 53 q 442 35 430 35 q 442 11 446 35 q 438 -4 441 0 q 288 3 313 3 q 140 -4 269 3 q 140 18 136 1 q 148 35 144 35 q 201 44 165 35 q 241 62 237 53 q 263 140 252 85 l 358 628 q 368 688 366 667 q 368 713 370 708 q 358 718 365 718 q 335 709 351 718 q 298 689 319 701 q 269 673 277 677 z "},"2":{"ha":556,"x_min":42,"x_max":604,"o":"m 563 212 q 530 127 555 191 q 491 22 505 62 q 461 0 483 0 l 47 0 q 43 45 39 20 q 338 353 210 195 q 488 623 467 511 q 476 736 502 696 q 395 776 450 776 q 205 663 289 776 q 191 672 198 663 q 186 685 184 681 q 215 729 193 701 q 272 790 237 757 q 359 847 307 823 q 464 871 411 871 q 557 836 521 871 q 603 753 593 802 q 602 650 613 704 q 570 558 594 606 q 520 470 547 510 q 450 380 494 430 q 378 298 407 330 q 299 221 349 267 q 231 159 250 175 q 172 107 213 142 q 172 98 163 98 l 404 98 q 431 100 419 98 q 454 109 444 102 q 471 120 465 117 q 486 138 477 123 q 497 156 495 152 q 509 180 499 160 q 521 203 518 199 q 541 217 529 217 q 563 212 560 217 z "},"3":{"ha":556,"x_min":56,"x_max":578,"o":"m 457 871 q 551 823 511 871 q 576 697 591 774 q 530 596 564 637 q 437 514 495 555 q 488 485 464 503 q 535 438 513 467 q 567 368 557 410 q 567 279 576 327 q 444 72 543 151 q 218 -7 345 -7 q 62 34 111 -7 q 57 52 58 38 q 57 73 56 65 q 79 120 64 103 q 117 137 95 137 q 138 127 129 137 q 159 100 148 117 q 179 76 171 84 q 269 47 210 47 q 319 58 293 47 q 371 89 345 68 q 419 150 397 110 q 452 244 441 190 q 431 380 468 324 q 330 435 393 435 q 245 426 283 435 q 243 461 237 439 q 248 475 245 469 q 400 540 339 491 q 477 673 461 589 q 460 755 487 719 q 391 791 434 791 q 338 781 363 791 q 298 760 312 770 q 271 736 285 749 q 255 722 258 723 q 248 734 250 722 q 247 757 245 747 q 340 841 292 811 q 457 871 389 871 z "},"4":{"ha":556,"x_min":68,"x_max":610,"o":"m 68 236 q 68 278 62 247 l 563 859 q 595 875 578 875 q 609 861 613 875 l 502 315 l 593 315 q 601 305 605 315 q 579 236 593 260 q 487 236 579 236 l 441 -1 q 387 -8 435 -8 q 352 -6 362 -8 q 342 3 342 -4 l 388 236 l 68 236 m 473 675 q 473 683 475 678 q 469 688 472 688 l 467 685 l 168 331 q 167 327 167 330 q 174 315 164 315 l 403 315 l 473 675 z "},"5":{"ha":556,"x_min":57,"x_max":613,"o":"m 275 47 q 380 96 328 47 q 452 244 431 144 q 456 310 460 275 q 439 373 452 345 q 392 420 427 401 q 305 438 357 438 q 193 423 240 438 q 174 442 184 429 l 312 845 q 612 864 562 853 q 613 836 616 854 q 591 761 606 799 q 446 745 556 750 q 335 741 335 741 q 324 730 328 739 q 245 513 313 703 q 368 530 289 530 q 528 456 469 530 q 567 279 586 381 q 446 74 543 155 q 225 -7 349 -7 q 64 34 113 -7 q 57 52 58 38 q 58 73 56 65 q 79 120 64 103 q 118 137 95 137 q 139 127 129 137 q 161 100 149 117 q 180 76 172 84 q 275 47 212 47 z "},"6":{"ha":556,"x_min":77,"x_max":625,"o":"m 385 505 q 528 448 472 505 q 583 307 583 391 q 538 157 583 231 q 422 37 494 83 q 278 -8 350 -8 q 132 50 186 -8 q 79 220 79 109 q 94 340 79 278 q 149 473 110 401 q 246 612 187 545 q 400 745 305 678 q 614 864 495 811 q 625 830 625 864 q 399 691 494 774 q 247 475 304 608 q 187 206 187 334 q 214 92 187 138 q 297 45 241 45 q 416 117 358 45 q 475 294 475 189 q 443 404 475 362 q 345 446 411 446 q 321 444 334 446 q 302 438 309 441 q 285 431 296 435 q 273 426 274 426 q 264 445 264 431 q 311 486 264 468 q 385 505 357 505 z "},"7":{"ha":556,"x_min":117,"x_max":703,"o":"m 153 -8 q 127 6 140 -8 q 117 30 115 20 l 591 750 l 288 750 q 247 731 267 750 q 214 693 227 712 q 187 643 202 674 q 168 636 184 637 q 144 639 152 635 q 180 730 149 654 q 222 842 210 807 q 245 859 229 859 l 610 859 q 662 861 629 859 q 696 863 694 863 q 701 850 704 863 q 694 833 700 844 q 683 813 689 822 q 665 787 677 804 q 647 760 654 769 l 167 -4 q 153 -8 163 -8 z "},"8":{"ha":556,"x_min":80,"x_max":621,"o":"m 454 872 q 590 816 541 872 q 621 666 639 760 q 441 467 601 564 q 439 458 433 465 q 535 355 498 418 q 560 227 572 293 q 455 57 541 126 q 273 -12 369 -12 q 115 49 168 -12 q 81 209 61 110 q 110 283 88 248 q 165 346 132 317 q 220 389 199 374 q 275 425 241 404 q 288 431 283 429 q 290 439 296 437 q 218 527 247 471 q 202 651 189 583 q 296 805 220 738 q 454 872 372 872 m 438 825 q 351 781 391 825 q 298 667 312 738 q 396 494 281 575 q 403 491 401 491 q 411 494 407 491 q 529 659 507 555 q 517 774 541 723 q 438 825 492 825 m 285 37 q 392 77 347 37 q 450 187 437 118 q 446 252 456 218 q 422 307 437 285 q 383 353 407 330 q 351 385 359 377 q 330 400 342 392 q 323 403 324 403 q 317 401 319 403 q 226 321 258 365 q 182 213 194 278 q 198 85 165 134 q 285 37 231 37 z "},"9":{"ha":556,"x_min":91,"x_max":639,"o":"m 332 353 q 194 407 247 353 q 141 545 141 461 q 234 761 141 663 q 438 859 327 859 q 584 800 530 859 q 637 631 637 742 q 625 510 637 571 q 575 376 612 449 q 482 237 538 302 q 331 106 426 172 q 114 -8 236 41 q 91 20 94 -3 q 320 159 224 76 q 472 376 416 243 q 526 644 526 503 q 500 760 526 713 q 419 806 475 806 q 305 734 359 806 q 251 557 251 663 q 380 414 251 414 q 404 414 393 414 q 420 416 414 415 q 429 418 426 418 q 437 421 431 419 q 444 425 442 423 q 452 406 452 418 q 408 368 452 382 q 332 353 363 353 z "}," ":{"ha":309,"x_min":0,"x_max":0,"o":""},"!":{"ha":254,"x_min":95,"x_max":370,"o":"m 95 49 q 121 113 95 87 q 184 138 146 138 q 226 119 209 138 q 243 76 243 100 q 218 9 243 37 q 155 -19 193 -19 q 112 1 129 -19 q 95 49 95 22 m 328 856 q 359 838 349 856 q 370 798 370 821 q 348 698 370 781 q 286 471 326 614 q 222 231 247 327 q 205 210 220 218 q 184 201 191 201 q 176 225 176 201 q 188 323 176 228 q 217 555 199 418 q 248 783 235 692 q 275 831 252 806 q 328 856 298 856 z "},"\"":{"ha":403,"x_min":61,"x_max":395,"o":"m 152 947 q 191 932 183 947 q 190 859 198 918 q 151 731 182 817 q 110 609 121 646 q 98 594 107 600 q 81 589 90 589 q 66 593 73 589 q 61 606 60 598 q 66 709 66 661 q 64 801 66 757 q 61 863 61 845 q 92 916 65 886 q 152 947 119 947 m 355 947 q 394 932 387 947 q 393 859 401 918 q 355 731 385 817 q 313 609 324 646 q 302 594 311 600 q 285 589 293 589 q 270 593 277 589 q 264 606 263 598 q 270 709 270 661 q 267 801 270 757 q 264 863 264 845 q 296 916 269 886 q 355 947 323 947 z "},"#":{"ha":568,"x_min":-3,"x_max":575,"o":"m 463 506 l 566 506 q 575 499 575 506 q 564 456 575 481 q 541 430 552 430 l 437 430 l 397 313 l 500 313 q 510 305 510 313 q 498 262 510 288 q 476 237 487 237 l 372 237 l 302 33 q 258 22 298 22 q 228 28 228 22 q 229 33 229 31 l 300 237 l 182 237 l 113 33 q 68 22 109 22 q 38 28 38 22 q 39 33 39 31 l 110 237 l 7 237 q -3 245 -3 237 q 9 288 -3 263 q 31 313 20 313 l 136 313 l 175 430 l 72 430 q 62 438 62 430 q 74 481 62 456 q 96 506 85 506 l 201 506 l 270 711 q 315 722 274 722 q 345 713 345 722 q 343 711 343 712 l 273 506 l 391 506 l 460 711 q 505 722 464 722 q 534 713 534 722 q 533 711 533 712 l 463 506 m 365 430 l 247 430 l 208 313 l 326 313 l 365 430 z "},"$":{"ha":583,"x_min":71,"x_max":629,"o":"m 212 -71 q 170 -58 168 -71 l 513 926 q 555 917 556 926 l 212 -71 m 275 -11 q 71 20 227 -11 q 75 225 58 109 q 99 236 77 236 q 125 225 118 236 q 289 42 134 42 q 403 81 351 42 q 468 191 454 121 q 471 220 471 206 q 470 246 471 235 q 464 269 469 258 q 455 288 458 281 q 442 305 452 296 q 429 319 433 315 q 412 333 425 324 q 396 344 399 342 q 379 355 393 346 q 363 365 365 363 q 275 425 307 400 q 210 483 243 449 q 168 555 178 517 q 168 642 159 594 q 272 807 187 741 q 453 873 357 873 q 517 867 481 873 q 588 852 553 861 q 629 842 623 844 q 608 656 621 726 q 597 646 605 646 q 567 661 567 648 q 536 762 570 708 q 435 817 503 817 q 273 685 298 817 q 290 583 260 623 q 388 496 319 544 q 511 406 490 425 q 581 231 600 326 q 470 58 560 126 q 275 -11 380 -11 z "},"%":{"ha":838,"x_min":-19,"x_max":856,"o":"m 312 876 q 208 804 251 876 q 164 648 164 732 q 186 542 164 587 q 252 496 208 496 q 352 571 313 496 q 391 734 391 646 q 372 833 391 791 q 312 876 354 876 m 326 913 q 439 861 400 913 q 479 734 479 808 q 406 545 479 632 q 236 458 332 458 q 121 511 163 458 q 79 636 79 563 q 152 826 79 739 q 326 913 225 913 m 856 882 l 47 0 q 1 -16 31 -16 q -19 -1 -15 -16 l 789 884 q 819 899 804 899 q 856 882 849 899 m 600 407 q 495 335 538 407 q 452 179 452 263 q 473 73 452 118 q 540 27 495 27 q 640 102 601 27 q 678 264 678 176 q 660 364 678 321 q 600 407 642 407 m 613 444 q 727 391 688 444 q 766 264 766 339 q 693 76 766 163 q 524 -11 620 -11 q 408 41 450 -11 q 366 167 366 94 q 439 357 366 270 q 613 444 513 444 z "},"&":{"ha":873,"x_min":106,"x_max":949,"o":"m 537 380 q 552 351 537 361 q 584 338 567 340 q 616 324 601 335 q 631 294 631 313 q 618 254 631 271 q 586 231 605 236 q 517 264 553 231 q 481 350 481 298 q 540 474 481 425 q 677 524 598 524 q 728 522 697 524 q 780 521 760 521 q 863 542 827 521 q 899 602 899 563 q 887 637 899 623 q 856 651 875 651 q 820 639 841 651 q 784 627 799 627 q 756 640 768 627 q 745 671 745 654 q 780 730 745 703 q 903 696 856 730 q 949 602 949 662 q 908 506 949 543 q 798 469 867 469 q 762 472 789 469 q 837 304 837 406 q 717 75 837 170 q 442 -19 597 -19 q 207 61 308 -19 q 106 266 106 141 q 159 420 106 349 q 277 517 213 492 q 225 650 225 575 q 304 800 225 739 q 472 861 382 861 q 581 827 534 861 q 628 736 628 793 q 599 662 628 697 q 547 627 570 627 q 534 636 534 627 q 541 656 534 637 q 548 697 548 674 q 517 770 548 741 q 442 800 486 800 q 336 753 380 800 q 293 643 293 707 q 338 536 293 575 q 391 545 372 545 q 460 530 429 545 q 492 488 492 515 q 465 448 492 463 q 404 434 438 434 q 320 463 353 434 q 222 277 222 380 q 290 109 222 178 q 458 39 358 39 q 657 123 570 39 q 745 321 745 206 q 713 414 745 374 q 632 454 681 454 q 566 434 594 454 q 537 380 537 414 z "},"'":{"ha":199,"x_min":61,"x_max":191,"o":"m 152 947 q 191 932 183 947 q 190 859 198 918 q 151 731 182 817 q 110 609 121 646 q 98 594 107 600 q 81 589 90 589 q 66 593 73 589 q 61 606 60 598 q 66 709 66 661 q 64 801 66 757 q 61 863 61 845 q 92 916 65 886 q 152 947 119 947 z "},"(":{"ha":396,"x_min":28,"x_max":416,"o":"m 28 236 q 73 526 28 378 q 179 778 118 674 q 303 948 240 882 q 404 1015 366 1015 q 416 987 416 1015 q 414 978 416 981 q 290 841 359 952 q 164 557 220 730 q 109 222 109 384 q 139 -10 109 91 q 199 -129 170 -111 q 201 -133 201 -129 q 192 -153 201 -141 q 176 -164 183 -164 q 79 -45 129 -164 q 28 236 28 73 z "},")":{"ha":374,"x_min":-23,"x_max":365,"o":"m 365 620 q 333 364 365 491 q 254 146 301 237 q 153 -18 206 54 q 56 -127 100 -91 q -11 -164 12 -164 q -23 -140 -23 -164 q -19 -129 -23 -130 q 35 -80 0 -119 q 113 31 69 -41 q 195 192 156 103 q 259 402 233 281 q 285 647 285 524 q 260 865 285 773 q 197 978 235 956 q 195 981 195 979 q 203 1001 195 987 q 218 1015 212 1015 q 318 901 271 1015 q 365 620 365 787 z "},"*":{"ha":465,"x_min":12,"x_max":471,"o":"m 273 697 q 303 722 283 697 q 342 778 323 747 q 389 833 362 808 q 439 859 416 859 q 471 826 471 859 q 442 774 471 800 q 380 733 414 749 q 319 699 347 718 q 290 666 290 680 q 317 645 290 654 q 374 631 343 636 q 432 609 406 625 q 458 568 458 593 q 444 534 458 549 q 408 519 429 519 q 357 547 384 519 q 307 604 330 575 q 271 632 285 632 q 253 608 258 632 q 244 538 248 583 q 231 463 240 492 q 207 419 222 434 q 175 404 191 404 q 153 414 161 404 q 144 442 144 425 q 188 543 144 472 q 232 629 232 614 q 220 642 232 642 q 145 614 209 642 q 53 586 81 586 q 12 618 12 586 q 17 642 12 631 q 41 666 22 654 q 95 678 61 678 q 153 673 117 678 q 201 669 189 669 q 235 692 235 669 q 200 759 235 705 q 165 845 165 812 q 180 885 165 869 q 212 901 194 901 q 236 891 227 901 q 250 863 245 882 q 255 828 254 845 q 256 787 256 811 q 273 697 256 697 z "},"+":{"ha":620,"x_min":-4,"x_max":614,"o":"m 317 637 q 350 656 320 650 q 393 662 380 662 q 405 659 401 662 q 407 650 408 655 q 359 384 376 468 q 363 377 357 377 l 609 377 q 614 365 614 377 q 586 301 614 332 l 343 301 q 338 296 338 301 l 290 41 q 266 23 289 30 q 222 16 243 16 q 206 20 212 16 q 202 28 201 24 q 251 294 236 218 q 245 301 251 301 l 3 301 q -4 313 -4 301 q 26 377 -4 339 l 267 377 q 273 382 273 377 q 294 505 281 422 q 317 637 308 589 z "},",":{"ha":283,"x_min":-7,"x_max":245,"o":"m -7 -194 q 25 -162 -7 -190 q 90 -91 57 -134 q 122 -7 122 -47 q 113 49 122 15 q 104 90 104 83 q 138 149 104 123 q 212 175 172 175 q 241 170 222 175 q 245 138 245 160 q 231 47 245 111 q 195 -41 220 3 q 140 -117 170 -85 q 82 -172 110 -148 q 35 -209 54 -197 l 18 -221 q 3 -212 12 -221 q -7 -194 -7 -203 z "},"-":{"ha":400,"x_min":26,"x_max":370,"o":"m 54 354 l 362 370 q 370 354 370 370 q 359 313 370 339 q 339 285 349 286 l 33 270 q 26 290 26 270 q 35 328 26 304 q 54 354 45 353 z "},".":{"ha":229,"x_min":81,"x_max":231,"o":"m 231 77 q 203 11 231 41 q 141 -19 175 -19 q 98 -1 115 -19 q 81 45 81 18 q 110 110 81 81 q 172 138 138 138 q 214 121 198 138 q 231 77 231 104 z "},"/":{"ha":628,"x_min":-20,"x_max":648,"o":"m 648 1024 l 73 -16 q 4 -45 56 -45 q -20 -38 -14 -45 l 556 1002 q 616 1032 574 1032 q 648 1024 632 1032 z "},":":{"ha":244,"x_min":81,"x_max":323,"o":"m 168 498 q 197 565 168 536 q 262 594 227 594 q 306 576 289 594 q 323 530 323 557 q 294 462 323 492 q 231 431 266 431 q 186 450 203 431 q 168 498 168 469 m 81 46 q 110 114 81 84 q 174 144 138 144 q 218 125 201 144 q 235 79 235 107 q 206 11 235 41 q 142 -19 178 -19 q 98 -1 115 -19 q 81 46 81 18 z "},";":{"ha":324,"x_min":-20,"x_max":324,"o":"m 170 498 q 199 565 170 536 q 263 594 228 594 q 307 576 290 594 q 324 530 324 557 q 296 462 324 492 q 232 431 267 431 q 187 450 205 431 q 170 498 170 469 m 107 15 q 100 61 107 42 q 92 84 92 80 q 125 140 92 111 q 195 168 159 168 q 227 122 227 168 q 216 46 227 104 q 155 -92 199 -38 q 8 -224 111 -146 q -1 -227 3 -227 q -20 -194 -20 -227 q -5 -174 -20 -186 q 31 -147 11 -161 q 73 -99 52 -133 q 104 -19 95 -65 q 107 15 107 -3 z "},"<":{"ha":551,"x_min":-1,"x_max":562,"o":"m 100 283 l 472 56 q 475 49 475 54 q 460 9 475 37 q 441 -19 446 -19 q 435 -18 438 -19 l 12 240 q -1 275 -1 250 q 30 327 -1 311 l 547 581 q 552 582 549 582 q 562 534 562 582 q 555 507 562 510 l 100 283 z "},"=":{"ha":682,"x_min":20,"x_max":661,"o":"m 27 159 q 20 167 20 159 q 32 204 20 174 q 52 235 43 235 l 616 235 q 624 228 624 235 q 600 167 624 225 l 590 159 l 27 159 m 65 351 q 60 359 60 351 q 71 396 60 365 q 90 427 81 427 l 652 427 q 661 420 661 427 q 637 359 661 414 q 633 353 636 355 q 629 351 631 351 l 627 351 l 65 351 z "},">":{"ha":568,"x_min":-12,"x_max":559,"o":"m 457 283 l 88 507 q 85 513 85 509 q 100 552 85 521 q 121 583 115 583 l 126 581 l 543 327 q 559 300 559 317 q 526 240 559 256 l 4 -18 q -4 -20 -1 -20 q -12 45 -12 -20 q -5 56 -12 45 l 457 283 z "},"?":{"ha":399,"x_min":87,"x_max":477,"o":"m 87 43 q 114 110 87 81 q 175 138 141 138 q 218 121 201 138 q 236 76 236 103 q 207 10 236 39 q 144 -19 178 -19 q 102 -1 118 -19 q 87 43 87 16 m 270 267 q 256 245 270 254 q 174 287 224 245 q 123 378 123 328 q 180 491 123 452 l 342 605 q 406 701 406 650 q 386 762 406 741 q 332 783 366 783 q 276 751 301 783 q 227 719 251 719 q 180 789 180 719 q 217 832 187 808 q 281 856 247 856 q 420 802 362 856 q 477 681 477 747 q 471 625 477 648 q 458 585 465 601 q 429 549 450 568 q 390 519 407 530 q 332 482 373 509 q 262 435 292 456 q 217 354 217 406 q 235 304 217 328 q 270 267 252 279 z "},"@":{"ha":981,"x_min":12,"x_max":958,"o":"m 439 -228 q 295 -213 362 -231 q 180 -161 228 -195 q 94 -81 132 -127 q 39 20 57 -34 q 14 134 20 75 q 20 251 7 193 q 144 536 52 414 q 364 721 237 659 q 633 783 491 783 q 767 755 707 783 q 865 680 827 727 q 928 573 903 633 q 957 447 954 513 q 949 316 960 381 q 897 154 932 222 q 819 50 861 85 q 736 -1 777 15 q 655 -18 696 -18 q 563 30 594 -18 q 541 125 532 77 q 538 125 541 126 q 534 122 536 123 q 438 38 507 85 q 326 -9 369 -9 q 254 22 281 -9 q 224 98 228 54 q 228 191 221 142 q 277 325 241 260 q 365 441 312 389 q 491 525 418 494 q 646 556 564 556 l 755 544 q 731 472 734 480 l 643 170 q 677 37 602 37 q 760 65 722 37 q 823 137 799 94 q 863 219 848 180 q 883 290 878 258 q 881 500 906 404 q 784 656 856 597 q 608 716 712 716 q 387 663 494 716 q 203 515 279 610 q 103 302 126 419 q 91 151 90 221 q 117 20 92 80 q 186 -81 142 -39 q 300 -147 229 -123 q 464 -171 372 -171 q 555 -153 507 -171 l 555 -165 q 521 -203 552 -184 q 439 -228 490 -221 m 568 231 l 627 437 q 629 446 627 438 q 633 456 632 453 q 633 465 633 460 q 631 473 633 471 q 625 477 629 476 q 446 433 534 510 q 326 194 357 357 q 331 101 313 130 q 377 72 349 72 q 492 135 426 72 q 568 231 559 198 z "},"A":{"ha":822,"x_min":3,"x_max":822,"o":"m 591 324 q 591 328 591 327 q 589 330 591 328 q 584 333 587 332 q 574 334 581 334 q 558 336 568 335 q 534 337 548 336 q 500 338 519 338 q 454 338 480 338 q 328 331 426 338 q 292 277 324 331 q 228 159 259 222 q 197 75 197 95 q 216 49 197 60 q 250 35 235 38 q 271 33 266 33 q 274 24 274 33 q 267 -4 274 9 q 138 3 141 3 q 93 1 113 3 q 50 -1 73 0 q 5 -4 27 -3 q 3 7 3 -1 q 12 33 3 33 q 54 41 27 33 q 91 61 80 49 q 174 189 121 94 l 548 861 q 601 898 568 898 q 612 895 606 898 l 724 179 q 741 81 738 94 q 775 47 745 61 q 819 33 806 33 q 822 26 822 33 q 815 -4 822 9 q 674 3 689 3 q 626 1 648 3 q 576 -1 604 0 q 529 -4 549 -3 q 528 4 528 -3 q 537 33 528 33 q 575 41 551 33 q 606 60 600 49 q 616 123 616 80 q 591 324 616 146 m 472 404 q 574 407 534 404 q 579 412 579 407 q 570 476 579 419 q 550 609 562 533 q 534 713 538 685 q 368 408 368 411 q 369 406 368 406 q 472 404 400 404 z "},"B":{"ha":716,"x_min":33,"x_max":757,"o":"m 608 286 q 563 404 608 358 q 419 449 518 449 q 319 429 323 449 l 267 157 q 260 92 260 117 q 279 62 260 68 q 342 56 298 56 q 473 73 437 56 q 568 156 529 99 q 608 286 608 213 m 730 292 q 629 90 730 180 q 355 0 528 0 l 183 0 l 34 -4 q 33 8 33 -3 q 42 35 33 35 q 92 45 58 35 q 130 66 125 54 q 165 193 149 106 l 263 697 q 278 823 278 774 q 248 844 278 833 q 202 856 217 856 q 199 861 199 856 q 209 892 199 883 q 354 890 271 890 q 458 890 418 890 q 532 891 499 891 q 607 882 570 891 q 679 854 644 873 q 735 800 713 836 q 757 716 757 764 q 747 653 757 684 q 723 601 738 623 q 689 560 708 579 q 652 528 670 541 q 619 507 635 515 q 594 494 604 498 l 586 490 q 678 426 627 483 q 730 292 730 369 m 642 700 q 502 836 642 836 q 400 818 403 836 l 339 524 q 344 515 338 518 q 362 509 350 511 q 388 507 374 507 q 419 506 401 506 q 494 511 463 506 q 563 534 525 517 q 621 594 601 552 q 642 700 642 636 z "},"C":{"ha":787,"x_min":81,"x_max":882,"o":"m 593 905 q 882 844 685 905 q 854 675 857 689 q 822 655 850 655 q 807 659 811 655 q 806 696 807 680 q 792 743 804 712 q 759 795 780 774 q 693 831 738 815 q 586 848 648 848 q 326 699 446 848 q 205 351 205 549 q 275 136 205 221 q 475 50 346 50 q 646 95 575 50 q 705 144 680 115 q 741 190 730 172 q 754 208 753 208 q 770 193 758 208 q 781 174 783 179 q 713 50 720 57 q 608 9 693 27 q 435 -8 522 -8 q 178 102 274 -8 q 81 362 81 213 q 121 548 81 452 q 228 724 161 644 q 391 854 294 803 q 593 905 488 905 z "},"D":{"ha":906,"x_min":33,"x_max":933,"o":"m 575 892 q 842 795 751 892 q 933 549 933 697 q 913 406 933 480 q 848 258 892 331 q 743 126 804 184 q 593 32 682 68 q 399 -4 503 -4 q 302 -1 374 -4 q 184 3 231 3 l 34 -4 q 33 7 33 -3 q 39 33 33 33 q 90 43 54 33 q 130 66 125 54 q 165 193 149 106 l 263 697 q 278 823 281 793 q 247 845 277 834 q 202 856 217 856 q 199 861 199 856 q 209 892 199 883 q 354 890 271 890 q 476 891 401 890 q 575 892 551 892 m 572 833 q 410 811 427 833 q 373 704 388 784 l 274 189 q 270 131 270 170 q 273 85 270 92 q 430 58 285 58 q 633 132 544 58 q 768 320 723 206 q 814 562 814 434 q 754 757 814 681 q 572 833 694 833 z "},"E":{"ha":704,"x_min":33,"x_max":753,"o":"m 354 890 q 545 895 410 890 q 751 901 681 901 q 750 848 750 882 q 751 781 750 825 q 753 716 753 738 q 728 709 746 709 q 712 719 712 709 q 677 815 708 795 q 578 836 646 836 l 505 836 q 401 818 408 836 q 377 727 387 777 l 334 490 q 337 484 334 486 q 349 481 340 481 q 365 479 357 480 q 384 479 373 479 l 445 479 q 556 492 534 479 q 609 575 578 505 q 628 585 613 585 q 648 578 644 585 l 598 317 q 579 312 590 312 q 560 323 562 312 q 555 378 559 359 q 549 399 551 396 q 540 408 547 403 q 408 419 526 419 q 316 407 319 419 l 277 206 q 262 88 262 134 q 273 64 262 68 q 345 60 283 60 l 406 60 q 570 83 524 60 q 621 131 591 94 q 675 220 650 168 q 696 228 680 228 q 724 220 719 228 q 613 -5 629 43 q 390 -1 541 -5 q 184 3 239 3 l 34 -4 q 33 7 33 -3 q 39 33 33 33 q 90 43 54 33 q 130 66 125 54 q 165 193 149 106 l 263 697 q 278 823 281 793 q 247 845 277 834 q 202 856 217 856 q 199 861 199 856 q 209 892 199 883 q 354 890 271 890 z "},"F":{"ha":682,"x_min":33,"x_max":750,"o":"m 184 3 q 34 -4 184 3 q 33 7 33 -3 q 39 33 33 33 q 90 43 54 33 q 130 66 125 54 q 165 193 149 106 l 263 697 q 278 823 281 793 q 247 845 277 834 q 202 856 217 856 q 199 861 199 856 q 209 892 199 883 q 354 890 271 890 q 543 895 408 890 q 749 901 677 901 q 747 848 747 882 q 749 781 747 825 q 750 716 750 738 q 726 709 743 709 q 709 719 709 709 q 674 815 705 795 q 575 836 643 836 l 502 836 q 399 818 406 836 q 374 727 384 777 l 331 490 q 334 484 331 486 q 346 481 338 481 q 362 479 354 480 q 381 479 370 479 l 442 479 q 553 492 532 479 q 606 575 575 505 q 625 585 610 585 q 646 578 642 585 l 595 317 q 576 312 587 312 q 557 323 559 312 q 552 378 556 359 q 546 399 548 396 q 537 408 544 403 q 406 419 524 419 q 313 407 316 419 l 267 174 q 256 66 256 119 q 279 47 256 56 q 326 35 302 38 l 349 33 q 351 22 351 33 q 343 -4 351 4 q 184 3 217 3 z "},"G":{"ha":836,"x_min":81,"x_max":903,"o":"m 595 905 q 884 844 688 905 q 856 667 864 709 q 825 655 854 655 q 810 662 812 655 q 808 698 810 682 q 795 744 807 713 q 762 795 783 774 q 696 831 741 815 q 589 848 651 848 q 401 774 490 848 q 261 589 312 700 q 210 370 210 479 q 278 145 210 240 q 465 50 346 50 q 635 80 576 50 q 650 103 646 85 l 688 296 l 689 301 q 692 318 690 308 q 693 336 693 328 q 655 360 693 349 q 600 372 617 372 q 597 378 597 372 q 608 408 597 397 q 755 401 754 401 q 903 408 774 401 q 895 372 903 372 q 836 359 872 372 q 795 320 799 346 l 762 132 q 762 127 762 130 q 761 122 761 123 q 762 101 761 113 q 764 85 764 90 q 762 75 764 79 q 753 66 761 72 q 732 56 746 61 q 706 45 730 54 q 675 34 682 37 q 645 24 669 31 q 608 14 621 16 q 568 5 594 11 q 521 -2 543 0 q 469 -6 499 -4 q 406 -8 438 -8 q 172 93 262 -8 q 81 345 81 194 q 151 606 81 476 q 340 820 220 735 q 595 905 461 905 z "},"H":{"ha":850,"x_min":33,"x_max":991,"o":"m 538 495 q 716 506 715 495 l 753 694 q 768 819 768 769 q 739 845 768 834 q 692 856 709 856 q 689 863 689 856 q 700 892 689 882 q 764 888 716 891 q 846 884 812 884 q 931 888 879 884 q 991 892 983 892 l 991 888 q 982 856 991 856 q 937 845 971 856 q 899 825 903 834 q 864 699 879 780 l 765 189 q 750 66 750 114 q 768 47 750 56 q 806 35 787 38 l 823 33 q 826 27 826 33 q 818 -4 826 12 q 677 3 692 3 q 528 -4 673 3 q 525 7 525 -1 q 534 33 525 33 q 583 41 551 33 q 621 62 616 50 q 656 193 642 109 l 700 416 l 700 418 q 668 427 700 425 q 514 429 636 429 q 316 412 319 429 l 273 189 q 258 66 258 114 q 276 47 258 56 q 312 35 294 38 l 331 33 q 334 27 334 33 q 326 -4 334 12 q 184 3 201 3 q 35 -4 182 3 q 33 7 33 -1 q 42 33 33 33 q 91 41 58 33 q 129 62 123 50 q 164 193 149 109 l 260 694 q 275 819 275 769 q 246 845 275 834 q 199 856 217 856 q 197 863 197 856 q 208 892 197 882 q 272 888 224 891 q 354 884 320 884 q 437 888 387 884 q 498 892 488 892 l 498 888 q 488 856 498 856 q 443 845 477 856 q 404 825 408 834 q 369 699 382 774 l 335 507 l 335 506 q 371 497 335 499 q 538 495 407 495 z "},"I":{"ha":357,"x_min":33,"x_max":498,"o":"m 369 699 l 273 189 q 258 66 258 114 q 276 47 258 56 q 312 35 294 38 l 331 33 q 334 27 334 33 q 326 -4 334 12 q 184 3 201 3 q 35 -4 182 3 q 33 7 33 -1 q 42 33 33 33 q 91 41 58 33 q 129 62 123 50 q 164 193 149 109 l 260 694 q 275 819 275 769 q 246 845 275 834 q 199 856 217 856 q 197 863 197 856 q 208 892 197 882 q 272 888 224 891 q 354 884 320 884 q 437 888 387 884 q 498 892 488 892 l 498 888 q 488 856 498 856 q 443 845 477 856 q 404 825 408 834 q 369 699 387 787 z "},"J":{"ha":345,"x_min":-109,"x_max":486,"o":"m 156 148 l 258 694 q 273 819 273 781 q 239 845 273 834 q 187 856 205 856 q 184 863 184 856 q 195 892 184 882 q 260 888 212 891 q 342 884 308 884 q 425 888 374 884 q 486 892 476 892 l 486 888 q 476 856 486 856 q 435 845 465 856 q 401 825 406 834 q 366 699 380 774 l 264 157 q 211 -29 245 54 q 138 -165 176 -113 q 55 -252 99 -217 q -27 -302 11 -288 q -100 -316 -65 -316 q -109 -292 -109 -307 l -107 -283 q 61 -151 4 -248 q 156 148 118 -53 z "},"K":{"ha":871,"x_min":33,"x_max":945,"o":"m 369 699 l 273 189 q 258 66 258 114 q 276 47 258 56 q 312 35 294 38 l 331 33 q 334 27 334 33 q 326 -4 334 12 q 184 3 201 3 q 35 -4 182 3 q 33 7 33 -1 q 42 33 33 33 q 91 41 58 33 q 129 62 123 50 q 164 193 149 109 l 260 694 q 275 819 275 769 q 246 845 275 834 q 199 856 217 856 q 197 863 197 856 q 208 892 197 882 q 272 888 224 891 q 354 884 320 884 q 437 888 387 884 q 498 892 488 892 l 498 888 q 488 856 498 856 q 443 845 477 856 q 404 825 408 834 q 369 699 387 787 m 321 442 q 489 580 384 480 q 689 784 594 680 q 699 794 690 785 q 713 810 707 803 q 724 825 719 817 q 730 838 730 834 q 706 856 730 850 q 665 861 682 861 q 661 869 661 861 q 667 892 661 882 q 710 889 684 891 q 758 886 736 887 q 800 884 780 884 q 885 888 833 884 q 945 892 937 892 q 937 861 945 861 q 793 802 842 850 l 463 471 q 456 454 456 464 q 464 433 456 444 l 741 98 q 814 54 764 69 q 883 38 864 38 q 886 30 886 38 q 879 1 886 15 q 777 -3 810 -3 q 696 11 734 -3 q 644 37 659 24 q 620 60 628 49 q 321 442 350 403 z "},"L":{"ha":675,"x_min":33,"x_max":724,"o":"m 274 189 q 260 88 260 110 q 272 64 260 68 q 345 60 283 60 l 406 60 q 570 83 524 60 q 621 131 591 94 q 675 220 650 168 q 696 228 680 228 q 724 220 719 228 q 613 -5 629 43 q 391 -1 543 -5 q 184 3 239 3 l 34 -4 q 33 7 33 -3 q 42 39 33 39 q 92 47 60 39 q 130 66 125 56 q 165 193 149 106 l 262 694 q 277 819 277 769 q 248 845 277 834 q 201 856 218 856 q 198 863 198 856 q 209 892 198 882 q 273 888 225 891 q 355 884 321 884 q 439 888 388 884 q 499 892 490 892 l 499 888 q 490 856 499 856 q 444 845 479 856 q 406 825 410 834 q 370 699 388 787 l 274 189 z "},"M":{"ha":1104,"x_min":15,"x_max":1172,"o":"m 860 709 l 945 892 q 1053 888 982 888 q 1171 894 1100 888 q 1171 871 1173 887 q 1164 854 1168 854 q 1126 845 1146 854 q 1097 822 1107 836 q 1079 783 1085 806 q 1066 701 1073 760 l 1013 183 q 1005 76 1005 113 q 1010 53 1005 62 q 1026 40 1016 43 q 1045 35 1036 37 q 1067 33 1054 34 q 1084 33 1080 33 q 1086 20 1086 33 q 1078 -4 1086 4 q 930 3 952 3 q 788 -4 926 3 q 785 3 785 1 q 789 22 785 11 q 795 33 792 33 q 844 39 812 33 q 880 57 875 46 q 888 77 884 66 q 895 94 892 87 q 899 115 897 102 q 903 134 902 127 q 905 157 903 140 q 907 179 906 174 l 962 708 q 966 761 966 749 q 958 769 966 769 q 954 764 956 769 l 600 42 q 574 14 593 30 q 538 -3 555 -3 q 528 0 533 -3 l 412 769 q 410 772 411 772 q 406 769 406 772 l 247 184 q 221 72 221 92 q 244 52 221 62 q 289 37 267 42 q 313 33 311 33 q 316 24 316 33 q 309 -4 316 9 q 168 3 183 3 q 19 -4 164 3 q 16 9 16 -1 q 26 33 16 33 q 83 43 42 33 q 130 65 125 54 q 175 186 155 111 l 323 716 q 330 751 326 731 q 338 786 335 770 q 340 819 340 802 q 302 845 340 834 q 248 856 263 856 q 245 865 245 856 q 254 892 245 887 q 381 890 354 890 q 510 892 458 890 q 613 221 522 781 q 614 220 613 220 q 618 222 618 220 l 860 709 z "},"N":{"ha":899,"x_min":33,"x_max":1040,"o":"m 349 887 q 476 892 373 887 q 575 626 496 812 q 736 275 654 439 q 751 331 746 302 l 821 696 q 838 821 838 784 q 801 846 838 837 q 743 856 764 856 q 741 865 741 856 q 750 892 741 886 q 892 886 890 886 q 1040 892 911 886 q 1032 856 1040 856 q 975 846 1019 856 q 926 826 930 836 q 892 700 909 783 l 791 184 q 772 76 783 142 q 758 -5 761 9 q 745 -11 753 -11 q 709 20 726 -11 q 376 788 708 23 l 255 191 q 241 71 241 125 q 263 50 241 60 q 307 37 285 41 l 330 33 q 332 26 332 33 q 326 -4 332 9 q 184 3 201 3 q 35 -4 182 3 q 33 7 33 -1 q 42 33 33 33 q 100 43 58 33 q 146 65 141 54 q 183 195 161 95 l 288 700 q 300 822 300 760 q 264 847 300 838 q 208 856 229 856 q 205 865 205 856 q 214 892 205 886 q 349 887 320 887 z "},"O":{"ha":846,"x_min":81,"x_max":909,"o":"m 555 848 q 307 696 408 848 q 205 362 205 545 q 265 134 205 224 q 437 45 326 45 q 681 199 578 45 q 784 536 784 353 q 724 760 784 671 q 555 848 665 848 m 586 905 q 816 802 723 905 q 909 555 909 700 q 839 277 909 408 q 651 66 769 145 q 401 -14 533 -14 q 169 90 256 -14 q 81 351 81 194 q 156 622 81 492 q 347 828 231 751 q 586 905 464 905 z "},"P":{"ha":685,"x_min":33,"x_max":766,"o":"m 536 892 q 690 833 614 892 q 766 684 766 774 q 671 484 766 567 q 460 400 575 400 q 365 412 397 400 q 362 426 362 422 q 370 448 362 439 q 403 445 389 445 q 573 513 495 445 q 651 700 651 581 q 505 842 651 842 q 420 836 441 842 q 396 815 399 830 l 270 174 q 258 66 258 113 q 279 47 258 56 q 323 35 301 38 l 346 33 q 349 22 349 33 q 340 -4 349 4 q 202 3 214 3 q 35 -4 198 3 q 33 7 33 -1 q 42 33 33 33 q 90 42 57 33 q 129 62 123 52 q 164 193 142 90 l 275 751 q 282 822 282 785 q 256 847 282 838 q 210 856 229 856 q 208 865 208 856 q 217 892 208 886 q 358 888 275 888 q 448 890 396 888 q 536 892 499 892 z "},"Q":{"ha":846,"x_min":81,"x_max":1034,"o":"m 555 848 q 307 696 408 848 q 205 362 205 545 q 265 134 205 224 q 437 45 326 45 q 681 199 578 45 q 784 536 784 353 q 724 760 784 671 q 555 848 665 848 m 586 905 q 816 802 723 905 q 909 555 909 700 q 842 285 909 414 q 665 76 774 156 q 374 -47 538 -16 q 564 -117 415 -53 q 804 -180 713 -180 q 913 -151 854 -180 q 1002 -96 972 -122 q 1034 -129 1034 -111 q 926 -207 1009 -161 q 754 -252 842 -252 q 584 -224 666 -252 q 389 -148 502 -197 q 167 -71 277 -99 q 176 -52 167 -65 q 191 -37 184 -39 q 335 -7 212 -35 q 150 115 218 16 q 81 351 81 214 q 156 622 81 492 q 347 828 231 751 q 586 905 464 905 z "},"R":{"ha":804,"x_min":31,"x_max":802,"o":"m 528 892 q 605 884 566 892 q 683 855 644 875 q 746 798 722 836 q 770 708 770 760 q 752 625 770 666 q 709 557 734 585 q 650 504 684 529 q 594 466 617 479 q 552 444 571 453 q 545 427 540 439 q 612 243 571 338 q 684 100 652 148 q 697 81 690 90 q 711 66 704 72 q 725 55 719 60 q 739 47 731 50 q 751 43 747 45 q 764 40 755 41 q 776 39 773 39 q 788 39 779 39 q 800 39 798 39 q 802 1 810 14 q 723 -5 768 -5 q 575 83 633 -5 q 442 403 517 171 q 382 422 435 422 q 327 418 339 422 q 312 399 315 415 l 273 189 q 258 66 258 114 q 276 47 258 56 q 312 35 294 38 l 331 33 q 334 27 334 33 q 326 -4 334 12 q 184 3 199 3 q 35 -4 180 3 q 33 7 33 -1 q 42 33 33 33 q 91 41 58 33 q 129 62 123 50 q 164 193 144 99 l 275 754 q 282 822 282 789 q 255 847 282 838 q 210 856 228 856 q 208 865 208 856 q 217 892 208 886 q 358 888 275 888 q 443 890 396 888 q 528 892 490 892 m 506 842 q 418 838 437 842 q 397 817 400 834 l 332 500 l 332 498 q 396 477 332 477 q 515 501 458 477 q 614 581 572 525 q 655 715 655 637 q 506 842 655 842 z "},"S":{"ha":590,"x_min":66,"x_max":644,"o":"m 481 233 q 449 313 481 274 q 370 383 416 351 q 277 448 324 415 q 198 526 231 481 q 165 621 165 571 q 254 823 165 743 q 469 903 343 903 q 560 888 505 903 q 644 871 616 873 q 627 720 635 796 q 621 674 623 681 q 614 667 618 667 q 583 675 594 667 q 581 692 581 677 q 539 800 581 755 q 444 845 498 845 q 319 798 366 845 q 271 681 271 751 q 338 556 271 609 q 426 492 363 536 q 516 426 488 449 q 571 360 544 403 q 598 270 598 317 q 578 180 598 228 q 519 90 557 133 q 419 20 481 47 q 282 -8 357 -8 q 66 24 209 -8 q 72 134 72 111 q 71 197 72 157 q 69 239 69 236 q 95 248 69 248 q 121 237 107 248 q 127 180 121 209 q 150 119 133 152 q 204 67 167 87 q 294 47 241 47 q 424 97 366 47 q 481 233 481 146 z "},"T":{"ha":815,"x_min":157,"x_max":945,"o":"m 387 193 l 480 674 q 498 806 498 768 q 494 820 498 815 q 460 829 491 825 q 363 834 429 834 q 262 812 292 834 q 198 713 232 789 q 184 707 195 707 q 157 716 167 707 l 217 910 q 302 895 269 895 q 439 891 355 895 q 576 887 524 887 q 716 891 629 887 q 856 895 803 895 q 945 910 886 895 l 932 716 q 901 707 920 707 q 888 713 888 707 q 862 810 888 787 q 772 834 836 834 q 628 814 637 834 q 590 678 609 773 l 495 189 q 480 66 480 114 q 498 47 480 56 q 534 35 517 38 l 553 33 q 556 27 556 33 q 548 -4 556 12 q 407 3 423 3 q 258 -4 404 3 q 255 7 255 -1 q 264 33 255 33 q 313 41 281 33 q 351 62 346 50 q 387 193 372 109 z "},"U":{"ha":856,"x_min":163,"x_max":1005,"o":"m 235 694 q 250 819 250 772 q 220 845 250 834 q 174 856 191 856 q 171 863 171 856 q 182 892 171 882 q 246 888 198 891 q 328 884 294 884 q 412 888 361 884 q 472 892 463 892 l 472 888 q 463 856 472 856 q 417 845 452 856 q 378 825 382 834 q 343 699 361 787 l 288 404 q 277 289 277 345 q 321 125 277 184 q 454 66 366 66 q 732 372 675 66 l 792 694 q 808 817 808 789 q 769 844 808 833 q 707 856 730 856 q 704 864 704 856 q 713 892 704 886 q 779 888 730 891 q 860 884 827 884 q 909 886 886 884 q 960 889 933 887 q 1005 892 987 891 q 996 856 1005 856 q 943 845 985 856 q 894 825 901 834 q 857 692 883 811 l 796 374 q 666 79 754 159 q 412 0 578 0 q 229 72 294 0 q 163 279 163 144 q 182 423 163 330 l 235 694 z "},"V":{"ha":868,"x_min":163,"x_max":1017,"o":"m 315 887 q 463 892 359 887 q 463 888 463 892 q 453 856 463 856 q 389 844 406 856 q 372 806 372 833 q 377 762 372 788 l 481 194 l 807 751 q 823 817 823 780 q 800 845 823 834 q 750 856 777 856 q 747 863 747 856 q 757 892 747 886 q 883 887 854 887 q 1017 892 914 887 l 1017 884 q 1006 856 1015 856 q 948 838 981 856 q 895 785 916 821 l 453 26 q 401 -19 427 -19 q 389 -11 395 -19 l 255 747 q 235 822 247 793 q 204 846 228 837 q 165 856 180 856 q 163 863 163 856 q 172 892 163 886 q 315 887 283 887 z "},"W":{"ha":1320,"x_min":153,"x_max":1476,"o":"m 296 884 q 345 886 320 884 q 397 889 369 887 q 442 892 425 891 l 442 888 q 433 856 442 856 q 381 841 400 856 q 362 806 362 826 q 372 755 362 793 l 544 152 l 708 400 l 608 760 q 582 822 597 798 q 551 846 574 836 q 515 856 529 856 q 513 863 513 856 q 524 892 513 884 q 587 888 541 891 q 667 884 633 884 q 745 888 700 884 q 803 892 789 891 l 803 888 q 800 867 803 879 q 792 856 796 856 q 741 841 760 856 q 723 806 723 826 q 731 755 723 788 l 792 537 l 907 724 q 941 804 941 780 q 918 843 941 830 q 879 856 894 856 q 876 863 876 856 q 886 892 876 886 q 1015 884 1004 884 q 1095 888 1053 884 q 1150 892 1138 892 q 1141 856 1150 856 q 1086 840 1119 856 q 1042 811 1053 823 q 947 675 1016 783 l 811 467 l 903 144 l 1233 724 q 1267 804 1267 784 q 1243 843 1267 830 q 1204 856 1219 856 q 1202 863 1202 856 q 1211 892 1202 886 q 1340 884 1329 884 q 1421 888 1378 884 q 1476 892 1463 892 q 1466 856 1476 856 q 1411 840 1444 856 q 1367 811 1378 823 q 1272 675 1322 760 l 891 26 q 833 -18 865 -18 q 822 -11 825 -18 l 727 332 l 529 26 q 472 -18 500 -18 q 461 -11 465 -18 l 269 692 q 221 822 245 773 q 192 846 214 836 q 156 856 170 856 q 153 863 153 856 q 163 892 153 886 q 223 888 183 891 q 296 884 263 884 z "},"X":{"ha":890,"x_min":14,"x_max":1034,"o":"m 392 884 q 559 892 404 884 l 559 887 q 551 856 559 856 q 522 852 540 856 q 484 834 505 848 q 464 802 464 821 q 471 769 464 787 q 572 541 571 541 q 632 602 575 541 q 747 731 689 663 q 804 814 804 799 q 779 844 804 831 q 726 856 753 856 q 723 863 723 856 q 732 892 723 886 q 883 884 871 884 q 937 886 911 884 q 989 889 962 887 q 1034 892 1016 891 l 1034 888 q 1024 856 1034 856 q 959 844 1008 856 q 894 814 910 831 q 597 481 597 484 q 633 393 597 480 q 712 210 670 307 q 765 94 754 113 q 825 47 784 61 q 887 33 867 33 q 890 26 890 33 q 886 -4 890 4 q 735 3 760 3 q 553 -4 732 3 q 551 7 551 -1 q 560 33 551 33 q 606 45 576 33 q 635 76 635 57 q 632 100 635 94 q 507 395 509 395 q 439 319 506 395 q 306 164 373 244 q 239 73 239 84 q 313 33 239 33 q 319 20 319 33 q 312 -4 319 3 q 172 -3 289 -3 q 15 -4 41 -3 q 14 1 14 -3 q 20 33 14 33 q 50 35 31 33 q 98 47 68 37 q 142 73 127 57 q 483 456 483 452 l 377 705 q 340 784 353 764 q 302 826 328 804 q 264 846 290 837 q 227 856 239 856 q 224 863 224 856 q 233 892 224 886 q 302 888 250 891 q 392 884 355 884 z "},"Y":{"ha":804,"x_min":163,"x_max":954,"o":"m 331 884 q 499 892 345 884 l 499 886 q 490 856 499 856 q 437 842 469 856 q 404 799 404 827 q 410 769 404 785 l 503 481 q 565 562 521 505 q 633 650 609 618 q 686 723 656 682 q 730 785 716 764 q 743 814 743 807 q 714 844 742 831 q 659 856 686 856 q 656 864 656 856 q 666 892 656 886 q 720 888 677 892 q 791 884 764 884 q 952 892 798 884 q 954 886 954 890 q 944 856 954 856 q 890 843 930 856 q 834 814 850 830 q 671 599 818 798 q 521 387 524 400 l 483 189 q 468 66 468 114 q 486 47 468 56 q 524 35 505 38 l 541 33 q 544 27 544 33 q 536 -4 544 12 q 395 3 410 3 q 244 -4 391 3 q 243 5 243 -3 q 252 33 243 33 q 300 42 267 33 q 339 62 332 52 q 373 184 355 91 l 408 377 q 381 473 410 382 q 323 651 353 563 l 294 739 q 241 826 274 802 q 202 846 228 836 q 165 856 176 856 q 163 863 163 856 q 172 892 163 886 q 241 888 189 891 q 331 884 294 884 z "},"Z":{"ha":741,"x_min":49,"x_max":848,"o":"m 438 890 q 585 888 500 888 q 663 890 631 888 q 713 892 696 891 q 770 897 731 894 q 844 903 808 901 q 848 882 846 902 q 848 859 849 863 q 692 665 846 853 q 382 290 537 476 l 229 103 q 218 80 218 91 q 232 69 218 69 l 517 69 q 558 72 538 69 q 593 82 578 75 q 620 95 608 90 q 643 113 632 100 q 661 132 654 125 q 675 153 667 138 q 686 172 684 167 q 694 191 688 176 q 701 206 701 205 q 738 217 705 217 q 757 209 751 217 q 680 0 709 92 l 54 0 q 49 23 49 9 q 60 58 49 45 l 692 825 l 633 825 q 583 825 612 825 q 526 825 553 825 q 475 824 499 825 q 435 823 450 823 q 419 823 420 823 q 294 787 332 822 q 213 656 256 751 q 199 651 209 651 q 163 663 175 651 q 239 902 180 711 q 334 894 251 898 q 438 890 416 890 z "},"[":{"ha":416,"x_min":-12,"x_max":438,"o":"m 228 1004 q 361 1009 289 1004 l 431 1016 q 438 1008 438 1016 q 436 994 438 1001 q 431 982 434 987 q 422 972 427 977 q 414 964 418 967 q 408 960 411 962 l 406 958 q 275 943 343 943 q 269 940 271 943 q 266 935 266 937 l 264 932 l 69 -66 q 76 -77 68 -77 q 136 -83 106 -77 q 182 -95 167 -90 l 198 -100 l 201 -102 q 205 -105 203 -103 q 208 -111 206 -107 q 210 -121 210 -115 q 209 -138 210 -127 q 205 -149 208 -145 q 201 -155 202 -153 l 198 -155 q 5 -138 109 -138 q -12 -115 -12 -138 l -12 -107 l 197 972 q 199 981 197 975 q 210 996 202 987 q 228 1004 217 1004 z "},"\\":{"ha":288,"x_min":8,"x_max":263,"o":"m 35 1032 q 91 1002 88 1032 l 262 18 q 263 7 263 14 q 252 -33 263 -15 q 224 -53 240 -52 l 193 -50 l 8 1024 q 35 1032 24 1032 z "},"]":{"ha":406,"x_min":-23,"x_max":422,"o":"m 203 1016 q 214 1015 203 1016 q 245 1011 227 1013 q 289 1008 264 1009 q 344 1005 313 1006 q 404 1004 374 1004 q 422 983 422 1004 q 420 972 422 977 l 212 -107 q 210 -116 212 -110 q 200 -130 208 -122 q 182 -138 193 -138 q 86 -142 136 -138 q 9 -151 37 -146 l -18 -155 q -23 -142 -23 -151 q 4 -100 -23 -127 q 134 -77 71 -77 q 141 -75 138 -77 q 145 -69 144 -72 l 146 -66 l 340 932 q 334 943 342 943 q 273 946 304 943 q 225 954 241 949 l 209 958 q 193 987 193 974 q 203 1016 193 1016 z "},"^":{"ha":411,"x_min":18,"x_max":401,"o":"m 18 677 q 56 711 20 682 q 142 796 91 741 q 236 918 194 852 q 239 925 237 921 q 242 930 241 929 q 244 933 243 932 q 248 935 245 935 q 252 936 250 936 q 270 927 266 936 q 287 880 274 918 q 321 798 300 842 q 350 751 330 780 q 386 702 370 723 q 401 678 401 681 q 392 656 399 667 q 378 644 385 644 q 307 707 359 644 q 233 810 255 770 q 115 701 189 757 q 28 644 42 644 q 18 677 18 644 z "},"_":{"ha":658,"x_min":12,"x_max":614,"o":"m 12 -50 q 25 -13 12 -43 q 45 18 38 18 l 606 18 q 614 12 614 18 q 590 -50 614 4 q 582 -58 590 -50 l 19 -58 q 12 -50 12 -58 z "},"`":{"ha":220,"x_min":27,"x_max":206,"o":"m 27 894 q 31 908 27 901 q 48 924 34 916 q 84 932 62 932 q 125 920 118 932 q 161 848 141 894 q 194 768 182 802 l 206 735 q 200 722 206 728 q 187 715 194 715 q 100 786 172 715 q 27 894 27 857 z "},"a":{"ha":597,"x_min":88,"x_max":610,"o":"m 477 590 q 576 572 529 590 l 494 144 q 490 110 490 127 q 503 76 490 76 q 523 83 511 76 q 546 102 534 91 q 567 123 557 113 q 585 141 576 133 l 593 151 q 603 138 595 151 q 610 119 610 125 q 537 41 593 90 q 439 -8 481 -8 q 406 12 418 -8 q 393 62 393 31 q 403 134 393 85 q 408 158 406 149 q 410 170 410 167 q 378 120 396 145 q 334 64 361 95 q 276 13 307 33 q 218 -7 245 -7 q 124 47 159 -7 q 90 176 90 100 q 147 370 90 273 q 296 528 205 467 q 477 590 387 590 m 420 528 q 265 424 340 528 q 190 205 190 320 q 259 72 190 72 q 368 171 308 72 q 449 372 429 270 l 476 510 q 420 528 460 528 z "},"b":{"ha":534,"x_min":103,"x_max":567,"o":"m 446 590 q 536 537 506 590 q 567 412 567 484 q 461 115 567 239 q 239 -8 355 -8 q 146 31 187 -8 q 104 141 104 69 q 109 186 104 161 l 221 758 q 233 830 233 814 q 151 856 233 856 q 146 864 146 856 q 157 891 146 880 q 328 929 245 899 q 336 903 336 925 q 319 802 336 887 l 239 411 q 330 526 282 483 q 403 580 377 570 q 446 590 429 590 m 407 515 q 334 465 378 515 q 252 342 290 414 q 203 212 214 270 q 208 92 189 137 q 274 47 227 47 q 371 100 326 47 q 441 229 416 152 q 467 380 467 305 q 465 423 467 406 q 459 465 464 441 q 441 503 454 490 q 407 515 427 515 z "},"c":{"ha":442,"x_min":92,"x_max":515,"o":"m 393 590 q 511 544 457 590 q 515 517 515 528 q 503 475 515 491 q 468 458 490 458 q 423 496 446 458 q 377 534 400 534 q 256 440 319 534 q 193 220 193 346 q 282 76 193 76 q 303 79 293 76 q 323 85 313 81 q 342 94 332 90 q 359 106 351 99 q 375 118 368 113 q 389 130 382 123 q 398 140 395 136 q 404 146 401 144 l 408 151 q 418 138 411 151 q 426 119 426 125 q 350 39 407 87 q 237 -8 293 -8 q 130 47 167 -8 q 92 198 92 102 q 191 459 92 328 q 393 590 290 590 z "},"d":{"ha":628,"x_min":99,"x_max":651,"o":"m 484 590 q 491 590 518 590 l 502 590 l 540 792 q 544 830 544 811 q 461 856 544 856 q 457 864 457 856 q 468 891 457 880 q 643 929 562 899 q 651 903 651 924 l 631 802 l 503 144 q 499 110 499 127 q 513 76 499 76 q 532 83 521 76 q 555 102 544 91 q 576 123 567 113 q 594 141 586 133 l 602 151 q 612 138 605 151 q 620 119 620 125 q 547 41 602 90 q 449 -8 491 -8 q 415 12 427 -8 q 403 62 403 31 q 412 134 403 84 q 416 153 415 145 q 419 163 418 160 q 420 171 420 167 q 379 106 403 140 q 311 33 355 72 q 229 -7 266 -7 q 133 47 167 -7 q 99 176 99 100 q 224 456 99 323 q 484 590 349 590 m 475 463 q 469 508 480 488 q 433 528 458 528 q 275 424 350 528 q 199 203 199 320 q 269 72 199 72 q 378 172 319 72 q 458 374 438 271 l 475 463 z "},"e":{"ha":487,"x_min":95,"x_max":514,"o":"m 396 590 q 486 558 458 590 q 514 488 514 526 q 453 370 514 429 q 319 280 392 312 q 202 248 247 248 q 197 201 197 248 q 220 108 197 140 q 285 76 244 76 q 306 79 296 76 q 326 85 316 81 q 345 94 335 90 q 362 106 354 99 q 378 118 370 113 q 391 130 385 123 q 401 140 397 136 q 407 146 404 144 l 411 151 q 421 138 414 151 q 429 119 429 125 q 353 39 410 87 q 240 -8 296 -8 q 132 47 170 -8 q 95 198 95 102 q 194 459 95 328 q 396 590 293 590 m 382 534 q 262 443 319 534 q 206 301 206 351 q 212 296 206 296 q 338 361 260 296 q 416 494 416 426 q 382 534 416 534 z "},"f":{"ha":412,"x_min":-163,"x_max":659,"o":"m 547 948 q 658 902 633 948 q 609 814 658 814 q 573 834 590 814 q 538 876 556 854 q 498 897 519 897 q 406 808 454 897 q 330 560 357 719 l 330 557 q 334 552 330 552 l 490 552 q 496 536 496 552 q 481 490 496 514 l 323 490 q 315 479 316 490 l 240 73 q 125 -214 208 -115 q -53 -313 43 -313 q -127 -296 -100 -313 q -163 -258 -155 -279 q -148 -202 -164 -227 q -107 -178 -132 -178 q -84 -191 -95 -178 q -65 -219 -73 -203 q -41 -248 -57 -235 q -7 -260 -26 -260 q 45 -229 19 -260 q 89 -149 71 -197 q 120 -57 107 -100 q 138 20 133 -14 l 220 480 l 220 483 q 216 490 220 490 l 127 490 q 125 494 125 490 q 146 529 125 506 q 190 552 168 552 l 229 552 q 237 564 235 552 q 354 840 264 731 q 547 948 444 948 z "},"g":{"ha":594,"x_min":20,"x_max":648,"o":"m 464 -160 q 447 -105 464 -130 q 397 -62 430 -80 q 338 -33 365 -43 q 274 -11 312 -23 q 237 -27 248 -22 q 198 -47 225 -33 q 158 -75 171 -62 q 134 -107 145 -87 q 122 -149 122 -127 q 300 -258 122 -258 q 415 -230 366 -258 q 464 -160 464 -202 m 376 540 q 280 475 317 540 q 243 335 243 411 q 264 247 243 282 q 326 212 286 212 q 420 271 382 212 q 457 399 457 331 q 435 496 457 453 q 376 540 414 540 m 397 591 q 487 573 438 591 q 582 555 536 555 l 640 555 q 648 544 648 555 q 644 521 648 534 q 633 502 639 507 l 557 502 q 549 494 549 502 q 557 423 557 445 q 543 330 557 373 q 505 260 529 288 q 466 220 481 233 q 434 197 450 206 q 379 169 420 189 q 315 134 338 149 q 292 104 292 118 q 318 81 292 92 q 383 56 345 69 q 460 24 422 43 q 524 -28 498 5 q 551 -106 551 -62 q 465 -259 551 -202 q 233 -316 378 -316 q 81 -281 140 -316 q 22 -183 22 -245 q 39 -120 22 -151 q 90 -65 57 -90 q 152 -24 123 -41 q 217 8 180 -8 l 193 24 q 159 73 159 47 q 207 126 159 96 q 294 165 255 156 q 235 179 269 165 q 172 229 202 193 q 141 313 141 264 q 220 509 141 427 q 397 591 300 591 z "},"h":{"ha":625,"x_min":90,"x_max":637,"o":"m 517 590 q 585 500 585 590 q 566 353 585 439 l 521 144 q 517 110 517 127 q 530 76 517 76 q 550 83 538 76 q 573 102 562 91 q 594 123 585 113 q 612 141 604 133 l 620 151 q 630 138 623 151 q 637 119 637 125 q 564 41 620 90 q 467 -8 509 -8 q 433 12 445 -8 q 420 62 420 31 q 430 134 420 84 l 477 358 q 487 431 487 403 q 461 490 487 490 q 322 367 416 490 q 201 106 228 244 l 178 0 q 136 -5 160 -5 q 90 0 111 -5 l 236 758 q 248 830 248 818 q 165 856 248 856 q 161 864 161 856 q 172 891 161 880 q 343 929 262 899 q 351 903 351 925 q 334 802 351 892 l 264 448 l 240 323 q 299 407 254 347 q 410 528 345 467 q 517 590 476 590 z "},"i":{"ha":372,"x_min":126,"x_max":377,"o":"m 282 590 q 316 570 304 590 q 328 519 328 551 q 320 448 328 491 l 260 144 q 256 110 256 127 q 270 76 256 76 q 290 83 278 76 q 313 102 301 91 q 334 123 324 113 q 351 141 343 133 l 359 151 q 370 138 362 151 q 377 119 377 125 q 304 41 359 90 q 206 -8 248 -8 q 172 12 184 -8 q 160 62 160 31 q 170 134 160 84 l 225 418 q 232 472 232 460 q 218 506 232 506 q 203 500 213 506 q 184 484 194 494 q 165 467 174 475 q 151 450 157 458 l 144 442 q 134 455 141 442 q 126 473 126 468 q 195 545 142 500 q 282 590 247 590 m 321 876 q 356 860 342 876 q 370 822 370 844 q 349 765 370 789 q 297 741 328 741 q 263 758 275 741 q 251 799 251 774 q 271 853 251 830 q 321 876 292 876 z "},"j":{"ha":393,"x_min":-16,"x_max":399,"o":"m 311 590 q 345 570 332 590 q 357 519 357 551 q 349 448 357 492 l 274 61 q 184 -168 245 -85 q 92 -261 146 -220 q -4 -319 38 -302 q -16 -292 -16 -309 q 103 -168 52 -252 q 176 30 155 -83 l 254 418 q 260 472 260 467 q 247 506 260 506 q 232 500 241 506 q 212 484 222 494 q 194 467 202 475 q 179 450 186 458 q 172 442 172 442 q 162 455 170 442 q 155 473 155 468 q 223 545 171 500 q 311 590 275 590 m 350 876 q 385 860 370 876 q 399 822 399 844 q 378 765 399 789 q 326 741 357 741 q 292 758 304 741 q 279 799 279 774 q 300 853 279 830 q 350 876 320 876 z "},"k":{"ha":658,"x_min":117,"x_max":643,"o":"m 521 590 q 592 564 562 590 q 623 498 623 537 q 545 353 623 410 q 345 275 467 296 q 469 114 426 153 q 541 75 511 75 q 588 95 566 75 q 621 134 610 115 q 634 123 625 134 q 643 107 643 113 q 593 39 636 84 q 510 -5 549 -5 q 475 0 492 -5 q 441 18 458 5 q 410 41 425 30 q 379 73 396 52 q 351 108 362 95 q 323 148 340 121 q 300 186 307 175 q 277 225 293 197 q 256 259 260 254 l 206 0 q 161 -7 182 -7 q 117 0 144 -7 l 264 758 q 277 830 277 814 q 194 856 277 856 q 190 864 190 856 q 201 891 190 880 q 372 929 289 899 q 380 903 380 925 q 362 802 380 887 l 292 437 l 307 454 q 342 493 321 472 q 391 537 363 514 q 454 575 419 560 q 521 590 488 590 m 472 526 q 353 435 429 526 q 278 315 278 345 q 281 312 278 312 q 295 313 286 312 q 329 319 304 315 q 378 331 354 324 q 429 351 401 338 q 477 379 457 363 q 512 418 498 395 q 526 468 526 441 q 472 526 526 526 z "},"l":{"ha":336,"x_min":117,"x_max":363,"o":"m 126 134 l 254 792 q 258 830 258 812 q 175 856 258 856 q 171 864 171 856 q 182 891 171 880 q 355 929 274 899 q 363 903 363 925 q 346 802 363 887 l 217 144 q 213 110 213 127 q 227 76 213 76 q 246 83 235 76 q 270 102 258 91 q 292 123 282 113 q 309 142 301 133 q 316 151 316 151 q 327 138 320 151 q 334 119 334 125 q 260 41 316 90 q 163 -8 205 -8 q 130 12 142 -8 q 117 62 117 31 q 126 134 117 85 z "},"m":{"ha":971,"x_min":118,"x_max":985,"o":"m 536 590 q 592 568 572 590 q 616 523 612 547 q 620 461 620 499 q 601 340 620 438 q 726 504 646 418 q 854 590 807 590 q 916 568 899 590 q 932 500 932 545 q 913 353 932 439 l 868 144 q 864 110 864 127 q 878 76 864 76 q 897 83 886 76 q 920 102 909 91 q 941 123 932 113 q 959 141 951 133 l 967 151 q 977 138 970 151 q 985 119 985 125 q 911 41 967 90 q 814 -8 856 -8 q 780 12 792 -8 q 768 62 768 31 q 777 134 768 84 l 825 358 q 834 431 834 403 q 833 463 834 452 q 826 481 831 473 q 808 490 821 490 q 672 372 762 490 q 559 129 582 254 l 534 0 q 513 -2 529 0 q 487 -4 498 -4 q 462 -2 476 -4 q 444 0 448 0 l 519 385 q 525 437 525 414 q 498 490 525 490 q 362 361 450 490 q 251 119 274 232 l 227 0 q 180 -5 191 -5 q 136 0 171 -5 l 217 418 q 224 472 224 467 q 210 506 224 506 q 195 500 205 506 q 176 484 186 494 q 157 467 165 475 q 142 450 149 458 q 136 442 136 442 q 125 455 133 442 q 118 473 118 468 q 186 545 134 500 q 274 590 239 590 q 308 570 296 590 q 320 519 320 551 q 312 448 320 490 l 288 321 q 413 499 338 408 q 536 590 488 590 z "},"n":{"ha":667,"x_min":115,"x_max":682,"o":"m 271 590 q 305 570 293 590 q 317 519 317 551 q 309 448 317 490 l 285 323 q 344 407 298 347 q 455 528 389 467 q 562 590 521 590 q 629 500 629 590 q 610 353 629 439 l 566 144 q 562 110 562 127 q 575 76 562 76 q 595 83 583 76 q 618 102 606 91 q 639 123 629 113 q 656 141 648 133 l 665 151 q 675 138 667 151 q 682 119 682 125 q 609 41 665 90 q 511 -8 553 -8 q 477 12 490 -8 q 465 62 465 31 q 475 134 465 84 l 522 358 q 532 431 532 403 q 506 490 532 490 q 367 367 461 490 q 245 106 273 244 l 222 0 q 180 -5 205 -5 q 134 0 156 -5 l 214 418 q 221 472 221 467 q 208 506 221 506 q 193 500 202 506 q 173 484 183 494 q 155 467 163 475 q 140 450 146 458 q 133 442 133 442 q 123 455 130 442 q 115 473 115 468 q 184 545 132 500 q 271 590 236 590 z "},"o":{"ha":559,"x_min":92,"x_max":559,"o":"m 374 534 q 251 428 307 534 q 195 214 195 321 q 220 92 195 136 q 283 49 245 49 q 404 155 351 49 q 456 370 456 262 q 434 492 456 450 q 374 534 412 534 m 391 590 q 515 534 471 590 q 559 381 559 479 q 460 117 559 241 q 259 -7 362 -7 q 135 46 178 -7 q 92 197 92 99 q 190 464 92 338 q 391 590 288 590 z "},"p":{"ha":597,"x_min":0,"x_max":609,"o":"m 425 511 q 294 439 345 511 l 236 140 q 241 83 231 109 q 289 57 252 57 q 438 160 368 57 q 509 380 509 263 q 425 511 509 511 m 479 590 q 575 536 541 590 q 609 407 609 483 q 549 215 609 313 q 408 56 490 117 q 263 -5 327 -5 q 209 5 229 -5 l 171 -197 q 167 -235 167 -214 q 186 -266 167 -260 q 250 -270 203 -270 q 252 -278 252 -270 q 245 -308 252 -298 q 220 -307 236 -308 q 198 -307 205 -307 q 4 -319 106 -307 q 0 -308 0 -317 q 5 -279 0 -288 q 60 -258 42 -279 q 81 -199 75 -239 l 189 354 l 123 289 q 115 316 115 298 q 119 326 115 321 l 199 411 l 235 587 q 279 593 255 593 q 323 583 304 593 q 308 507 311 526 q 352 545 335 532 q 405 574 369 559 q 479 590 441 590 z "},"q":{"ha":563,"x_min":106,"x_max":605,"o":"m 438 528 q 279 427 350 528 q 208 216 208 326 q 278 72 208 72 q 393 172 328 72 q 477 372 457 271 l 505 510 q 438 528 488 528 m 496 590 q 605 572 557 590 l 522 144 l 461 -199 q 458 -228 458 -221 q 461 -248 458 -240 q 479 -262 464 -255 q 521 -269 494 -269 q 524 -277 524 -269 q 517 -309 524 -298 q 489 -309 507 -309 q 463 -308 471 -308 q 266 -319 366 -308 q 265 -311 266 -317 q 264 -302 264 -305 q 271 -278 264 -278 q 298 -276 283 -278 q 337 -254 312 -274 q 369 -199 362 -235 l 438 170 q 391 101 419 137 q 317 29 362 65 q 237 -7 273 -7 q 142 47 178 -7 q 107 176 107 100 q 165 370 107 273 q 315 528 224 467 q 496 590 406 590 z "},"r":{"ha":505,"x_min":125,"x_max":586,"o":"m 281 590 q 315 570 302 590 q 327 519 327 551 q 319 448 327 490 l 297 334 q 398 502 331 414 q 511 590 465 590 q 586 547 557 590 q 536 456 586 456 q 510 473 525 456 q 479 490 495 490 q 361 372 439 490 q 263 142 283 254 l 237 0 q 193 -4 214 -4 q 142 0 167 -4 l 224 418 q 231 472 231 467 q 217 506 231 506 q 202 500 212 506 q 182 484 193 494 q 164 467 172 475 q 149 450 156 458 q 142 442 142 442 q 132 455 140 442 q 125 473 125 468 q 193 545 141 500 q 281 590 245 590 z "},"s":{"ha":434,"x_min":91,"x_max":483,"o":"m 354 594 q 476 543 431 594 q 483 514 483 526 q 470 472 483 490 q 437 454 457 454 q 403 474 418 454 q 366 514 388 494 q 307 534 343 534 q 262 515 278 534 q 245 472 245 496 q 272 397 245 437 q 330 326 298 357 q 387 250 361 294 q 414 159 414 205 q 359 38 414 84 q 220 -8 305 -8 q 98 43 142 -8 q 91 69 91 54 q 104 113 91 94 q 137 132 117 132 q 171 112 156 132 q 208 72 186 92 q 267 52 231 52 q 315 71 297 52 q 334 114 334 91 q 307 189 334 149 q 250 260 281 229 q 192 336 218 292 q 165 427 165 381 q 220 539 165 484 q 354 594 274 594 z "},"t":{"ha":355,"x_min":122,"x_max":454,"o":"m 267 735 q 334 749 271 749 q 358 747 350 749 l 324 570 l 448 570 q 454 552 454 570 q 442 513 454 536 l 313 513 l 241 144 q 237 110 237 127 q 251 76 237 76 q 271 83 259 76 q 294 102 282 91 q 315 123 305 113 q 332 141 324 133 l 340 151 q 351 138 343 151 q 358 119 358 125 q 285 41 340 90 q 187 -8 229 -8 q 153 12 165 -8 q 141 62 141 31 q 151 134 141 84 l 224 513 l 127 513 q 123 528 123 513 q 140 570 123 545 l 235 570 l 267 735 z "},"u":{"ha":640,"x_min":102,"x_max":658,"o":"m 258 590 q 292 570 279 590 q 304 519 304 551 q 296 448 304 483 l 248 224 q 239 151 239 184 q 264 92 239 92 q 319 124 283 92 q 393 207 354 156 q 466 331 431 258 q 514 476 500 404 l 537 582 q 579 587 555 587 q 625 582 604 587 l 541 144 q 537 110 537 127 q 551 76 537 76 q 570 83 559 76 q 593 102 582 91 q 614 123 605 113 q 632 141 624 133 l 640 151 q 650 138 643 151 q 658 119 658 125 q 585 41 640 90 q 487 -8 529 -8 q 453 12 465 -8 q 441 62 441 31 q 450 134 441 84 l 475 259 q 419 175 461 233 q 313 54 377 117 q 209 -8 250 -8 q 141 81 141 -8 q 160 229 141 144 l 201 418 q 208 472 208 467 q 194 506 208 506 q 179 500 189 506 q 159 484 170 494 q 141 467 149 475 q 126 450 133 458 q 119 442 119 442 q 109 455 117 442 q 102 473 102 468 q 170 545 118 500 q 258 590 222 590 z "},"v":{"ha":564,"x_min":107,"x_max":613,"o":"m 263 590 q 297 570 285 590 q 309 519 309 551 q 301 448 309 491 l 260 240 q 250 155 250 175 q 262 100 250 117 q 305 84 274 84 q 451 208 368 84 q 534 419 534 332 q 515 480 534 448 q 495 529 495 513 q 511 572 495 553 q 551 590 528 590 q 594 579 576 590 q 613 500 613 544 q 547 267 613 388 q 397 73 481 146 q 254 0 313 0 q 180 33 208 0 q 153 119 153 66 q 159 179 153 157 l 205 418 q 213 472 213 446 q 199 506 213 506 q 184 500 194 506 q 165 484 175 494 q 146 467 155 475 q 132 450 138 458 l 125 442 q 115 455 122 442 q 107 473 107 468 q 176 545 123 500 q 263 590 228 590 z "},"w":{"ha":857,"x_min":107,"x_max":883,"o":"m 263 590 q 297 570 285 590 q 309 519 309 551 q 301 448 309 491 l 260 240 q 250 155 250 175 q 262 100 250 117 q 305 84 274 84 q 375 119 335 84 q 452 209 415 155 q 496 522 484 476 q 551 590 514 590 q 602 526 602 590 q 547 286 602 438 q 537 199 537 218 q 549 109 537 134 q 593 84 560 84 q 684 144 633 84 q 770 284 735 205 q 804 419 804 363 q 785 480 804 448 q 765 529 765 513 q 781 572 765 553 q 821 590 798 590 q 864 579 846 590 q 883 500 883 544 q 846 322 883 415 q 757 160 810 229 q 644 45 704 91 q 541 0 585 0 q 467 33 494 0 q 441 123 441 66 q 254 0 334 0 q 180 33 208 0 q 153 119 153 66 q 159 179 153 157 l 205 418 q 213 472 213 446 q 199 506 213 506 q 184 500 194 506 q 165 484 175 494 q 146 467 155 475 q 132 450 138 458 l 125 442 q 115 455 122 442 q 107 473 107 468 q 176 545 123 500 q 263 590 228 590 z "},"x":{"ha":646,"x_min":65,"x_max":686,"o":"m 282 590 q 374 472 339 590 l 403 376 l 483 513 q 597 590 528 590 q 675 563 643 590 q 686 528 686 541 q 672 493 686 507 q 643 479 658 479 q 603 500 625 479 q 562 521 581 521 q 525 486 545 521 l 423 312 l 481 121 q 518 75 495 75 q 562 96 538 75 q 594 134 585 117 q 608 123 600 134 q 616 107 616 113 q 566 39 612 84 q 477 -7 519 -7 q 385 111 420 -7 l 354 217 l 269 69 q 155 -8 224 -8 q 76 19 109 -8 q 65 54 65 38 q 79 89 65 75 q 109 103 94 103 q 149 82 126 103 q 190 61 171 61 q 227 96 206 61 l 334 281 l 278 463 q 241 509 264 509 q 198 488 221 509 q 165 449 175 467 q 152 460 160 449 q 144 476 144 471 q 194 545 148 499 q 282 590 240 590 z "},"y":{"ha":650,"x_min":-37,"x_max":663,"o":"m 293 590 q 360 521 334 590 q 396 340 387 452 q 408 165 406 228 q 411 38 411 102 q 517 204 464 103 q 570 387 570 305 q 536 532 570 467 q 604 590 553 590 q 663 483 663 590 q 547 140 663 334 q 283 -184 430 -53 q 45 -316 136 -316 q -14 -300 9 -316 q -37 -260 -37 -283 q -5 -201 -37 -217 q 85 -218 24 -218 q 281 -98 198 -218 q 312 84 312 -52 q 309 216 312 151 q 296 351 305 282 q 271 463 288 420 q 231 506 254 506 q 194 483 218 506 q 156 442 170 460 q 146 455 153 442 q 138 473 138 468 q 203 542 146 494 q 293 590 259 590 z "},"z":{"ha":548,"x_min":68,"x_max":589,"o":"m 278 590 q 365 573 292 590 q 483 556 438 556 q 528 573 502 556 q 572 590 553 590 q 589 556 589 590 q 487 436 589 548 q 285 216 385 324 l 183 107 q 193 112 183 106 q 216 125 202 118 q 239 132 229 132 q 334 107 277 132 q 410 83 391 83 q 432 91 420 83 q 454 112 444 99 q 472 136 464 125 q 487 161 480 148 q 495 175 494 174 q 507 171 500 182 q 514 149 513 160 q 461 57 503 114 q 378 0 419 0 q 292 18 365 0 q 174 35 218 35 q 129 18 155 35 q 84 0 103 0 q 68 35 68 0 q 169 156 68 45 q 372 376 270 267 l 472 484 l 464 477 q 441 465 454 472 q 418 458 427 458 q 323 483 380 458 q 247 507 266 507 q 224 499 236 507 q 203 478 213 491 q 185 453 193 465 q 171 429 178 441 q 163 415 164 416 q 151 419 156 408 q 144 442 145 430 q 196 534 155 477 q 278 590 237 590 z "},"{":{"ha":373,"x_min":4,"x_max":395,"o":"m 4 16 q 32 134 4 79 q 87 235 60 190 q 115 316 115 279 q 111 340 115 330 q 100 357 106 350 q 83 370 95 363 q 64 380 71 377 q 40 389 57 382 q 18 396 23 395 l 18 404 q 28 446 18 430 q 81 463 62 456 q 121 484 99 469 q 154 521 144 498 q 164 576 164 544 q 153 659 164 602 q 141 745 141 715 q 210 926 141 834 q 391 1017 279 1017 q 395 1012 395 1017 q 388 991 395 1004 q 374 978 381 979 q 341 967 363 977 q 289 938 319 958 q 237 877 259 918 q 216 783 216 836 q 223 708 216 757 q 231 629 231 659 q 186 477 231 534 q 96 418 141 419 q 152 384 127 416 q 176 301 176 351 q 147 194 176 245 q 89 94 118 142 q 60 0 60 46 q 94 -90 60 -52 q 159 -130 127 -127 q 168 -152 168 -133 q 160 -170 168 -170 q 47 -118 91 -170 q 4 16 4 -66 z "},"|":{"ha":275,"x_min":-15,"x_max":296,"o":"m 214 1027 q 274 1048 236 1048 q 289 1046 282 1048 q 294 1039 296 1043 l 66 -144 q 41 -159 58 -152 q 4 -167 23 -167 q -9 -163 -3 -167 q -15 -156 -16 -160 l 214 1027 z "},"}":{"ha":363,"x_min":-23,"x_max":373,"o":"m 373 845 q 355 745 373 793 q 314 665 336 696 q 273 597 292 635 q 255 529 255 560 q 271 486 255 503 q 304 463 288 469 q 351 446 320 456 q 353 435 353 444 q 343 396 353 415 q 319 389 338 395 q 292 381 301 384 q 267 371 283 378 q 243 355 251 363 q 224 336 235 347 q 210 307 214 324 q 206 270 206 290 q 218 190 206 244 q 229 107 229 136 q 155 -77 229 15 q -19 -170 80 -170 q -23 -164 -23 -170 q -16 -144 -23 -156 q -1 -130 -8 -132 q 98 -73 38 -127 q 157 64 157 -19 q 144 138 157 91 q 130 218 130 186 q 178 359 130 302 q 271 418 225 416 q 220 450 241 419 q 198 530 198 481 q 255 703 198 598 q 312 856 312 807 q 278 941 312 906 q 213 978 244 975 q 203 1000 203 981 q 212 1017 203 1017 q 328 972 282 1017 q 373 845 373 926 z "},"~":{"ha":642,"x_min":26,"x_max":629,"o":"m 213 480 q 354 444 273 480 q 495 408 435 408 q 543 418 518 408 q 578 437 567 429 q 621 468 590 445 q 629 454 629 460 q 572 380 629 420 q 446 339 514 339 q 303 375 387 339 q 160 411 220 411 q 113 401 137 411 q 77 382 88 391 q 34 351 65 374 q 26 365 26 359 q 90 441 26 403 q 213 480 155 480 z "},"":{"ha":140,"x_min":0,"x_max":0,"o":""},"":{"ha":267,"x_min":-22,"x_max":271,"o":"m 28 -365 q -9 -347 4 -365 q -22 -302 -22 -330 q 23 -109 -22 -281 q 140 347 83 125 q 149 370 142 361 q 161 377 156 380 q 184 349 184 365 q 102 -279 103 -270 q 75 -340 95 -315 q 28 -365 56 -365 m 125 500 q 152 568 125 538 q 213 597 179 597 q 255 578 239 597 q 271 533 271 560 q 244 467 271 495 q 183 439 217 439 q 141 456 157 439 q 125 500 125 473 z "},"":{"ha":433,"x_min":77,"x_max":499,"o":"m 387 590 q 448 576 416 590 q 496 544 480 563 q 499 514 499 533 q 484 474 499 490 q 445 458 468 458 q 397 498 423 458 q 353 537 372 537 q 237 441 297 537 q 178 220 178 346 q 183 161 178 189 q 212 105 189 133 q 274 77 235 77 q 334 101 302 77 q 381 143 366 125 q 401 172 396 161 q 409 161 404 172 q 415 142 414 151 q 357 54 415 113 q 241 -5 300 -5 q 141 32 180 -5 q 90 113 102 69 q 77 206 77 157 q 180 469 77 347 q 387 590 282 590 m 397 643 q 439 632 441 643 l 201 -61 q 159 -49 157 -61 l 397 643 z "},"":{"ha":594,"x_min":60,"x_max":609,"o":"m 148 433 q 484 433 148 433 q 488 419 491 433 q 461 378 484 392 q 136 378 461 378 q 133 396 129 378 q 148 433 137 418 m 292 350 q 189 114 264 216 q 282 126 220 126 q 385 104 319 126 q 472 83 450 83 q 510 96 491 83 q 538 119 529 109 q 565 155 548 130 q 583 182 582 179 q 595 159 595 182 q 593 146 595 152 q 414 -11 507 -11 q 291 14 370 -11 q 183 39 212 39 q 79 -12 140 39 q 63 -3 68 -12 q 60 14 58 5 q 102 68 76 37 q 138 111 129 99 q 202 338 170 160 q 218 450 205 350 q 236 574 232 551 q 340 781 260 701 q 522 861 420 861 q 609 811 589 861 q 591 758 605 784 q 556 731 578 731 q 509 768 530 731 q 461 804 487 804 q 408 787 431 804 q 370 737 385 770 q 347 674 355 704 q 331 602 339 644 q 309 467 326 576 q 292 350 293 357 z "},"":{"ha":606,"x_min":3,"x_max":616,"o":"m 335 628 q 215 547 267 628 q 163 370 163 467 q 194 252 163 298 q 275 206 225 206 q 395 286 343 206 q 446 463 446 366 q 415 581 446 534 q 335 628 384 628 m 355 673 q 486 617 434 673 l 575 692 q 581 693 576 693 q 603 673 591 693 q 616 632 614 654 l 525 556 q 540 471 540 515 q 464 270 540 362 l 517 191 q 517 190 517 190 q 518 189 518 190 q 495 159 518 178 q 450 136 472 141 l 400 210 q 256 163 331 163 q 123 217 175 163 l 43 149 q 38 148 42 148 q 16 168 27 148 q 3 209 4 187 l 84 278 q 68 363 68 317 q 152 574 68 481 l 102 650 q 101 651 102 651 q 100 652 100 651 q 123 682 100 663 q 168 705 146 700 l 218 631 q 355 673 283 673 z "},"":{"ha":829,"x_min":194,"x_max":966,"o":"m 521 345 q 636 345 521 345 q 639 327 643 345 q 625 293 635 307 q 510 293 625 293 l 500 239 q 616 239 500 239 q 618 221 623 239 q 605 187 614 201 q 490 187 605 187 q 475 62 473 102 q 504 43 476 53 q 543 33 532 33 q 545 16 548 33 q 538 -4 543 3 q 404 3 416 3 q 259 -4 399 3 q 256 14 255 5 q 266 33 259 33 q 312 42 281 33 q 350 62 343 52 q 384 187 368 103 l 267 187 q 264 205 260 187 q 279 239 267 224 l 393 239 l 404 293 q 289 293 404 293 q 286 311 282 293 q 300 345 290 331 q 415 345 300 345 q 418 366 420 361 q 309 722 418 388 q 271 806 294 769 q 237 826 263 818 q 195 834 212 834 q 194 849 191 834 q 202 871 197 865 q 267 866 221 869 q 347 863 312 863 q 507 871 357 863 q 505 849 509 864 q 496 834 500 834 q 447 823 475 834 q 415 791 419 812 q 420 751 412 781 l 503 472 q 517 475 510 464 q 745 792 735 743 q 726 821 747 807 q 669 834 705 834 q 666 842 666 836 q 669 859 666 849 q 675 871 671 868 q 726 866 688 869 q 791 863 765 863 q 966 871 815 863 q 964 850 966 857 q 956 834 962 834 q 894 823 940 834 q 831 795 848 811 q 647 553 762 707 q 528 382 532 400 l 521 345 z "},"":{"ha":275,"x_min":-15,"x_max":294,"o":"m 213 1023 q 273 1044 235 1044 q 288 1042 281 1044 q 293 1035 294 1039 l 199 543 q 138 519 179 519 q 124 523 132 519 q 118 530 117 526 l 213 1023 m 80 336 q 140 358 102 358 q 155 355 148 358 q 160 349 161 353 l 66 -144 q 41 -159 58 -152 q 4 -167 23 -167 q -9 -163 -3 -167 q -15 -156 -16 -160 l 80 336 z "},"":{"ha":472,"x_min":12,"x_max":467,"o":"m 369 884 q 467 834 446 884 q 410 753 460 753 q 382 772 393 753 q 357 812 372 792 q 316 833 342 833 q 245 797 275 833 q 214 709 214 761 q 238 638 214 670 q 296 583 262 606 q 363 536 330 560 q 421 476 397 513 q 445 393 445 439 q 332 170 445 255 q 333 161 332 167 q 334 151 334 155 q 279 -12 334 62 q 111 -85 225 -85 q 12 -37 31 -85 q 30 23 15 0 q 69 46 45 46 q 96 25 85 46 q 121 -16 107 4 q 161 -37 136 -37 q 233 1 202 -37 q 263 88 263 38 q 239 159 263 127 q 182 214 216 191 q 114 261 148 237 q 56 321 80 285 q 33 404 33 358 q 146 629 33 540 q 146 639 146 632 q 145 648 145 646 q 203 813 145 742 q 369 884 262 884 m 103 480 q 132 401 103 437 q 196 346 160 366 q 270 291 232 326 q 323 216 308 256 q 374 319 374 252 q 346 397 374 362 q 282 452 317 431 q 209 507 247 472 q 156 582 171 541 q 110 528 121 555 q 103 480 103 506 z "},"":{"ha":387,"x_min":26,"x_max":374,"o":"m 324 783 q 359 766 345 783 q 374 728 374 750 q 353 671 374 696 q 301 647 332 647 q 267 665 279 647 q 255 707 255 682 q 275 760 255 738 q 324 783 294 783 m 95 783 q 130 766 115 783 q 145 728 145 750 q 124 671 145 696 q 72 647 103 647 q 38 665 50 647 q 26 707 26 682 q 45 760 26 738 q 95 783 65 783 z "},"":{"ha":742,"x_min":33,"x_max":735,"o":"m 419 655 q 555 629 498 655 q 557 618 557 624 q 559 551 559 600 q 537 534 559 534 q 529 537 532 534 q 525 556 529 545 q 511 580 521 567 q 479 601 502 593 q 426 609 457 609 q 320 555 368 609 q 273 427 273 502 q 304 339 273 370 q 378 308 336 308 q 429 313 407 308 q 464 329 452 319 q 483 347 476 339 q 495 366 490 354 q 502 378 500 377 q 507 380 505 380 l 526 374 q 506 328 522 363 q 484 290 490 293 q 346 264 420 264 q 239 307 281 264 q 198 416 198 350 q 264 581 198 507 q 419 655 331 655 m 456 834 q 657 751 579 834 q 735 540 735 667 q 604 229 735 365 q 311 94 473 94 q 110 177 187 94 q 33 388 33 260 q 163 699 33 563 q 456 834 293 834 m 448 792 q 189 671 305 792 q 73 396 73 551 q 142 210 73 283 q 320 136 212 136 q 579 256 463 136 q 696 530 696 376 q 626 718 696 643 q 448 792 556 792 z "},"":{"ha":433,"x_min":37,"x_max":427,"o":"m 316 754 q 393 741 380 754 l 342 468 q 338 429 338 446 q 358 393 338 393 q 393 429 369 393 l 418 463 q 427 442 423 463 q 387 378 418 416 q 326 339 357 339 q 273 408 273 339 q 277 448 273 423 l 279 471 l 278 473 q 277 473 277 473 q 277 471 277 472 q 210 387 260 435 q 118 338 159 338 q 37 437 37 338 q 134 650 37 545 q 316 754 231 754 m 309 719 q 182 627 248 719 q 117 458 117 534 q 157 393 117 393 q 236 463 187 393 q 297 600 285 533 l 315 696 q 315 701 315 697 q 316 707 316 705 q 309 719 316 719 z "},"":{"ha":564,"x_min":5,"x_max":574,"o":"m 549 574 q 574 552 574 566 q 572 542 574 545 q 549 519 570 538 q 479 458 528 499 q 409 394 460 442 q 345 335 358 346 l 430 213 q 454 181 441 198 q 475 155 468 164 q 486 138 481 146 q 491 123 491 129 q 486 113 491 118 q 476 106 481 109 q 464 102 471 104 q 456 99 457 99 q 376 187 441 122 q 237 308 311 252 q 232 321 232 312 q 248 363 232 347 q 394 456 320 404 q 501 534 468 507 q 549 574 534 560 m 118 335 q 179 246 151 286 q 222 189 208 206 q 248 157 237 171 q 262 138 259 144 q 266 125 266 132 q 260 114 266 119 q 248 106 255 109 q 236 100 241 103 l 229 99 q 149 187 214 122 q 11 308 84 252 q 5 321 5 312 q 22 363 5 347 q 172 458 96 406 q 282 539 247 511 q 324 574 317 567 q 347 552 347 567 q 345 542 347 545 q 322 519 343 538 q 252 458 301 499 q 182 394 233 442 q 118 335 132 346 z "},"":{"ha":643,"x_min":26,"x_max":628,"o":"m 54 570 l 616 570 q 628 555 631 570 l 564 229 q 507 217 552 217 q 493 220 499 217 q 488 228 487 222 l 538 480 l 538 481 q 525 494 538 494 l 30 494 q 26 518 26 510 q 35 553 26 536 q 54 570 45 570 z "},"":{"ha":742,"x_min":46,"x_max":738,"o":"m 412 718 q 366 704 369 718 l 347 602 q 346 599 347 601 q 345 597 345 597 q 396 581 345 581 q 446 606 427 581 q 464 666 464 632 q 412 718 464 718 m 426 751 q 497 730 468 751 q 526 669 526 708 q 448 562 526 601 q 446 557 446 560 l 446 556 q 490 452 452 526 q 509 417 502 429 q 528 397 515 406 q 553 388 540 388 q 551 373 553 378 q 526 369 543 369 q 444 399 469 369 q 376 540 419 429 q 353 552 372 552 q 335 541 338 552 l 312 420 l 312 406 q 316 395 312 396 q 342 387 332 387 q 343 382 343 387 q 340 369 343 380 q 273 372 289 372 q 198 369 255 372 q 197 374 198 372 q 197 380 197 377 q 199 383 197 381 q 201 387 201 385 q 225 391 217 389 q 238 398 233 392 q 243 407 243 404 q 247 424 244 410 q 251 448 250 438 l 296 677 q 301 716 301 707 q 291 729 301 724 q 271 734 281 734 q 269 736 269 734 q 271 744 269 739 q 273 750 273 749 q 300 748 281 750 q 331 746 319 746 q 379 749 350 746 q 426 751 408 751 m 198 814 q 259 868 198 814 q 463 922 320 922 q 686 814 606 922 q 737 552 766 705 q 585 290 708 399 q 319 180 463 180 q 97 290 176 180 q 47 552 18 399 q 198 814 76 705 m 653 783 q 617 831 653 783 q 456 879 582 879 q 223 783 331 879 q 89 552 115 688 q 133 320 62 416 q 329 224 203 224 q 563 320 454 224 q 698 552 671 416 q 653 783 724 688 z "},"":{"ha":354,"x_min":34,"x_max":338,"o":"m 58 808 l 327 808 q 338 784 338 808 q 329 753 338 772 q 313 731 320 735 l 41 731 q 34 757 34 731 q 42 785 34 768 q 58 808 50 802 z "},"":{"ha":273,"x_min":19,"x_max":273,"o":"m 161 810 q 96 781 125 810 q 68 711 68 751 q 85 663 68 682 q 130 643 102 643 q 195 673 165 643 q 224 743 224 704 q 207 791 224 772 q 161 810 190 810 m 171 860 q 244 829 216 860 q 273 753 273 799 q 225 642 273 690 q 121 593 178 593 q 47 624 76 593 q 19 701 19 655 q 67 812 19 765 q 171 860 115 860 z "},"":{"ha":674,"x_min":-11,"x_max":686,"o":"m 19 125 l 602 125 q 608 113 608 125 q 579 49 608 80 l -4 49 q -11 61 -11 49 q 19 125 -11 87 m 98 528 l 339 528 q 345 533 345 528 q 366 656 353 572 q 389 788 380 739 q 422 806 392 800 q 465 812 452 812 q 477 809 473 812 q 479 800 480 806 q 431 534 448 618 q 435 528 429 528 l 681 528 q 686 515 686 528 q 658 452 686 483 l 415 452 q 410 446 410 452 l 362 191 q 338 174 361 180 q 294 167 315 167 q 278 171 283 167 q 274 179 273 175 q 323 445 308 369 q 317 452 323 452 l 75 452 q 68 464 68 452 q 98 528 68 490 z "},"":{"ha":410,"x_min":12,"x_max":411,"o":"m 411 764 q 366 643 411 705 q 269 538 321 581 q 171 463 216 496 q 126 422 126 429 q 127 420 126 420 l 300 420 q 333 433 319 420 q 355 458 347 445 q 366 471 363 471 q 387 465 378 471 q 369 429 377 448 q 351 384 361 410 q 336 345 342 358 l 184 346 l 19 345 q 12 370 12 347 q 18 389 12 380 q 81 450 39 410 q 143 509 122 490 q 196 562 164 529 q 244 614 228 594 q 278 658 260 633 q 303 701 296 682 q 311 738 311 720 q 295 785 311 765 q 248 806 279 806 q 184 777 231 806 q 136 747 137 747 q 129 758 133 747 q 125 776 125 769 q 129 792 125 784 q 197 846 145 815 q 298 878 250 878 q 380 845 349 878 q 411 764 411 812 z "},"":{"ha":378,"x_min":9,"x_max":381,"o":"m 141 384 q 237 427 195 384 q 279 530 279 469 q 260 583 279 564 q 212 602 241 602 q 145 594 206 602 q 138 613 138 605 q 153 635 138 631 q 262 691 231 651 q 293 762 293 731 q 277 795 293 783 q 239 808 260 808 q 172 783 206 808 q 134 758 137 758 q 127 770 129 758 q 127 792 126 781 l 127 804 q 294 878 197 878 q 353 854 324 878 q 381 791 381 830 q 361 730 381 758 q 326 690 342 701 q 279 661 309 678 q 273 656 275 658 q 337 625 302 656 q 372 545 372 594 q 294 401 372 468 q 107 335 217 335 q 42 347 71 335 q 9 370 14 358 q 26 412 11 393 q 58 430 41 430 q 98 407 76 430 q 141 384 119 384 z "},"":{"ha":281,"x_min":30,"x_max":275,"o":"m 231 932 q 275 903 275 932 q 168 793 275 871 q 43 715 60 715 q 35 723 39 715 q 30 736 30 731 q 87 817 30 746 q 165 909 145 888 q 231 932 189 932 z "},"":{"ha":581,"x_min":5,"x_max":604,"o":"m 209 593 q 245 574 221 593 q 267 543 270 555 q 194 334 259 495 l 182 302 q 166 155 163 222 q 201 87 170 87 q 420 301 302 87 l 494 576 q 514 593 496 593 q 551 574 526 593 q 572 543 575 555 q 498 334 566 500 l 486 302 q 514 91 439 91 q 594 132 553 91 q 604 118 598 132 q 604 103 606 110 q 542 26 582 58 q 464 -5 502 -5 q 415 43 423 -4 q 414 174 407 90 q 187 -12 300 -12 q 172 -10 179 -12 q 159 -3 164 -8 q 149 7 153 3 q 142 20 145 11 q 136 35 138 30 q 132 53 134 41 q 130 70 130 65 q 127 87 129 75 q 126 103 126 100 q 115 46 126 102 q 98 -58 104 -9 q 94 -169 91 -107 q 118 -263 98 -231 q 97 -288 117 -277 q 58 -300 77 -300 q 37 -289 47 -300 q 16 -250 26 -278 q 5 -180 5 -221 q 118 277 5 -79 q 131 349 122 296 q 140 404 140 401 q 172 566 153 465 q 209 593 193 593 z "},"":{"ha":562,"x_min":28,"x_max":581,"o":"m 285 388 l 225 66 l 225 64 q 252 49 225 49 q 271 55 262 49 q 281 68 279 61 q 349 400 298 136 q 346 406 349 406 q 339 404 345 406 q 321 401 334 403 q 294 397 309 399 q 285 388 286 396 m 296 884 q 366 882 334 884 q 437 879 399 879 l 579 886 q 581 876 581 884 q 571 846 581 846 q 526 838 556 846 q 490 819 496 830 q 467 723 484 810 q 435 555 450 636 q 420 473 420 475 q 423 469 420 469 l 426 469 l 481 480 q 483 469 483 476 q 452 429 483 438 l 418 419 q 408 412 408 415 q 396 349 407 407 q 376 239 385 292 q 357 133 366 187 q 349 64 349 79 q 380 41 349 50 q 426 31 412 31 q 429 24 429 31 q 419 -5 429 1 q 330 -1 397 -4 q 216 3 262 3 q 165 1 190 3 q 111 -2 140 0 q 64 -5 81 -4 l 64 -3 q 67 19 64 7 q 75 31 71 31 q 119 41 85 31 q 157 61 153 52 q 184 162 167 81 q 214 313 201 243 q 227 388 227 384 q 202 395 227 395 q 73 455 117 395 q 28 594 28 515 q 114 793 28 703 q 296 884 199 884 m 370 812 q 358 753 370 810 q 332 634 346 697 q 308 516 319 571 q 297 457 297 461 q 307 450 297 450 l 355 458 q 363 467 361 458 q 381 560 365 472 q 412 729 397 648 q 427 815 427 810 q 419 824 427 819 q 401 829 411 829 q 370 812 373 829 z "},"":{"ha":178,"x_min":14,"x_max":163,"o":"m 14 342 q 42 408 14 378 q 104 437 71 437 q 146 419 130 437 q 163 374 163 401 q 135 307 163 336 q 73 278 107 278 q 31 296 47 278 q 14 342 14 315 z "},"":{"ha":218,"x_min":11,"x_max":191,"o":"m 118 -5 l 144 -5 l 117 -37 l 146 -37 q 179 -52 167 -37 q 191 -88 191 -66 q 153 -168 191 -130 q 50 -206 114 -206 q 11 -194 26 -206 l 11 -182 q 18 -162 11 -168 q 31 -156 26 -156 q 51 -165 38 -156 q 75 -174 64 -174 q 121 -158 102 -174 q 140 -118 140 -142 q 130 -92 140 -100 q 107 -83 121 -83 q 73 -92 98 -83 q 67 -87 71 -92 q 64 -77 64 -81 q 70 -67 64 -75 q 90 -42 76 -60 q 118 -5 104 -24 z "},"":{"ha":296,"x_min":9,"x_max":293,"o":"m 69 785 q 164 830 109 803 q 250 871 220 857 q 285 884 279 884 q 293 853 293 884 q 260 743 270 796 l 206 461 q 201 420 201 429 q 206 397 201 404 q 233 385 210 391 q 264 378 255 378 q 267 369 267 378 q 262 343 267 351 q 207 345 247 343 q 138 347 167 347 q 68 345 110 347 q 11 343 26 343 q 9 350 9 345 q 19 377 9 377 q 60 384 31 377 q 92 396 88 391 q 113 461 103 408 l 157 696 q 165 755 165 753 q 152 772 165 772 q 71 747 144 772 q 60 768 60 750 q 69 785 60 781 z "},"":{"ha":423,"x_min":39,"x_max":423,"o":"m 259 718 q 181 682 212 718 q 140 600 151 647 q 129 494 129 552 q 208 368 129 368 q 271 389 244 368 q 310 447 297 411 q 328 519 323 483 q 334 598 334 556 q 259 718 334 718 m 273 751 q 381 704 339 751 q 423 586 423 656 q 355 412 423 490 q 191 335 288 335 q 82 382 125 335 q 39 498 39 429 q 107 673 39 594 q 273 751 175 751 z "},"":{"ha":576,"x_min":-3,"x_max":563,"o":"m 113 574 q 201 476 133 544 q 332 363 269 408 q 336 342 336 355 q 323 308 336 313 q 165 207 240 259 q 56 127 90 155 l 22 99 q -3 119 -3 106 q 5 136 -3 127 q 52 178 14 145 q 92 213 76 198 l 225 335 l 138 458 q 80 545 80 530 q 84 559 80 553 q 93 566 88 564 q 104 570 98 568 q 113 574 111 572 m 339 574 q 425 478 357 547 q 557 363 494 410 q 563 345 563 357 q 548 308 563 313 q 395 210 469 262 q 285 127 320 157 l 248 99 q 224 119 224 106 q 232 136 224 127 q 278 178 240 145 q 319 213 302 198 l 452 335 l 365 458 q 305 544 305 532 q 308 555 305 551 q 315 564 311 560 q 324 568 320 567 q 334 572 328 570 l 339 574 z "},"":{"ha":764,"x_min":-1,"x_max":750,"o":"m 58 785 q 153 830 98 803 q 239 871 209 857 q 274 884 269 884 q 282 853 282 884 q 250 743 259 796 l 195 461 q 190 420 190 429 q 197 397 190 407 q 222 385 201 391 q 254 378 244 378 q 256 369 256 378 q 251 343 256 351 q 196 345 236 343 q 127 347 156 347 q 57 345 99 347 q 0 343 15 343 q -1 350 -1 345 q 8 377 -1 377 q 49 384 20 377 q 81 396 77 391 q 102 461 92 408 l 146 696 q 155 755 155 753 q 141 772 155 772 q 60 747 133 772 q 49 768 49 750 q 58 785 49 781 m 749 838 l 144 -19 q 99 5 99 -9 q 102 14 99 11 l 708 871 q 750 845 750 860 q 749 838 750 840 m 697 529 q 718 538 707 538 q 749 529 751 538 l 688 220 l 688 218 q 693 214 688 214 l 726 214 q 738 205 738 214 q 723 156 738 165 l 680 156 q 674 149 677 156 l 644 0 q 608 -7 631 -7 q 578 -5 590 -7 q 562 0 566 -3 q 559 5 557 3 l 586 152 l 586 153 q 582 156 586 156 l 393 156 q 384 191 384 172 l 697 529 m 468 214 l 591 214 q 600 221 598 214 l 635 396 q 632 401 635 401 l 631 401 l 465 225 q 464 221 464 224 q 468 214 464 214 z "},"":{"ha":826,"x_min":0,"x_max":808,"o":"m 730 838 l 125 -19 q 80 5 80 -9 q 83 14 80 11 l 689 871 q 732 845 732 860 q 730 838 732 841 m 697 76 q 732 83 720 76 q 747 100 745 91 q 755 117 749 110 q 776 125 762 125 q 785 122 784 125 q 735 0 783 118 l 418 0 q 407 23 407 5 q 415 45 407 35 q 474 100 433 61 q 535 159 515 140 q 588 211 555 178 q 637 265 621 244 q 673 312 654 286 q 700 357 692 338 q 708 395 708 377 q 692 441 708 422 q 646 461 677 461 q 593 446 623 461 q 543 407 563 430 q 537 404 540 404 q 528 416 533 404 q 524 435 524 427 l 525 446 q 606 507 557 481 q 696 533 654 533 q 777 500 746 533 q 808 419 808 468 q 764 298 808 361 q 666 195 719 236 q 568 119 613 153 q 524 77 524 85 q 525 76 524 76 l 697 76 m 259 865 l 264 865 q 273 833 273 865 q 239 724 248 777 l 187 458 q 182 418 182 426 q 184 395 182 411 q 211 381 186 388 q 245 374 236 374 q 248 366 248 374 q 243 340 248 349 q 190 342 227 340 q 125 345 153 345 q 58 342 96 345 q 3 340 19 340 q 0 349 0 343 q 9 373 0 373 q 49 380 23 373 q 79 393 75 387 q 100 458 94 418 l 141 677 q 148 731 148 711 q 134 753 148 753 q 71 732 132 753 q 56 747 57 743 q 56 754 56 753 q 57 758 56 755 q 62 762 58 761 q 69 766 65 764 q 81 772 73 769 q 100 781 90 776 q 126 793 110 785 q 161 810 142 800 q 205 833 179 819 q 259 865 231 848 z "},"":{"ha":804,"x_min":1,"x_max":791,"o":"m 777 838 l 172 -19 q 127 5 127 -9 q 130 14 127 11 l 736 871 q 779 845 779 860 q 777 838 779 840 m 127 757 q 117 793 117 757 q 118 800 117 796 l 119 804 q 286 878 189 878 q 346 854 317 878 q 374 791 374 830 q 372 767 374 779 q 365 745 370 755 q 355 727 359 735 q 340 710 350 719 q 326 696 331 701 q 310 684 321 692 q 295 673 298 675 q 279 665 292 671 l 266 656 q 329 626 296 656 q 362 547 362 595 q 283 400 362 465 q 99 335 205 335 q 34 347 62 335 q 1 370 5 358 q 17 412 3 393 q 49 430 31 430 q 90 407 68 430 q 134 384 111 384 q 229 427 189 384 q 270 532 270 469 q 205 602 270 602 q 138 594 199 602 q 132 613 132 605 q 146 635 132 631 q 254 691 222 651 q 285 762 285 731 q 269 796 285 784 q 229 808 252 808 q 167 783 203 808 q 127 757 130 757 m 650 -7 q 601 5 601 -7 l 629 152 q 625 156 629 156 l 437 156 q 427 187 427 172 l 427 191 l 741 529 q 766 538 750 538 q 791 530 791 538 l 791 529 l 731 221 l 731 220 q 736 216 731 216 l 770 216 q 781 206 781 216 q 779 184 780 197 q 770 160 776 163 q 765 156 768 157 l 722 155 q 716 148 719 155 l 688 0 q 650 -7 685 -7 m 643 221 l 677 396 q 674 403 677 403 q 587 310 667 396 q 506 222 506 224 q 511 214 506 214 l 635 214 q 643 221 642 214 z "},"":{"ha":376,"x_min":-20,"x_max":370,"o":"m 187 309 q 201 328 187 320 q 283 287 233 328 q 334 195 334 245 q 277 83 334 127 l 115 -31 q 45 -125 45 -80 q 66 -184 45 -160 q 129 -209 88 -209 q 180 -177 157 -209 q 221 -145 202 -145 q 256 -163 241 -145 q 275 -209 271 -180 q 243 -258 267 -233 q 176 -282 218 -282 q 37 -228 95 -282 q -20 -107 -20 -174 q -14 -51 -20 -75 q -1 -11 -8 -27 q 28 24 7 5 q 67 54 50 43 q 125 92 84 65 q 195 138 165 118 q 240 220 240 168 q 214 275 240 244 q 187 309 187 307 m 370 530 q 343 464 370 492 q 282 435 316 435 q 239 453 256 435 q 221 498 221 471 q 250 564 221 534 q 313 593 279 593 q 355 575 339 593 q 370 530 370 557 z "},"":{"ha":822,"x_min":3,"x_max":822,"o":"m 612 963 q 490 1002 586 963 q 393 1063 393 1040 q 414 1086 393 1076 q 472 1096 435 1096 q 495 1093 487 1096 q 578 1029 526 1073 q 629 977 629 985 q 612 963 629 963 m 591 324 q 591 328 591 327 q 589 330 591 328 q 584 333 587 332 q 574 334 581 334 q 558 336 568 335 q 534 337 548 336 q 500 338 519 338 q 454 338 480 338 q 328 331 426 338 q 292 277 324 331 q 228 159 259 222 q 197 75 197 95 q 216 49 197 60 q 250 35 235 38 q 271 33 266 33 q 274 24 274 33 q 267 -4 274 9 q 138 3 141 3 q 93 1 113 3 q 50 -1 73 0 q 5 -4 27 -3 q 3 7 3 -1 q 12 33 3 33 q 54 41 27 33 q 91 61 80 49 q 174 189 121 94 l 548 861 q 601 898 568 898 q 612 895 606 898 l 724 179 q 741 81 738 94 q 775 47 745 61 q 819 33 806 33 q 822 26 822 33 q 815 -4 822 9 q 674 3 689 3 q 626 1 648 3 q 576 -1 604 0 q 529 -4 549 -3 q 528 4 528 -3 q 537 33 528 33 q 575 41 551 33 q 606 60 600 49 q 616 123 616 80 q 591 324 616 146 m 472 404 q 574 407 534 404 q 579 412 579 407 q 570 476 579 419 q 550 609 562 533 q 534 713 538 685 q 368 408 368 411 q 369 406 368 406 q 472 404 400 404 z "},"":{"ha":822,"x_min":3,"x_max":822,"o":"m 571 964 q 553 978 553 964 q 605 1030 553 986 q 688 1095 656 1074 q 711 1097 696 1097 q 768 1087 747 1097 q 789 1065 789 1077 q 693 1003 789 1042 q 571 964 597 964 m 591 324 q 591 328 591 327 q 589 330 591 328 q 584 333 587 332 q 574 334 581 334 q 558 336 568 335 q 534 337 548 336 q 500 338 519 338 q 454 338 480 338 q 328 331 426 338 q 292 277 324 331 q 228 159 259 222 q 197 75 197 95 q 216 49 197 60 q 250 35 235 38 q 271 33 266 33 q 274 24 274 33 q 267 -4 274 9 q 138 3 141 3 q 93 1 113 3 q 50 -1 73 0 q 5 -4 27 -3 q 3 7 3 -1 q 12 33 3 33 q 54 41 27 33 q 91 61 80 49 q 174 189 121 94 l 548 861 q 601 898 568 898 q 612 895 606 898 l 724 179 q 741 81 738 94 q 775 47 745 61 q 819 33 806 33 q 822 26 822 33 q 815 -4 822 9 q 674 3 689 3 q 626 1 648 3 q 576 -1 604 0 q 529 -4 549 -3 q 528 4 528 -3 q 537 33 528 33 q 575 41 551 33 q 606 60 600 49 q 616 123 616 80 q 591 324 616 146 m 472 404 q 574 407 534 404 q 579 412 579 407 q 570 476 579 419 q 550 609 562 533 q 534 713 538 685 q 368 408 368 411 q 369 406 368 406 q 472 404 400 404 z "},"":{"ha":822,"x_min":3,"x_max":822,"o":"m 768 987 q 633 1066 742 987 q 536 1015 593 1042 q 467 987 479 987 q 458 1015 452 987 q 479 1031 464 1020 q 519 1059 495 1042 q 563 1090 544 1076 q 637 1153 609 1123 q 655 1164 650 1164 q 670 1153 666 1164 q 713 1088 694 1109 q 747 1053 728 1072 q 777 1025 766 1035 q 788 1015 788 1016 q 768 987 781 987 m 591 324 q 591 328 591 327 q 589 330 591 328 q 584 333 587 332 q 574 334 581 334 q 558 336 568 335 q 534 337 548 336 q 500 338 519 338 q 454 338 480 338 q 328 331 426 338 q 292 277 324 331 q 228 159 259 222 q 197 75 197 95 q 216 49 197 60 q 250 35 235 38 q 271 33 266 33 q 274 24 274 33 q 267 -4 274 9 q 138 3 141 3 q 93 1 113 3 q 50 -1 73 0 q 5 -4 27 -3 q 3 7 3 -1 q 12 33 3 33 q 54 41 27 33 q 91 61 80 49 q 174 189 121 94 l 548 861 q 601 898 568 898 q 612 895 606 898 l 724 179 q 741 81 738 94 q 775 47 745 61 q 819 33 806 33 q 822 26 822 33 q 815 -4 822 9 q 674 3 689 3 q 626 1 648 3 q 576 -1 604 0 q 529 -4 549 -3 q 528 4 528 -3 q 537 33 528 33 q 575 41 551 33 q 606 60 600 49 q 616 123 616 80 q 591 324 616 146 m 472 404 q 574 407 534 404 q 579 412 579 407 q 570 476 579 419 q 550 609 562 533 q 534 713 538 685 q 368 408 368 411 q 369 406 368 406 q 472 404 400 404 z "},"":{"ha":822,"x_min":3,"x_max":837,"o":"m 400 1000 q 396 1023 391 1000 q 427 1074 400 1044 q 536 1128 480 1128 q 637 1093 578 1128 q 739 1057 697 1057 q 777 1072 754 1057 q 815 1101 799 1086 q 833 1116 831 1116 q 837 1093 842 1116 q 806 1040 833 1072 q 700 987 757 987 q 597 1023 656 987 q 495 1059 538 1059 q 438 1029 475 1059 q 400 1000 401 1000 m 591 324 q 591 328 591 327 q 589 330 591 328 q 584 333 587 332 q 574 334 581 334 q 558 336 568 335 q 534 337 548 336 q 500 338 519 338 q 454 338 480 338 q 328 331 426 338 q 292 277 324 331 q 228 159 259 222 q 197 75 197 95 q 216 49 197 60 q 250 35 235 38 q 271 33 266 33 q 274 24 274 33 q 267 -4 274 9 q 138 3 141 3 q 93 1 113 3 q 50 -1 73 0 q 5 -4 27 -3 q 3 7 3 -1 q 12 33 3 33 q 54 41 27 33 q 91 61 80 49 q 174 189 121 94 l 548 861 q 601 898 568 898 q 612 895 606 898 l 724 179 q 741 81 738 94 q 775 47 745 61 q 819 33 806 33 q 822 26 822 33 q 815 -4 822 9 q 674 3 689 3 q 626 1 648 3 q 576 -1 604 0 q 529 -4 549 -3 q 528 4 528 -3 q 537 33 528 33 q 575 41 551 33 q 606 60 600 49 q 616 123 616 80 q 591 324 616 146 m 472 404 q 574 407 534 404 q 579 412 579 407 q 570 476 579 419 q 550 609 562 533 q 534 713 538 685 q 368 408 368 411 q 369 406 368 406 q 472 404 400 404 z "},"":{"ha":822,"x_min":3,"x_max":822,"o":"m 667 1007 q 660 1017 667 1007 q 658 1055 652 1027 q 685 1103 663 1084 q 734 1123 707 1123 q 774 1103 760 1123 q 784 1055 789 1084 q 757 1007 779 1027 q 708 987 735 987 q 667 1007 682 987 m 439 1007 q 432 1017 439 1007 q 430 1055 425 1027 q 457 1103 435 1084 q 506 1123 479 1123 q 547 1103 532 1123 q 556 1055 562 1084 q 528 1007 551 1027 q 479 987 506 987 q 439 1007 453 987 m 591 324 q 591 328 591 327 q 589 330 591 328 q 584 333 587 332 q 574 334 581 334 q 558 336 568 335 q 534 337 548 336 q 500 338 519 338 q 454 338 480 338 q 328 331 426 338 q 292 277 324 331 q 228 159 259 222 q 197 75 197 95 q 216 49 197 60 q 250 35 235 38 q 271 33 266 33 q 274 24 274 33 q 267 -4 274 9 q 138 3 141 3 q 93 1 113 3 q 50 -1 73 0 q 5 -4 27 -3 q 3 7 3 -1 q 12 33 3 33 q 54 41 27 33 q 91 61 80 49 q 174 189 121 94 l 548 861 q 601 898 568 898 q 612 895 606 898 l 724 179 q 741 81 738 94 q 775 47 745 61 q 819 33 806 33 q 822 26 822 33 q 815 -4 822 9 q 674 3 689 3 q 626 1 648 3 q 576 -1 604 0 q 529 -4 549 -3 q 528 4 528 -3 q 537 33 528 33 q 575 41 551 33 q 606 60 600 49 q 616 123 616 80 q 591 324 616 146 m 472 404 q 574 407 534 404 q 579 412 579 407 q 570 476 579 419 q 550 609 562 533 q 534 713 538 685 q 368 408 368 411 q 369 406 368 406 q 472 404 400 404 z "},"":{"ha":822,"x_min":3,"x_max":822,"o":"m 567 1069 q 554 1058 567 1069 q 536 1016 541 1047 q 547 962 530 985 q 591 940 563 940 q 644 962 620 940 q 674 1016 667 985 q 665 1069 681 1047 q 621 1090 650 1090 q 567 1069 593 1090 m 511 930 q 497 948 511 930 q 494 1016 484 966 q 544 1101 503 1066 q 631 1137 585 1137 q 702 1101 677 1137 q 716 1016 727 1066 q 667 930 705 966 q 583 894 628 894 q 511 930 537 894 m 591 324 q 591 328 591 327 q 589 330 591 328 q 584 333 587 332 q 574 334 581 334 q 558 336 568 335 q 534 337 548 336 q 500 338 519 338 q 454 338 480 338 q 328 331 426 338 q 292 277 324 331 q 228 159 259 222 q 197 75 197 95 q 216 49 197 60 q 250 35 235 38 q 271 33 266 33 q 274 24 274 33 q 267 -4 274 9 q 138 3 141 3 q 93 1 113 3 q 50 -1 73 0 q 5 -4 27 -3 q 3 7 3 -1 q 12 33 3 33 q 54 41 27 33 q 91 61 80 49 q 174 189 121 94 l 548 861 q 601 898 568 898 q 612 895 606 898 l 724 179 q 741 81 738 94 q 775 47 745 61 q 819 33 806 33 q 822 26 822 33 q 815 -4 822 9 q 674 3 689 3 q 626 1 648 3 q 576 -1 604 0 q 529 -4 549 -3 q 528 4 528 -3 q 537 33 528 33 q 575 41 551 33 q 606 60 600 49 q 616 123 616 80 q 591 324 616 146 m 472 404 q 574 407 534 404 q 579 412 579 407 q 570 476 579 419 q 550 609 562 533 q 534 713 538 685 q 368 408 368 411 q 369 406 368 406 q 472 404 400 404 z "},"":{"ha":1149,"x_min":85,"x_max":1210,"o":"m 286 68 q 313 43 286 54 q 355 33 340 33 q 357 30 357 33 q 345 -4 357 16 q 217 3 220 3 q 172 1 191 3 q 131 -1 153 0 q 87 -4 109 -3 q 85 4 85 -3 q 90 22 85 12 q 98 33 94 33 q 139 41 111 33 q 179 61 167 49 q 286 189 232 109 l 709 795 q 716 815 716 804 q 675 848 716 848 q 671 854 671 848 q 685 890 671 876 l 803 890 q 1000 895 860 890 q 1210 901 1139 901 q 1204 812 1208 873 q 1198 719 1199 751 q 1175 712 1191 712 q 1158 722 1158 712 q 1146 784 1157 760 q 1117 819 1135 808 q 1083 832 1099 829 q 1047 836 1067 836 l 967 836 q 856 818 861 836 q 836 685 846 784 l 815 471 l 815 469 q 857 461 815 461 l 902 461 q 1003 473 983 461 q 1050 545 1023 484 q 1055 557 1054 553 q 1076 567 1059 567 q 1096 560 1092 567 q 1061 300 1074 476 q 1040 294 1053 294 q 1023 304 1024 294 q 1017 359 1021 339 q 1010 381 1012 378 q 1000 391 1008 384 q 864 401 986 401 q 808 388 810 401 l 792 209 l 787 151 q 780 85 780 92 q 785 72 780 77 q 808 63 789 66 q 863 60 827 60 l 883 60 q 1035 83 989 60 q 1130 220 1074 103 q 1150 228 1134 228 q 1179 220 1173 228 q 1078 -5 1109 87 q 884 -1 1006 -5 q 708 3 762 3 l 537 -4 q 536 4 536 -3 q 540 28 536 15 q 548 42 544 42 q 602 51 563 42 q 647 68 642 60 q 658 91 652 76 q 667 128 663 106 q 674 171 671 151 q 680 222 677 191 q 686 275 684 254 q 690 333 688 297 q 694 387 693 369 q 686 397 694 397 l 594 399 q 503 397 538 399 q 495 393 499 397 l 347 178 q 286 68 286 91 m 732 742 l 543 467 q 542 463 541 465 q 544 461 543 461 q 616 460 570 460 q 696 463 669 460 l 704 469 l 732 742 z "},"":{"ha":787,"x_min":81,"x_max":882,"o":"m 374 -37 l 412 -37 q 455 -60 441 -37 q 463 -115 469 -83 q 405 -203 452 -170 q 298 -236 358 -236 q 251 -222 267 -236 l 251 -199 q 261 -184 254 -191 q 275 -178 269 -178 q 298 -188 283 -178 q 327 -198 313 -198 q 377 -182 357 -198 q 401 -145 397 -167 q 394 -105 406 -119 q 366 -91 382 -91 q 324 -102 350 -91 q 316 -94 321 -102 q 313 -81 311 -85 q 342 -46 316 -79 q 377 0 368 -14 l 408 0 l 374 -37 m 593 905 q 882 844 685 905 q 854 675 857 689 q 822 655 850 655 q 807 659 811 655 q 806 696 807 680 q 792 743 804 712 q 759 795 780 774 q 693 831 738 815 q 586 848 648 848 q 326 699 446 848 q 205 351 205 549 q 275 136 205 221 q 475 50 346 50 q 646 95 575 50 q 705 144 680 115 q 741 190 730 172 q 754 208 753 208 q 770 193 758 208 q 781 174 783 179 q 713 50 720 57 q 608 9 693 27 q 435 -8 522 -8 q 178 102 274 -8 q 81 362 81 213 q 121 548 81 452 q 228 724 161 644 q 391 854 294 803 q 593 905 488 905 z "},"":{"ha":704,"x_min":33,"x_max":753,"o":"m 582 963 q 460 1002 556 963 q 363 1063 363 1040 q 385 1086 363 1076 q 442 1096 406 1096 q 465 1093 457 1096 q 548 1029 496 1073 q 600 977 600 985 q 582 963 600 963 m 354 890 q 545 895 410 890 q 751 901 681 901 q 750 848 750 882 q 751 781 750 825 q 753 716 753 738 q 728 709 746 709 q 712 719 712 709 q 677 815 708 795 q 578 836 646 836 l 505 836 q 401 818 408 836 q 377 727 387 777 l 334 490 q 337 484 334 486 q 349 481 340 481 q 365 479 357 480 q 384 479 373 479 l 445 479 q 556 492 534 479 q 609 575 578 505 q 628 585 613 585 q 648 578 644 585 l 598 317 q 579 312 590 312 q 560 323 562 312 q 555 378 559 359 q 549 399 551 396 q 540 408 547 403 q 408 419 526 419 q 316 407 319 419 l 277 206 q 262 88 262 134 q 273 64 262 68 q 345 60 283 60 l 406 60 q 570 83 524 60 q 621 131 591 94 q 675 220 650 168 q 696 228 680 228 q 724 220 719 228 q 613 -5 629 43 q 390 -1 541 -5 q 184 3 239 3 l 34 -4 q 33 7 33 -3 q 39 33 33 33 q 90 43 54 33 q 130 66 125 54 q 165 193 149 106 l 263 697 q 278 823 281 793 q 247 845 277 834 q 202 856 217 856 q 199 861 199 856 q 209 892 199 883 q 354 890 271 890 z "},"":{"ha":704,"x_min":33,"x_max":753,"o":"m 452 964 q 434 978 434 964 q 486 1030 434 986 q 568 1095 537 1074 q 591 1097 576 1097 q 649 1087 628 1097 q 670 1065 670 1077 q 574 1003 670 1042 q 452 964 477 964 m 354 890 q 545 895 410 890 q 751 901 681 901 q 750 848 750 882 q 751 781 750 825 q 753 716 753 738 q 728 709 746 709 q 712 719 712 709 q 677 815 708 795 q 578 836 646 836 l 505 836 q 401 818 408 836 q 377 727 387 777 l 334 490 q 337 484 334 486 q 349 481 340 481 q 365 479 357 480 q 384 479 373 479 l 445 479 q 556 492 534 479 q 609 575 578 505 q 628 585 613 585 q 648 578 644 585 l 598 317 q 579 312 590 312 q 560 323 562 312 q 555 378 559 359 q 549 399 551 396 q 540 408 547 403 q 408 419 526 419 q 316 407 319 419 l 277 206 q 262 88 262 134 q 273 64 262 68 q 345 60 283 60 l 406 60 q 570 83 524 60 q 621 131 591 94 q 675 220 650 168 q 696 228 680 228 q 724 220 719 228 q 613 -5 629 43 q 390 -1 541 -5 q 184 3 239 3 l 34 -4 q 33 7 33 -3 q 39 33 33 33 q 90 43 54 33 q 130 66 125 54 q 165 193 149 106 l 263 697 q 278 823 281 793 q 247 845 277 834 q 202 856 217 856 q 199 861 199 856 q 209 892 199 883 q 354 890 271 890 z "},"":{"ha":704,"x_min":33,"x_max":753,"o":"m 674 987 q 540 1066 648 987 q 442 1015 499 1042 q 373 987 385 987 q 365 1015 358 987 q 386 1031 370 1020 q 426 1059 401 1042 q 469 1090 450 1076 q 544 1153 515 1123 q 562 1164 556 1164 q 576 1153 572 1164 q 620 1088 601 1109 q 654 1053 635 1072 q 684 1025 673 1035 q 694 1015 694 1016 q 674 987 688 987 m 354 890 q 545 895 410 890 q 751 901 681 901 q 750 848 750 882 q 751 781 750 825 q 753 716 753 738 q 728 709 746 709 q 712 719 712 709 q 677 815 708 795 q 578 836 646 836 l 505 836 q 401 818 408 836 q 377 727 387 777 l 334 490 q 337 484 334 486 q 349 481 340 481 q 365 479 357 480 q 384 479 373 479 l 445 479 q 556 492 534 479 q 609 575 578 505 q 628 585 613 585 q 648 578 644 585 l 598 317 q 579 312 590 312 q 560 323 562 312 q 555 378 559 359 q 549 399 551 396 q 540 408 547 403 q 408 419 526 419 q 316 407 319 419 l 277 206 q 262 88 262 134 q 273 64 262 68 q 345 60 283 60 l 406 60 q 570 83 524 60 q 621 131 591 94 q 675 220 650 168 q 696 228 680 228 q 724 220 719 228 q 613 -5 629 43 q 390 -1 541 -5 q 184 3 239 3 l 34 -4 q 33 7 33 -3 q 39 33 33 33 q 90 43 54 33 q 130 66 125 54 q 165 193 149 106 l 263 697 q 278 823 281 793 q 247 845 277 834 q 202 856 217 856 q 199 861 199 856 q 209 892 199 883 q 354 890 271 890 z "},"":{"ha":704,"x_min":33,"x_max":753,"o":"m 574 1007 q 566 1017 574 1007 q 564 1055 559 1027 q 591 1103 570 1084 q 640 1123 613 1123 q 681 1103 666 1123 q 690 1055 696 1084 q 663 1007 685 1027 q 614 987 642 987 q 574 1007 589 987 m 345 1007 q 338 1017 345 1007 q 336 1055 331 1027 q 363 1103 342 1084 q 412 1123 385 1123 q 453 1103 438 1123 q 463 1055 468 1084 q 435 1007 457 1027 q 385 987 412 987 q 345 1007 359 987 m 354 890 q 545 895 410 890 q 751 901 681 901 q 750 848 750 882 q 751 781 750 825 q 753 716 753 738 q 728 709 746 709 q 712 719 712 709 q 677 815 708 795 q 578 836 646 836 l 505 836 q 401 818 408 836 q 377 727 387 777 l 334 490 q 337 484 334 486 q 349 481 340 481 q 365 479 357 480 q 384 479 373 479 l 445 479 q 556 492 534 479 q 609 575 578 505 q 628 585 613 585 q 648 578 644 585 l 598 317 q 579 312 590 312 q 560 323 562 312 q 555 378 559 359 q 549 399 551 396 q 540 408 547 403 q 408 419 526 419 q 316 407 319 419 l 277 206 q 262 88 262 134 q 273 64 262 68 q 345 60 283 60 l 406 60 q 570 83 524 60 q 621 131 591 94 q 675 220 650 168 q 696 228 680 228 q 724 220 719 228 q 613 -5 629 43 q 390 -1 541 -5 q 184 3 239 3 l 34 -4 q 33 7 33 -3 q 39 33 33 33 q 90 43 54 33 q 130 66 125 54 q 165 193 149 106 l 263 697 q 278 823 281 793 q 247 845 277 834 q 202 856 217 856 q 199 861 199 856 q 209 892 199 883 q 354 890 271 890 z "},"":{"ha":357,"x_min":33,"x_max":498,"o":"m 365 963 q 243 1002 339 963 q 146 1063 146 1040 q 168 1086 146 1076 q 225 1096 189 1096 q 248 1093 240 1096 q 331 1029 279 1073 q 382 977 382 985 q 365 963 382 963 m 369 699 l 273 189 q 258 66 258 114 q 276 47 258 56 q 312 35 294 38 l 331 33 q 334 27 334 33 q 326 -4 334 12 q 184 3 201 3 q 35 -4 182 3 q 33 7 33 -1 q 42 33 33 33 q 91 41 58 33 q 129 62 123 50 q 164 193 149 109 l 260 694 q 275 819 275 769 q 246 845 275 834 q 199 856 217 856 q 197 863 197 856 q 208 892 197 882 q 272 888 224 891 q 354 884 320 884 q 437 888 387 884 q 498 892 488 892 l 498 888 q 488 856 498 856 q 443 845 477 856 q 404 825 408 834 q 369 699 387 787 z "},"":{"ha":357,"x_min":33,"x_max":526,"o":"m 308 964 q 290 978 290 964 q 342 1030 290 986 q 425 1095 393 1074 q 448 1097 433 1097 q 505 1087 484 1097 q 526 1065 526 1077 q 430 1003 526 1042 q 308 964 334 964 m 369 699 l 273 189 q 258 66 258 114 q 276 47 258 56 q 312 35 294 38 l 331 33 q 334 27 334 33 q 326 -4 334 12 q 184 3 201 3 q 35 -4 182 3 q 33 7 33 -1 q 42 33 33 33 q 91 41 58 33 q 129 62 123 50 q 164 193 149 109 l 260 694 q 275 819 275 769 q 246 845 275 834 q 199 856 217 856 q 197 863 197 856 q 208 892 197 882 q 272 888 224 891 q 354 884 320 884 q 437 888 387 884 q 498 892 488 892 l 498 888 q 488 856 498 856 q 443 845 477 856 q 404 825 408 834 q 369 699 387 787 z "},"":{"ha":357,"x_min":33,"x_max":541,"o":"m 521 987 q 387 1066 495 987 q 289 1015 346 1042 q 220 987 232 987 q 212 1015 205 987 q 233 1031 217 1020 q 273 1059 248 1042 q 316 1090 297 1076 q 391 1153 362 1123 q 408 1164 403 1164 q 423 1153 419 1164 q 467 1088 448 1109 q 500 1053 481 1072 q 530 1025 519 1035 q 541 1015 541 1016 q 521 987 534 987 m 369 699 l 273 189 q 258 66 258 114 q 276 47 258 56 q 312 35 294 38 l 331 33 q 334 27 334 33 q 326 -4 334 12 q 184 3 201 3 q 35 -4 182 3 q 33 7 33 -1 q 42 33 33 33 q 91 41 58 33 q 129 62 123 50 q 164 193 149 109 l 260 694 q 275 819 275 769 q 246 845 275 834 q 199 856 217 856 q 197 863 197 856 q 208 892 197 882 q 272 888 224 891 q 354 884 320 884 q 437 888 387 884 q 498 892 488 892 l 498 888 q 488 856 498 856 q 443 845 477 856 q 404 825 408 834 q 369 699 387 787 z "},"":{"ha":357,"x_min":33,"x_max":555,"o":"m 505 1135 q 540 1119 525 1135 q 555 1081 555 1103 q 534 1024 555 1048 q 481 1000 513 1000 q 448 1017 460 1000 q 435 1059 435 1035 q 455 1113 435 1090 q 505 1135 475 1135 m 275 1135 q 311 1119 296 1135 q 326 1081 326 1103 q 304 1024 326 1048 q 252 1000 283 1000 q 218 1017 231 1000 q 206 1059 206 1035 q 226 1113 206 1090 q 275 1135 245 1135 m 369 699 l 273 189 q 258 66 258 114 q 276 47 258 56 q 312 35 294 38 l 331 33 q 334 27 334 33 q 326 -4 334 12 q 184 3 201 3 q 35 -4 182 3 q 33 7 33 -1 q 42 33 33 33 q 91 41 58 33 q 129 62 123 50 q 164 193 149 109 l 260 694 q 275 819 275 769 q 246 845 275 834 q 199 856 217 856 q 197 863 197 856 q 208 892 197 882 q 272 888 224 891 q 354 884 320 884 q 437 888 387 884 q 498 892 488 892 l 498 888 q 488 856 498 856 q 443 845 477 856 q 404 825 408 834 q 369 699 387 787 z "},"":{"ha":894,"x_min":27,"x_max":928,"o":"m 570 899 q 730 871 661 899 q 843 795 800 844 q 907 687 886 747 q 928 556 928 627 q 907 412 928 487 q 843 264 887 338 q 738 133 799 191 q 587 39 677 75 q 393 3 498 3 q 297 6 369 3 q 179 9 225 9 q 104 8 142 9 q 47 4 66 7 l 28 3 q 27 14 27 4 q 34 39 27 39 q 84 51 49 39 q 125 73 119 62 q 160 199 144 113 l 258 704 q 273 830 275 802 q 241 852 271 841 q 197 863 212 863 q 194 868 194 863 q 203 899 194 890 q 349 897 266 897 q 471 898 396 897 q 570 899 545 899 m 567 840 q 526 839 553 840 q 455 833 499 838 q 404 818 411 827 q 385 784 393 804 q 376 755 377 764 q 368 711 374 746 l 269 195 q 264 138 264 176 q 267 92 264 99 q 310 75 273 81 q 376 66 347 68 q 425 65 404 65 q 628 139 538 65 q 763 327 718 213 q 808 568 808 441 q 749 764 808 688 q 567 840 689 840 m 137 479 l 605 479 q 613 465 613 479 q 605 425 613 444 l 136 425 q 129 442 129 425 q 137 479 129 467 z "},"":{"ha":899,"x_min":33,"x_max":1040,"o":"m 444 1000 q 439 1023 434 1000 q 471 1074 444 1044 q 579 1128 524 1128 q 681 1093 621 1128 q 783 1057 741 1057 q 820 1072 798 1057 q 859 1101 842 1086 q 876 1116 875 1116 q 880 1093 886 1116 q 849 1040 876 1072 q 743 987 800 987 q 641 1023 700 987 q 538 1059 582 1059 q 481 1029 518 1059 q 444 1000 445 1000 m 349 887 q 476 892 373 887 q 575 626 496 812 q 736 275 654 439 q 751 331 746 302 l 821 696 q 838 821 838 784 q 801 846 838 837 q 743 856 764 856 q 741 865 741 856 q 750 892 741 886 q 892 886 890 886 q 1040 892 911 886 q 1032 856 1040 856 q 975 846 1019 856 q 926 826 930 836 q 892 700 909 783 l 791 184 q 772 76 783 142 q 758 -5 761 9 q 745 -11 753 -11 q 709 20 726 -11 q 376 788 708 23 l 255 191 q 241 71 241 125 q 263 50 241 60 q 307 37 285 41 l 330 33 q 332 26 332 33 q 326 -4 332 9 q 184 3 201 3 q 35 -4 182 3 q 33 7 33 -1 q 42 33 33 33 q 100 43 58 33 q 146 65 141 54 q 183 195 161 95 l 288 700 q 300 822 300 760 q 264 847 300 838 q 208 856 229 856 q 205 865 205 856 q 214 892 205 886 q 349 887 320 887 z "},"":{"ha":846,"x_min":81,"x_max":909,"o":"m 616 963 q 494 1002 590 963 q 397 1063 397 1040 q 418 1086 397 1076 q 476 1096 439 1096 q 499 1093 491 1096 q 582 1029 530 1073 q 633 977 633 985 q 616 963 633 963 m 555 848 q 307 696 408 848 q 205 362 205 545 q 265 134 205 224 q 437 45 326 45 q 681 199 578 45 q 784 536 784 353 q 724 760 784 671 q 555 848 665 848 m 586 905 q 816 802 723 905 q 909 555 909 700 q 839 277 909 408 q 651 66 769 145 q 401 -14 533 -14 q 169 90 256 -14 q 81 351 81 194 q 156 622 81 492 q 347 828 231 751 q 586 905 464 905 z "},"":{"ha":846,"x_min":81,"x_max":909,"o":"m 526 964 q 509 978 509 964 q 560 1030 509 986 q 643 1095 612 1074 q 666 1097 651 1097 q 724 1087 703 1097 q 745 1065 745 1077 q 648 1003 745 1042 q 526 964 552 964 m 555 848 q 307 696 408 848 q 205 362 205 545 q 265 134 205 224 q 437 45 326 45 q 681 199 578 45 q 784 536 784 353 q 724 760 784 671 q 555 848 665 848 m 586 905 q 816 802 723 905 q 909 555 909 700 q 839 277 909 408 q 651 66 769 145 q 401 -14 533 -14 q 169 90 256 -14 q 81 351 81 194 q 156 622 81 492 q 347 828 231 751 q 586 905 464 905 z "},"":{"ha":846,"x_min":81,"x_max":909,"o":"m 751 987 q 617 1066 726 987 q 519 1015 576 1042 q 450 987 463 987 q 442 1015 435 987 q 463 1031 448 1020 q 503 1059 479 1042 q 547 1090 528 1076 q 621 1153 593 1123 q 639 1164 633 1164 q 654 1153 650 1164 q 697 1088 678 1109 q 731 1053 712 1072 q 761 1025 750 1035 q 772 1015 772 1016 q 751 987 765 987 m 555 848 q 307 696 408 848 q 205 362 205 545 q 265 134 205 224 q 437 45 326 45 q 681 199 578 45 q 784 536 784 353 q 724 760 784 671 q 555 848 665 848 m 586 905 q 816 802 723 905 q 909 555 909 700 q 839 277 909 408 q 651 66 769 145 q 401 -14 533 -14 q 169 90 256 -14 q 81 351 81 194 q 156 622 81 492 q 347 828 231 751 q 586 905 464 905 z "},"":{"ha":846,"x_min":81,"x_max":909,"o":"m 400 1000 q 396 1023 391 1000 q 427 1074 400 1044 q 536 1128 480 1128 q 637 1093 578 1128 q 739 1057 697 1057 q 777 1072 754 1057 q 815 1101 799 1086 q 833 1116 831 1116 q 837 1093 842 1116 q 806 1040 833 1072 q 700 987 757 987 q 597 1023 656 987 q 495 1059 538 1059 q 438 1029 475 1059 q 400 1000 401 1000 m 555 848 q 307 696 408 848 q 205 362 205 545 q 265 134 205 224 q 437 45 326 45 q 681 199 578 45 q 784 536 784 353 q 724 760 784 671 q 555 848 665 848 m 586 905 q 816 802 723 905 q 909 555 909 700 q 839 277 909 408 q 651 66 769 145 q 401 -14 533 -14 q 169 90 256 -14 q 81 351 81 194 q 156 622 81 492 q 347 828 231 751 q 586 905 464 905 z "},"":{"ha":846,"x_min":81,"x_max":909,"o":"m 675 1007 q 668 1017 675 1007 q 666 1055 661 1027 q 693 1103 671 1084 q 742 1123 715 1123 q 783 1103 768 1123 q 792 1055 798 1084 q 765 1007 787 1027 q 716 987 743 987 q 675 1007 690 987 m 447 1007 q 440 1017 447 1007 q 438 1055 433 1027 q 465 1103 444 1084 q 514 1123 487 1123 q 555 1103 540 1123 q 564 1055 570 1084 q 536 1007 559 1027 q 487 987 514 987 q 447 1007 461 987 m 555 848 q 307 696 408 848 q 205 362 205 545 q 265 134 205 224 q 437 45 326 45 q 681 199 578 45 q 784 536 784 353 q 724 760 784 671 q 555 848 665 848 m 586 905 q 816 802 723 905 q 909 555 909 700 q 839 277 909 408 q 651 66 769 145 q 401 -14 533 -14 q 169 90 256 -14 q 81 351 81 194 q 156 622 81 492 q 347 828 231 751 q 586 905 464 905 z "},"":{"ha":534,"x_min":9,"x_max":534,"o":"m 33 81 q 18 106 27 81 q 9 146 9 130 l 218 330 q 221 334 221 332 q 220 340 221 339 l 83 526 q 105 564 83 538 q 134 590 127 590 l 140 585 l 281 393 q 286 391 283 391 q 289 392 288 391 l 503 583 q 511 587 507 587 q 526 564 518 587 q 534 521 534 540 l 327 336 l 324 334 q 326 331 324 332 l 461 146 q 443 107 461 133 q 416 81 425 81 q 407 85 410 81 l 267 275 q 263 278 264 278 q 258 275 260 278 l 39 85 q 33 81 35 81 z "},"":{"ha":876,"x_min":121,"x_max":928,"o":"m 186 -18 q 164 -3 176 -14 q 156 14 152 8 l 856 905 q 878 891 865 902 q 887 875 891 880 l 186 -18 m 583 848 q 372 735 464 848 q 252 475 281 623 q 241 319 235 396 q 271 180 248 241 q 344 82 293 119 q 465 45 395 45 q 677 157 586 45 q 798 419 769 270 q 808 574 815 498 q 779 712 802 651 q 705 810 755 773 q 583 848 654 848 m 176 121 q 130 188 176 121 q 121 445 84 255 q 302 770 157 635 q 613 905 446 905 q 872 770 780 905 q 928 445 964 635 q 746 121 891 255 q 434 -14 601 -14 q 176 121 267 -14 z "},"":{"ha":856,"x_min":163,"x_max":1005,"o":"m 593 963 q 471 1002 567 963 q 374 1063 374 1040 q 395 1086 374 1076 q 453 1096 416 1096 q 476 1093 468 1096 q 559 1029 507 1073 q 610 977 610 985 q 593 963 610 963 m 235 694 q 250 819 250 772 q 220 845 250 834 q 174 856 191 856 q 171 863 171 856 q 182 892 171 882 q 246 888 198 891 q 328 884 294 884 q 412 888 361 884 q 472 892 463 892 l 472 888 q 463 856 472 856 q 417 845 452 856 q 378 825 382 834 q 343 699 361 787 l 288 404 q 277 289 277 345 q 321 125 277 184 q 454 66 366 66 q 732 372 675 66 l 792 694 q 808 817 808 789 q 769 844 808 833 q 707 856 730 856 q 704 864 704 856 q 713 892 704 886 q 779 888 730 891 q 860 884 827 884 q 909 886 886 884 q 960 889 933 887 q 1005 892 987 891 q 996 856 1005 856 q 943 845 985 856 q 894 825 901 834 q 857 692 883 811 l 796 374 q 666 79 754 159 q 412 0 578 0 q 229 72 294 0 q 163 279 163 144 q 182 423 163 330 l 235 694 z "},"":{"ha":856,"x_min":163,"x_max":1005,"o":"m 559 964 q 541 978 541 964 q 593 1030 541 986 q 675 1095 644 1074 q 699 1097 684 1097 q 756 1087 735 1097 q 777 1065 777 1077 q 681 1003 777 1042 q 559 964 585 964 m 235 694 q 250 819 250 772 q 220 845 250 834 q 174 856 191 856 q 171 863 171 856 q 182 892 171 882 q 246 888 198 891 q 328 884 294 884 q 412 888 361 884 q 472 892 463 892 l 472 888 q 463 856 472 856 q 417 845 452 856 q 378 825 382 834 q 343 699 361 787 l 288 404 q 277 289 277 345 q 321 125 277 184 q 454 66 366 66 q 732 372 675 66 l 792 694 q 808 817 808 789 q 769 844 808 833 q 707 856 730 856 q 704 864 704 856 q 713 892 704 886 q 779 888 730 891 q 860 884 827 884 q 909 886 886 884 q 960 889 933 887 q 1005 892 987 891 q 996 856 1005 856 q 943 845 985 856 q 894 825 901 834 q 857 692 883 811 l 796 374 q 666 79 754 159 q 412 0 578 0 q 229 72 294 0 q 163 279 163 144 q 182 423 163 330 l 235 694 z "},"":{"ha":856,"x_min":163,"x_max":1005,"o":"m 770 987 q 636 1066 745 987 q 538 1015 595 1042 q 469 987 481 987 q 461 1015 454 987 q 482 1031 467 1020 q 522 1059 498 1042 q 566 1090 547 1076 q 640 1153 612 1123 q 658 1164 652 1164 q 673 1153 669 1164 q 716 1088 697 1109 q 750 1053 731 1072 q 780 1025 769 1035 q 791 1015 791 1016 q 770 987 784 987 m 235 694 q 250 819 250 772 q 220 845 250 834 q 174 856 191 856 q 171 863 171 856 q 182 892 171 882 q 246 888 198 891 q 328 884 294 884 q 412 888 361 884 q 472 892 463 892 l 472 888 q 463 856 472 856 q 417 845 452 856 q 378 825 382 834 q 343 699 361 787 l 288 404 q 277 289 277 345 q 321 125 277 184 q 454 66 366 66 q 732 372 675 66 l 792 694 q 808 817 808 789 q 769 844 808 833 q 707 856 730 856 q 704 864 704 856 q 713 892 704 886 q 779 888 730 891 q 860 884 827 884 q 909 886 886 884 q 960 889 933 887 q 1005 892 987 891 q 996 856 1005 856 q 943 845 985 856 q 894 825 901 834 q 857 692 883 811 l 796 374 q 666 79 754 159 q 412 0 578 0 q 229 72 294 0 q 163 279 163 144 q 182 423 163 330 l 235 694 z "},"":{"ha":856,"x_min":163,"x_max":1005,"o":"m 674 1007 q 667 1017 674 1007 q 665 1055 659 1027 q 692 1103 670 1084 q 741 1123 713 1123 q 781 1103 766 1123 q 791 1055 796 1084 q 764 1007 785 1027 q 715 987 742 987 q 674 1007 689 987 m 446 1007 q 438 1017 446 1007 q 437 1055 431 1027 q 464 1103 442 1084 q 513 1123 486 1123 q 553 1103 538 1123 q 563 1055 568 1084 q 535 1007 557 1027 q 486 987 513 987 q 446 1007 460 987 m 235 694 q 250 819 250 772 q 220 845 250 834 q 174 856 191 856 q 171 863 171 856 q 182 892 171 882 q 246 888 198 891 q 328 884 294 884 q 412 888 361 884 q 472 892 463 892 l 472 888 q 463 856 472 856 q 417 845 452 856 q 378 825 382 834 q 343 699 361 787 l 288 404 q 277 289 277 345 q 321 125 277 184 q 454 66 366 66 q 732 372 675 66 l 792 694 q 808 817 808 789 q 769 844 808 833 q 707 856 730 856 q 704 864 704 856 q 713 892 704 886 q 779 888 730 891 q 860 884 827 884 q 909 886 886 884 q 960 889 933 887 q 1005 892 987 891 q 996 856 1005 856 q 943 845 985 856 q 894 825 901 834 q 857 692 883 811 l 796 374 q 666 79 754 159 q 412 0 578 0 q 229 72 294 0 q 163 279 163 144 q 182 423 163 330 l 235 694 z "},"":{"ha":804,"x_min":163,"x_max":954,"o":"m 579 964 q 562 978 562 964 q 613 1030 562 986 q 696 1095 665 1074 q 719 1097 704 1097 q 777 1087 755 1097 q 798 1065 798 1077 q 701 1003 798 1042 q 579 964 605 964 m 331 884 q 499 892 345 884 l 499 886 q 490 856 499 856 q 437 842 469 856 q 404 799 404 827 q 410 769 404 785 l 503 481 q 565 562 521 505 q 633 650 609 618 q 686 723 656 682 q 730 785 716 764 q 743 814 743 807 q 714 844 742 831 q 659 856 686 856 q 656 864 656 856 q 666 892 656 886 q 720 888 677 892 q 791 884 764 884 q 952 892 798 884 q 954 886 954 890 q 944 856 954 856 q 890 843 930 856 q 834 814 850 830 q 671 599 818 798 q 521 387 524 400 l 483 189 q 468 66 468 114 q 486 47 468 56 q 524 35 505 38 l 541 33 q 544 27 544 33 q 536 -4 544 12 q 395 3 410 3 q 244 -4 391 3 q 243 5 243 -3 q 252 33 243 33 q 300 42 267 33 q 339 62 332 52 q 373 184 355 91 l 408 377 q 381 473 410 382 q 323 651 353 563 l 294 739 q 241 826 274 802 q 202 846 228 836 q 165 856 176 856 q 163 863 163 856 q 172 892 163 886 q 241 888 189 891 q 331 884 294 884 z "},"":{"ha":699,"x_min":65,"x_max":736,"o":"m 528 693 q 610 680 570 693 q 684 639 650 666 q 734 562 719 612 q 736 445 750 511 q 632 264 719 354 q 426 174 545 174 q 336 212 354 174 q 339 243 331 221 q 343 247 340 248 q 425 232 378 232 q 544 289 487 232 q 616 425 601 346 q 496 633 655 633 q 407 624 434 633 q 381 574 389 618 l 307 189 q 293 62 292 110 q 326 44 294 53 q 369 35 357 35 q 370 15 374 35 q 363 -4 368 3 q 218 3 239 3 q 66 -4 212 3 q 65 16 62 3 q 73 35 68 35 q 123 43 90 35 q 163 62 156 52 q 195 183 183 109 l 298 709 q 312 830 313 799 q 280 850 311 841 q 233 859 250 859 q 232 876 229 859 q 241 898 235 891 q 392 891 384 891 q 538 898 410 891 q 537 878 538 884 q 529 859 534 859 q 481 849 517 859 q 442 830 446 840 q 408 711 423 785 q 405 695 407 704 q 403 684 403 686 q 406 674 401 674 q 423 679 408 674 q 467 688 438 684 q 528 693 495 693 z "},"":{"ha":671,"x_min":-122,"x_max":705,"o":"m 222 552 q 236 592 228 552 q 260 689 244 632 q 300 804 275 746 q 376 901 326 861 q 495 941 427 941 q 642 902 578 941 q 705 788 705 863 q 688 709 705 746 q 639 643 671 673 q 589 600 606 613 q 541 568 571 587 q 509 550 532 563 q 477 530 487 537 q 456 509 467 524 q 446 477 446 495 q 448 462 446 469 q 456 447 450 454 q 465 434 461 439 q 479 420 469 429 q 493 407 488 411 q 509 393 498 403 q 525 380 521 384 q 559 351 533 373 q 591 323 585 330 q 614 298 598 316 q 635 269 631 281 q 646 239 640 258 q 651 199 651 220 q 596 59 651 118 q 461 0 541 0 q 359 19 404 0 q 309 57 315 38 q 369 136 321 136 q 393 121 382 136 q 409 90 403 107 q 430 58 415 72 q 465 43 445 43 q 526 70 502 43 q 556 122 549 96 q 563 170 563 148 q 557 204 563 187 q 538 237 552 221 q 515 262 524 254 q 486 289 507 271 q 461 311 465 307 q 435 332 454 316 q 408 356 415 349 q 389 378 401 363 q 373 407 377 392 q 369 439 369 422 q 391 507 369 481 q 491 590 414 533 q 602 799 602 674 q 570 867 602 844 q 483 890 538 890 q 402 828 439 890 q 350 705 365 766 l 335 643 l 224 62 q 130 -229 186 -140 q -9 -317 75 -317 q -86 -299 -58 -317 q -122 -259 -114 -281 q -69 -180 -113 -180 q -48 -193 -57 -180 q -35 -222 -39 -206 q -17 -252 -30 -239 q 16 -264 -4 -264 q 53 -240 35 -264 q 82 -176 71 -216 q 104 -93 94 -137 q 122 -4 114 -49 q 125 12 123 7 l 213 480 l 213 483 q 209 490 213 490 l 121 490 q 118 494 118 490 q 140 529 118 506 q 183 552 161 552 l 222 552 z "},"":{"ha":597,"x_min":88,"x_max":610,"o":"m 477 673 q 355 737 456 673 q 255 830 255 802 q 277 859 255 850 q 321 868 300 868 q 349 861 342 868 q 370 840 351 859 q 408 800 388 821 q 448 755 427 779 q 481 716 468 732 q 495 697 495 700 q 489 681 495 689 q 477 673 483 673 m 477 590 q 576 572 529 590 l 494 144 q 490 110 490 127 q 503 76 490 76 q 523 83 511 76 q 546 102 534 91 q 567 123 557 113 q 585 141 576 133 l 593 151 q 603 138 595 151 q 610 119 610 125 q 537 41 593 90 q 439 -8 481 -8 q 406 12 418 -8 q 393 62 393 31 q 403 134 393 85 q 408 158 406 149 q 410 170 410 167 q 378 120 396 145 q 334 64 361 95 q 276 13 307 33 q 218 -7 245 -7 q 124 47 159 -7 q 90 176 90 100 q 147 370 90 273 q 296 528 205 467 q 477 590 387 590 m 420 528 q 265 424 340 528 q 190 205 190 320 q 259 72 190 72 q 368 171 308 72 q 449 372 429 270 l 476 510 q 420 528 460 528 z "},"":{"ha":597,"x_min":88,"x_max":610,"o":"m 363 673 q 357 678 361 673 q 354 689 354 684 q 412 764 354 699 q 510 860 469 829 q 545 867 521 867 q 598 834 598 867 q 489 739 598 804 q 363 673 380 673 m 477 590 q 576 572 529 590 l 494 144 q 490 110 490 127 q 503 76 490 76 q 523 83 511 76 q 546 102 534 91 q 567 123 557 113 q 585 141 576 133 l 593 151 q 603 138 595 151 q 610 119 610 125 q 537 41 593 90 q 439 -8 481 -8 q 406 12 418 -8 q 393 62 393 31 q 403 134 393 85 q 408 158 406 149 q 410 170 410 167 q 378 120 396 145 q 334 64 361 95 q 276 13 307 33 q 218 -7 245 -7 q 124 47 159 -7 q 90 176 90 100 q 147 370 90 273 q 296 528 205 467 q 477 590 387 590 m 420 528 q 265 424 340 528 q 190 205 190 320 q 259 72 190 72 q 368 171 308 72 q 449 372 429 270 l 476 510 q 420 528 460 528 z "},"":{"ha":597,"x_min":88,"x_max":610,"o":"m 477 590 q 576 572 529 590 l 494 144 q 490 110 490 127 q 503 76 490 76 q 523 83 511 76 q 546 102 534 91 q 567 123 557 113 q 585 141 576 133 l 593 151 q 603 138 595 151 q 610 119 610 125 q 537 41 593 90 q 439 -8 481 -8 q 406 12 418 -8 q 393 62 393 31 q 403 134 393 85 q 408 158 406 149 q 410 170 410 167 q 378 120 396 145 q 334 64 361 95 q 276 13 307 33 q 218 -7 245 -7 q 124 47 159 -7 q 90 176 90 100 q 147 370 90 273 q 296 528 205 467 q 477 590 387 590 m 420 528 q 265 424 340 528 q 190 205 190 320 q 259 72 190 72 q 368 171 308 72 q 449 372 429 270 l 476 510 q 420 528 460 528 z "},"":{"ha":597,"x_min":88,"x_max":624,"o":"m 477 590 q 576 572 529 590 l 494 144 q 490 110 490 127 q 503 76 490 76 q 523 83 511 76 q 546 102 534 91 q 567 123 557 113 q 585 141 576 133 l 593 151 q 603 138 595 151 q 610 119 610 125 q 537 41 593 90 q 439 -8 481 -8 q 406 12 418 -8 q 393 62 393 31 q 403 134 393 85 q 408 158 406 149 q 410 170 410 167 q 378 120 396 145 q 334 64 361 95 q 276 13 307 33 q 218 -7 245 -7 q 124 47 159 -7 q 90 176 90 100 q 147 370 90 273 q 296 528 205 467 q 477 590 387 590 m 420 528 q 265 424 340 528 q 190 205 190 320 q 259 72 190 72 q 368 171 308 72 q 449 372 429 270 l 476 510 q 420 528 460 528 z "},"":{"ha":597,"x_min":88,"x_max":610,"o":"m 544 823 q 579 807 564 823 q 594 769 594 791 q 573 712 594 736 q 521 688 552 688 q 487 705 499 688 q 475 747 475 723 q 494 801 475 779 q 544 823 514 823 m 315 823 q 350 807 335 823 q 365 769 365 791 q 344 712 365 736 q 292 688 323 688 q 258 705 270 688 q 245 747 245 723 q 265 801 245 779 q 315 823 285 823 m 477 590 q 576 572 529 590 l 494 144 q 490 110 490 127 q 503 76 490 76 q 523 83 511 76 q 546 102 534 91 q 567 123 557 113 q 585 141 576 133 l 593 151 q 603 138 595 151 q 610 119 610 125 q 537 41 593 90 q 439 -8 481 -8 q 406 12 418 -8 q 393 62 393 31 q 403 134 393 85 q 408 158 406 149 q 410 170 410 167 q 378 120 396 145 q 334 64 361 95 q 276 13 307 33 q 218 -7 245 -7 q 124 47 159 -7 q 90 176 90 100 q 147 370 90 273 q 296 528 205 467 q 477 590 387 590 m 420 528 q 265 424 340 528 q 190 205 190 320 q 259 72 190 72 q 368 171 308 72 q 449 372 429 270 l 476 510 q 420 528 460 528 z "},"":{"ha":597,"x_min":88,"x_max":610,"o":"m 477 590 q 576 572 529 590 l 494 144 q 490 110 490 127 q 503 76 490 76 q 523 83 511 76 q 546 102 534 91 q 567 123 557 113 q 585 141 576 133 l 593 151 q 603 138 595 151 q 610 119 610 125 q 537 41 593 90 q 439 -8 481 -8 q 406 12 418 -8 q 393 62 393 31 q 403 134 393 85 q 408 158 406 149 q 410 170 410 167 q 378 120 396 145 q 334 64 361 95 q 276 13 307 33 q 218 -7 245 -7 q 124 47 159 -7 q 90 176 90 100 q 147 370 90 273 q 296 528 205 467 q 477 590 387 590 m 420 528 q 265 424 340 528 q 190 205 190 320 q 259 72 190 72 q 368 171 308 72 q 449 372 429 270 l 476 510 q 420 528 460 528 z "},"":{"ha":760,"x_min":54,"x_max":751,"o":"m 656 590 q 751 483 751 590 q 642 340 751 406 q 457 275 533 275 q 442 250 442 275 q 472 119 442 161 q 547 76 502 76 q 604 99 574 76 q 652 145 633 122 q 673 168 671 168 q 677 163 674 168 q 683 151 680 159 q 686 138 686 144 q 618 50 675 106 q 507 -5 562 -5 q 424 26 465 -5 q 365 102 382 57 q 298 24 342 57 q 187 -9 254 -9 q 96 16 138 -9 q 54 88 54 42 q 86 189 54 144 q 168 262 118 235 q 262 304 218 289 q 349 327 305 319 q 363 349 359 330 l 387 461 q 388 483 388 465 q 369 524 388 507 q 324 540 350 540 q 259 509 289 540 q 220 429 229 477 q 153 382 212 382 q 118 400 118 382 q 204 522 118 452 q 374 591 290 591 q 480 517 472 591 q 656 590 557 590 m 336 197 l 347 259 q 245 229 286 248 q 189 187 205 209 q 167 151 172 165 q 161 122 161 137 q 178 74 161 94 q 220 54 194 54 q 297 100 267 54 q 336 197 327 145 m 624 534 q 510 467 567 534 q 453 346 453 399 q 463 338 453 338 q 537 352 494 338 q 619 400 581 366 q 658 477 658 434 q 624 534 658 534 z "},"":{"ha":442,"x_min":92,"x_max":515,"o":"m 239 1 l 264 1 l 237 -30 l 267 -30 q 300 -45 288 -30 q 312 -81 312 -60 q 273 -161 312 -123 q 171 -199 235 -199 q 132 -187 146 -199 l 132 -175 q 139 -155 132 -161 q 152 -149 146 -149 q 172 -158 159 -149 q 195 -167 184 -167 q 241 -151 222 -167 q 260 -111 260 -136 q 251 -85 260 -94 q 228 -76 241 -76 q 194 -85 218 -76 q 188 -80 191 -85 q 184 -71 184 -75 q 191 -60 184 -68 q 211 -35 197 -53 q 239 1 225 -18 m 393 590 q 511 544 457 590 q 515 517 515 528 q 503 475 515 491 q 468 458 490 458 q 423 496 446 458 q 377 534 400 534 q 256 440 319 534 q 193 220 193 346 q 282 76 193 76 q 303 79 293 76 q 323 85 313 81 q 342 94 332 90 q 359 106 351 99 q 375 118 368 113 q 389 130 382 123 q 398 140 395 136 q 404 146 401 144 l 408 151 q 418 138 411 151 q 426 119 426 125 q 350 39 407 87 q 237 -8 293 -8 q 130 47 167 -8 q 92 198 92 102 q 191 459 92 328 q 393 590 290 590 z "},"":{"ha":487,"x_min":95,"x_max":514,"o":"m 419 673 q 297 737 397 673 q 197 830 197 802 q 219 859 197 850 q 263 868 241 868 q 290 861 283 868 q 311 840 293 859 q 349 800 330 821 q 389 755 369 779 q 423 716 410 732 q 437 697 437 700 q 431 681 437 689 q 419 673 425 673 m 396 590 q 486 558 458 590 q 514 488 514 526 q 453 370 514 429 q 319 280 392 312 q 202 248 247 248 q 197 201 197 248 q 220 108 197 140 q 285 76 244 76 q 306 79 296 76 q 326 85 316 81 q 345 94 335 90 q 362 106 354 99 q 378 118 370 113 q 391 130 385 123 q 401 140 397 136 q 407 146 404 144 l 411 151 q 421 138 414 151 q 429 119 429 125 q 353 39 410 87 q 240 -8 296 -8 q 132 47 170 -8 q 95 198 95 102 q 194 459 95 328 q 396 590 293 590 m 382 534 q 262 443 319 534 q 206 301 206 351 q 212 296 206 296 q 338 361 260 296 q 416 494 416 426 q 382 534 416 534 z "},"":{"ha":487,"x_min":95,"x_max":654,"o":"m 419 673 q 413 678 416 673 q 410 689 410 684 q 467 764 410 699 q 566 860 525 829 q 601 867 576 867 q 654 834 654 867 q 545 739 654 804 q 419 673 435 673 m 396 590 q 486 558 458 590 q 514 488 514 526 q 453 370 514 429 q 319 280 392 312 q 202 248 247 248 q 197 201 197 248 q 220 108 197 140 q 285 76 244 76 q 306 79 296 76 q 326 85 316 81 q 345 94 335 90 q 362 106 354 99 q 378 118 370 113 q 391 130 385 123 q 401 140 397 136 q 407 146 404 144 l 411 151 q 421 138 414 151 q 429 119 429 125 q 353 39 410 87 q 240 -8 296 -8 q 132 47 170 -8 q 95 198 95 102 q 194 459 95 328 q 396 590 293 590 m 382 534 q 262 443 319 534 q 206 301 206 351 q 212 296 206 296 q 338 361 260 296 q 416 494 416 426 q 382 534 416 534 z "},"":{"ha":487,"x_min":95,"x_max":568,"o":"m 396 590 q 486 558 458 590 q 514 488 514 526 q 453 370 514 429 q 319 280 392 312 q 202 248 247 248 q 197 201 197 248 q 220 108 197 140 q 285 76 244 76 q 306 79 296 76 q 326 85 316 81 q 345 94 335 90 q 362 106 354 99 q 378 118 370 113 q 391 130 385 123 q 401 140 397 136 q 407 146 404 144 l 411 151 q 421 138 414 151 q 429 119 429 125 q 353 39 410 87 q 240 -8 296 -8 q 132 47 170 -8 q 95 198 95 102 q 194 459 95 328 q 396 590 293 590 m 382 534 q 262 443 319 534 q 206 301 206 351 q 212 296 206 296 q 338 361 260 296 q 416 494 416 426 q 382 534 416 534 z "},"":{"ha":487,"x_min":95,"x_max":541,"o":"m 491 823 q 526 807 511 823 q 541 769 541 791 q 520 712 541 736 q 468 688 499 688 q 434 705 446 688 q 422 747 422 723 q 441 801 422 779 q 491 823 461 823 m 262 823 q 297 807 282 823 q 312 769 312 791 q 291 712 312 736 q 239 688 270 688 q 205 705 217 688 q 193 747 193 723 q 212 801 193 779 q 262 823 232 823 m 396 590 q 486 558 458 590 q 514 488 514 526 q 453 370 514 429 q 319 280 392 312 q 202 248 247 248 q 197 201 197 248 q 220 108 197 140 q 285 76 244 76 q 306 79 296 76 q 326 85 316 81 q 345 94 335 90 q 362 106 354 99 q 378 118 370 113 q 391 130 385 123 q 401 140 397 136 q 407 146 404 144 l 411 151 q 421 138 414 151 q 429 119 429 125 q 353 39 410 87 q 240 -8 296 -8 q 132 47 170 -8 q 95 198 95 102 q 194 459 95 328 q 396 590 293 590 m 382 534 q 262 443 319 534 q 206 301 206 351 q 212 296 206 296 q 338 361 260 296 q 416 494 416 426 q 382 534 416 534 z "},"":{"ha":293,"x_min":-3,"x_max":293,"o":"m 233 673 q 111 737 212 673 q 11 830 11 802 q 33 859 11 850 q 77 868 56 868 q 104 861 98 868 q 125 840 107 859 q 163 800 144 821 q 203 755 183 779 q 237 716 224 732 q 251 697 251 700 q 245 681 251 689 q 233 673 239 673 m 224 492 q 193 298 224 458 q 161 121 161 137 q 191 71 161 71 q 224 95 203 71 q 262 144 245 119 q 279 170 278 170 q 283 165 281 170 q 290 153 286 160 q 293 140 293 145 q 235 48 281 104 q 144 -8 189 -8 q 68 91 68 -8 q 77 174 68 130 l 126 418 q 130 456 130 446 q 92 511 130 511 q 46 461 79 511 l 12 412 q 8 417 11 412 q 1 429 5 422 q -3 442 -3 437 q 56 534 9 477 q 146 590 102 590 q 224 492 224 590 z "},"":{"ha":293,"x_min":-3,"x_max":335,"o":"m 100 673 q 94 678 98 673 q 91 689 91 684 q 149 764 91 699 q 247 860 206 829 q 282 867 258 867 q 335 834 335 867 q 226 739 335 804 q 100 673 117 673 m 224 492 q 193 298 224 458 q 161 121 161 137 q 191 71 161 71 q 224 95 203 71 q 262 144 245 119 q 279 170 278 170 q 283 165 281 170 q 290 153 286 160 q 293 140 293 145 q 235 48 281 104 q 144 -8 189 -8 q 68 91 68 -8 q 77 174 68 130 l 126 418 q 130 456 130 446 q 92 511 130 511 q 46 461 79 511 l 12 412 q 8 417 11 412 q 1 429 5 422 q -3 442 -3 437 q 56 534 9 477 q 146 590 102 590 q 224 492 224 590 z "},"":{"ha":293,"x_min":-3,"x_max":326,"o":"m 224 492 q 193 298 224 458 q 161 121 161 137 q 191 71 161 71 q 224 95 203 71 q 262 144 245 119 q 279 170 278 170 q 283 165 281 170 q 290 153 286 160 q 293 140 293 145 q 235 48 281 104 q 144 -8 189 -8 q 68 91 68 -8 q 77 174 68 130 l 126 418 q 130 456 130 446 q 92 511 130 511 q 46 461 79 511 l 12 412 q 8 417 11 412 q 1 429 5 422 q -3 442 -3 437 q 56 534 9 477 q 146 590 102 590 q 224 492 224 590 z "},"":{"ha":293,"x_min":-3,"x_max":358,"o":"m 308 823 q 343 807 328 823 q 358 769 358 791 q 337 712 358 736 q 285 688 316 688 q 251 705 263 688 q 239 747 239 723 q 258 801 239 779 q 308 823 278 823 m 127 823 q 163 807 148 823 q 178 769 178 791 q 157 712 178 736 q 104 688 136 688 q 71 705 83 688 q 58 747 58 723 q 78 801 58 779 q 127 823 98 823 m 224 492 q 193 298 224 458 q 161 121 161 137 q 191 71 161 71 q 224 95 203 71 q 262 144 245 119 q 279 170 278 170 q 283 165 281 170 q 290 153 286 160 q 293 140 293 145 q 235 48 281 104 q 144 -8 189 -8 q 68 91 68 -8 q 77 174 68 130 l 126 418 q 130 456 130 446 q 92 511 130 511 q 46 461 79 511 l 12 412 q 8 417 11 412 q 1 429 5 422 q -3 442 -3 437 q 56 534 9 477 q 146 590 102 590 q 224 492 224 590 z "},"":{"ha":521,"x_min":98,"x_max":604,"o":"m 263 690 q 251 734 243 726 l 590 956 q 604 914 612 922 l 263 690 m 247 901 q 256 921 248 909 q 271 933 264 933 q 517 732 427 890 q 560 339 606 574 q 453 89 530 187 q 285 -9 376 -9 q 121 81 168 -9 q 98 294 75 172 q 202 503 121 411 q 387 594 283 594 q 479 552 454 594 q 247 901 484 776 m 453 294 q 456 450 473 395 q 362 540 427 540 q 264 473 305 540 q 203 304 224 407 q 209 123 184 203 q 286 43 233 43 q 453 294 404 43 z "},"":{"ha":667,"x_min":115,"x_max":682,"o":"m 271 590 q 305 570 293 590 q 317 519 317 551 q 309 448 317 490 l 285 323 q 344 407 298 347 q 455 528 389 467 q 562 590 521 590 q 629 500 629 590 q 610 353 629 439 l 566 144 q 562 110 562 127 q 575 76 562 76 q 595 83 583 76 q 618 102 606 91 q 639 123 629 113 q 656 141 648 133 l 665 151 q 675 138 667 151 q 682 119 682 125 q 609 41 665 90 q 511 -8 553 -8 q 477 12 490 -8 q 465 62 465 31 q 475 134 465 84 l 522 358 q 532 431 532 403 q 506 490 532 490 q 367 367 461 490 q 245 106 273 244 l 222 0 q 180 -5 205 -5 q 134 0 156 -5 l 214 418 q 221 472 221 467 q 208 506 221 506 q 193 500 202 506 q 173 484 183 494 q 155 467 163 475 q 140 450 146 458 q 133 442 133 442 q 123 455 130 442 q 115 473 115 468 q 184 545 132 500 q 271 590 236 590 z "},"":{"ha":559,"x_min":92,"x_max":559,"o":"m 401 673 q 279 737 380 673 q 179 830 179 802 q 201 859 179 850 q 245 868 224 868 q 273 861 266 868 q 294 840 275 859 q 332 800 312 821 q 372 755 351 779 q 406 716 392 732 q 419 697 419 700 q 413 681 419 689 q 401 673 407 673 m 374 534 q 251 428 307 534 q 195 214 195 321 q 220 92 195 136 q 283 49 245 49 q 404 155 351 49 q 456 370 456 262 q 434 492 456 450 q 374 534 412 534 m 391 590 q 515 534 471 590 q 559 381 559 479 q 460 117 559 241 q 259 -7 362 -7 q 135 46 178 -7 q 92 197 92 99 q 190 464 92 338 q 391 590 288 590 z "},"":{"ha":559,"x_min":92,"x_max":559,"o":"m 323 673 q 317 678 320 673 q 313 689 313 684 q 371 764 313 699 q 469 860 429 829 q 505 867 480 867 q 557 834 557 867 q 448 739 557 804 q 323 673 339 673 m 374 534 q 251 428 307 534 q 195 214 195 321 q 220 92 195 136 q 283 49 245 49 q 404 155 351 49 q 456 370 456 262 q 434 492 456 450 q 374 534 412 534 m 391 590 q 515 534 471 590 q 559 381 559 479 q 460 117 559 241 q 259 -7 362 -7 q 135 46 178 -7 q 92 197 92 99 q 190 464 92 338 q 391 590 288 590 z "},"":{"ha":559,"x_min":92,"x_max":559,"o":"m 374 534 q 251 428 307 534 q 195 214 195 321 q 220 92 195 136 q 283 49 245 49 q 404 155 351 49 q 456 370 456 262 q 434 492 456 450 q 374 534 412 534 m 391 590 q 515 534 471 590 q 559 381 559 479 q 460 117 559 241 q 259 -7 362 -7 q 135 46 178 -7 q 92 197 92 99 q 190 464 92 338 q 391 590 288 590 z "},"":{"ha":559,"x_min":92,"x_max":581,"o":"m 374 534 q 251 428 307 534 q 195 214 195 321 q 220 92 195 136 q 283 49 245 49 q 404 155 351 49 q 456 370 456 262 q 434 492 456 450 q 374 534 412 534 m 391 590 q 515 534 471 590 q 559 381 559 479 q 460 117 559 241 q 259 -7 362 -7 q 135 46 178 -7 q 92 197 92 99 q 190 464 92 338 q 391 590 288 590 z "},"":{"ha":559,"x_min":92,"x_max":572,"o":"m 522 823 q 557 807 543 823 q 572 769 572 791 q 551 712 572 736 q 499 688 530 688 q 465 705 477 688 q 453 747 453 723 q 473 801 453 779 q 522 823 492 823 m 293 823 q 328 807 313 823 q 343 769 343 791 q 322 712 343 736 q 270 688 301 688 q 236 705 248 688 q 224 747 224 723 q 243 801 224 779 q 293 823 263 823 m 374 534 q 251 428 307 534 q 195 214 195 321 q 220 92 195 136 q 283 49 245 49 q 404 155 351 49 q 456 370 456 262 q 434 492 456 450 q 374 534 412 534 m 391 590 q 515 534 471 590 q 559 381 559 479 q 460 117 559 241 q 259 -7 362 -7 q 135 46 178 -7 q 92 197 92 99 q 190 464 92 338 q 391 590 288 590 z "},"":{"ha":621,"x_min":0,"x_max":618,"o":"m 370 665 q 406 648 391 665 q 420 610 420 632 q 399 553 420 578 q 347 529 378 529 q 313 547 326 529 q 301 589 301 564 q 321 642 301 620 q 370 665 340 665 m 270 141 q 304 125 290 141 q 319 87 319 109 q 298 30 319 54 q 247 5 278 5 q 213 23 225 5 q 201 65 201 41 q 220 119 201 96 q 270 141 240 141 m 30 377 l 613 377 q 618 365 618 377 q 590 292 618 323 l 7 292 q 0 304 0 292 q 30 377 0 339 z "},"":{"ha":530,"x_min":94,"x_max":552,"o":"m 132 0 q 106 27 99 16 l 524 568 q 549 543 556 552 l 132 0 m 194 233 q 220 98 194 151 q 292 46 247 46 q 406 146 359 46 q 452 351 452 245 q 425 486 452 433 q 354 538 397 538 q 240 439 286 538 q 194 233 194 339 m 94 221 q 182 477 94 365 q 377 590 271 590 q 504 526 456 590 q 552 362 552 463 q 464 106 552 218 q 270 -7 376 -7 q 142 57 191 -7 q 94 221 94 121 z "},"":{"ha":640,"x_min":102,"x_max":658,"o":"m 422 673 q 300 737 400 673 q 199 830 199 802 q 222 859 199 850 q 266 868 244 868 q 293 861 286 868 q 314 840 296 859 q 352 800 332 821 q 392 755 372 779 q 426 716 412 732 q 439 697 439 700 q 433 681 439 689 q 422 673 427 673 m 258 590 q 292 570 279 590 q 304 519 304 551 q 296 448 304 483 l 248 224 q 239 151 239 184 q 264 92 239 92 q 319 124 283 92 q 393 207 354 156 q 466 331 431 258 q 514 476 500 404 l 537 582 q 579 587 555 587 q 625 582 604 587 l 541 144 q 537 110 537 127 q 551 76 537 76 q 570 83 559 76 q 593 102 582 91 q 614 123 605 113 q 632 141 624 133 l 640 151 q 650 138 643 151 q 658 119 658 125 q 585 41 640 90 q 487 -8 529 -8 q 453 12 465 -8 q 441 62 441 31 q 450 134 441 84 l 475 259 q 419 175 461 233 q 313 54 377 117 q 209 -8 250 -8 q 141 81 141 -8 q 160 229 141 144 l 201 418 q 208 472 208 467 q 194 506 208 506 q 179 500 189 506 q 159 484 170 494 q 141 467 149 475 q 126 450 133 458 q 119 442 119 442 q 109 455 117 442 q 102 473 102 468 q 170 545 118 500 q 258 590 222 590 z "},"":{"ha":640,"x_min":102,"x_max":658,"o":"m 357 673 q 351 678 354 673 q 347 689 347 684 q 405 764 347 699 q 503 860 463 829 q 538 867 514 867 q 591 834 591 867 q 482 739 591 804 q 357 673 373 673 m 258 590 q 292 570 279 590 q 304 519 304 551 q 296 448 304 483 l 248 224 q 239 151 239 184 q 264 92 239 92 q 319 124 283 92 q 393 207 354 156 q 466 331 431 258 q 514 476 500 404 l 537 582 q 579 587 555 587 q 625 582 604 587 l 541 144 q 537 110 537 127 q 551 76 537 76 q 570 83 559 76 q 593 102 582 91 q 614 123 605 113 q 632 141 624 133 l 640 151 q 650 138 643 151 q 658 119 658 125 q 585 41 640 90 q 487 -8 529 -8 q 453 12 465 -8 q 441 62 441 31 q 450 134 441 84 l 475 259 q 419 175 461 233 q 313 54 377 117 q 209 -8 250 -8 q 141 81 141 -8 q 160 229 141 144 l 201 418 q 208 472 208 467 q 194 506 208 506 q 179 500 189 506 q 159 484 170 494 q 141 467 149 475 q 126 450 133 458 q 119 442 119 442 q 109 455 117 442 q 102 473 102 468 q 170 545 118 500 q 258 590 222 590 z "},"":{"ha":640,"x_min":102,"x_max":658,"o":"m 258 590 q 292 570 279 590 q 304 519 304 551 q 296 448 304 483 l 248 224 q 239 151 239 184 q 264 92 239 92 q 319 124 283 92 q 393 207 354 156 q 466 331 431 258 q 514 476 500 404 l 537 582 q 579 587 555 587 q 625 582 604 587 l 541 144 q 537 110 537 127 q 551 76 537 76 q 570 83 559 76 q 593 102 582 91 q 614 123 605 113 q 632 141 624 133 l 640 151 q 650 138 643 151 q 658 119 658 125 q 585 41 640 90 q 487 -8 529 -8 q 453 12 465 -8 q 441 62 441 31 q 450 134 441 84 l 475 259 q 419 175 461 233 q 313 54 377 117 q 209 -8 250 -8 q 141 81 141 -8 q 160 229 141 144 l 201 418 q 208 472 208 467 q 194 506 208 506 q 179 500 189 506 q 159 484 170 494 q 141 467 149 475 q 126 450 133 458 q 119 442 119 442 q 109 455 117 442 q 102 473 102 468 q 170 545 118 500 q 258 590 222 590 z "},"":{"ha":640,"x_min":102,"x_max":658,"o":"m 548 823 q 583 807 568 823 q 598 769 598 791 q 577 712 598 736 q 525 688 556 688 q 491 705 503 688 q 479 747 479 723 q 498 801 479 779 q 548 823 518 823 m 319 823 q 354 807 339 823 q 369 769 369 791 q 348 712 369 736 q 296 688 327 688 q 262 705 274 688 q 250 747 250 723 q 269 801 250 779 q 319 823 289 823 m 258 590 q 292 570 279 590 q 304 519 304 551 q 296 448 304 483 l 248 224 q 239 151 239 184 q 264 92 239 92 q 319 124 283 92 q 393 207 354 156 q 466 331 431 258 q 514 476 500 404 l 537 582 q 579 587 555 587 q 625 582 604 587 l 541 144 q 537 110 537 127 q 551 76 537 76 q 570 83 559 76 q 593 102 582 91 q 614 123 605 113 q 632 141 624 133 l 640 151 q 650 138 643 151 q 658 119 658 125 q 585 41 640 90 q 487 -8 529 -8 q 453 12 465 -8 q 441 62 441 31 q 450 134 441 84 l 475 259 q 419 175 461 233 q 313 54 377 117 q 209 -8 250 -8 q 141 81 141 -8 q 160 229 141 144 l 201 418 q 208 472 208 467 q 194 506 208 506 q 179 500 189 506 q 159 484 170 494 q 141 467 149 475 q 126 450 133 458 q 119 442 119 442 q 109 455 117 442 q 102 473 102 468 q 170 545 118 500 q 258 590 222 590 z "},"":{"ha":650,"x_min":-37,"x_max":677,"o":"m 442 673 q 436 678 439 673 q 433 689 433 684 q 490 764 433 699 q 589 860 548 829 q 624 867 600 867 q 677 834 677 867 q 568 739 677 804 q 442 673 458 673 m 293 590 q 360 521 334 590 q 396 340 387 452 q 408 165 406 228 q 411 38 411 102 q 517 204 464 103 q 570 387 570 305 q 536 532 570 467 q 604 590 553 590 q 663 483 663 590 q 547 140 663 334 q 283 -184 430 -53 q 45 -316 136 -316 q -14 -300 9 -316 q -37 -260 -37 -283 q -5 -201 -37 -217 q 85 -218 24 -218 q 281 -98 198 -218 q 312 84 312 -52 q 309 216 312 151 q 296 351 305 282 q 271 463 288 420 q 231 506 254 506 q 194 483 218 506 q 156 442 170 460 q 146 455 153 442 q 138 473 138 468 q 203 542 146 494 q 293 590 259 590 z "},"":{"ha":642,"x_min":-24,"x_max":637,"o":"m 308 533 q 446 594 396 593 q 590 538 543 594 q 637 392 637 481 q 538 114 637 248 q 302 -20 438 -20 q 206 0 244 -20 q 201 -16 203 -5 l 180 -118 q 163 -233 163 -209 l 163 -240 q 186 -260 163 -250 q 220 -270 209 -270 q 221 -275 221 -270 q 214 -308 221 -294 q 163 -303 199 -307 q 99 -300 126 -300 q 31 -303 71 -300 q -24 -308 -9 -307 l -18 -270 q 22 -260 -5 -270 q 53 -240 49 -250 q 88 -118 73 -191 l 252 731 q 266 836 266 806 q 229 855 264 852 q 193 860 193 859 q 195 868 193 863 q 199 880 195 871 q 208 890 203 890 q 381 941 320 902 l 384 941 q 392 933 388 941 q 396 920 396 925 q 358 802 372 876 l 308 541 l 307 538 q 307 534 307 536 q 308 533 307 533 m 342 37 q 441 95 397 37 q 504 226 484 153 q 524 359 524 298 q 377 517 524 517 q 321 496 347 517 q 289 442 294 475 l 227 118 q 225 107 225 114 q 261 56 225 75 q 342 37 297 37 z "},"":{"ha":650,"x_min":-37,"x_max":663,"o":"m 547 823 q 582 807 567 823 q 597 769 597 791 q 576 712 597 736 q 524 688 555 688 q 490 705 502 688 q 477 747 477 723 q 497 801 477 779 q 547 823 517 823 m 317 823 q 353 807 338 823 q 368 769 368 791 q 347 712 368 736 q 294 688 326 688 q 260 705 273 688 q 248 747 248 723 q 268 801 248 779 q 317 823 288 823 m 293 590 q 360 521 334 590 q 396 340 387 452 q 408 165 406 228 q 411 38 411 102 q 517 204 464 103 q 570 387 570 305 q 536 532 570 467 q 604 590 553 590 q 663 483 663 590 q 547 140 663 334 q 283 -184 430 -53 q 45 -316 136 -316 q -14 -300 9 -316 q -37 -260 -37 -283 q -5 -201 -37 -217 q 85 -218 24 -218 q 281 -98 198 -218 q 312 84 312 -52 q 309 216 312 151 q 296 351 305 282 q 271 463 288 420 q 231 506 254 506 q 194 483 218 506 q 156 442 170 460 q 146 455 153 442 q 138 473 138 468 q 203 542 146 494 q 293 590 259 590 z "},"":{"ha":822,"x_min":3,"x_max":822,"o":"m 452 1000 q 460 1029 452 1006 q 480 1053 469 1053 l 795 1053 q 800 1043 802 1053 q 783 997 796 1025 q 778 991 781 993 q 773 987 774 989 l 770 987 l 458 987 q 452 990 458 987 q 452 1000 450 994 m 591 324 q 591 328 591 327 q 589 330 591 328 q 584 333 587 332 q 574 334 581 334 q 558 336 568 335 q 534 337 548 336 q 500 338 519 338 q 454 338 480 338 q 328 331 426 338 q 292 277 324 331 q 228 159 259 222 q 197 75 197 95 q 216 49 197 60 q 250 35 235 38 q 271 33 266 33 q 274 24 274 33 q 267 -4 274 9 q 138 3 141 3 q 93 1 113 3 q 50 -1 73 0 q 5 -4 27 -3 q 3 7 3 -1 q 12 33 3 33 q 54 41 27 33 q 91 61 80 49 q 174 189 121 94 l 548 861 q 601 898 568 898 q 612 895 606 898 l 724 179 q 741 81 738 94 q 775 47 745 61 q 819 33 806 33 q 822 26 822 33 q 815 -4 822 9 q 674 3 689 3 q 626 1 648 3 q 576 -1 604 0 q 529 -4 549 -3 q 528 4 528 -3 q 537 33 528 33 q 575 41 551 33 q 606 60 600 49 q 616 123 616 80 q 591 324 616 146 m 472 404 q 574 407 534 404 q 579 412 579 407 q 570 476 579 419 q 550 609 562 533 q 534 713 538 685 q 368 408 368 411 q 369 406 368 406 q 472 404 400 404 z "},"":{"ha":597,"x_min":88,"x_max":631,"o":"m 338 685 q 347 713 338 690 q 363 735 355 735 l 625 735 q 631 726 632 735 q 614 682 628 713 l 604 673 l 343 673 q 338 675 343 673 q 338 685 336 680 m 477 590 q 576 572 529 590 l 494 144 q 490 110 490 127 q 503 76 490 76 q 523 83 511 76 q 546 102 534 91 q 567 123 557 113 q 585 141 576 133 l 593 151 q 603 138 595 151 q 610 119 610 125 q 537 41 593 90 q 439 -8 481 -8 q 406 12 418 -8 q 393 62 393 31 q 403 134 393 85 q 408 158 406 149 q 410 170 410 167 q 378 120 396 145 q 334 64 361 95 q 276 13 307 33 q 218 -7 245 -7 q 124 47 159 -7 q 90 176 90 100 q 147 370 90 273 q 296 528 205 467 q 477 590 387 590 m 420 528 q 265 424 340 528 q 190 205 190 320 q 259 72 190 72 q 368 171 308 72 q 449 372 429 270 l 476 510 q 420 528 460 528 z "},"":{"ha":822,"x_min":3,"x_max":822,"o":"m 591 324 q 591 328 591 327 q 589 330 591 328 q 584 333 587 332 q 574 334 581 334 q 558 336 568 335 q 534 337 548 336 q 500 338 519 338 q 454 338 480 338 q 328 331 426 338 q 292 277 324 331 q 228 159 259 222 q 197 75 197 95 q 216 49 197 60 q 250 35 235 38 q 271 33 266 33 q 274 24 274 33 q 267 -4 274 9 q 138 3 141 3 q 93 1 113 3 q 50 -1 73 0 q 5 -4 27 -3 q 3 7 3 -1 q 12 33 3 33 q 54 41 27 33 q 91 61 80 49 q 174 189 121 94 l 548 861 q 601 898 568 898 q 612 895 606 898 l 724 179 q 741 81 738 94 q 775 47 745 61 q 819 33 806 33 q 822 26 822 33 q 815 -4 822 9 q 674 3 689 3 q 626 1 648 3 q 576 -1 604 0 q 529 -4 549 -3 q 528 4 528 -3 q 537 33 528 33 q 575 41 551 33 q 606 60 600 49 q 616 123 616 80 q 591 324 616 146 m 472 404 q 574 407 534 404 q 579 412 579 407 q 570 476 579 419 q 550 609 562 533 q 534 713 538 685 q 368 408 368 411 q 369 406 368 406 q 472 404 400 404 z "},"":{"ha":597,"x_min":88,"x_max":643,"o":"m 477 590 q 576 572 529 590 l 494 144 q 490 110 490 127 q 503 76 490 76 q 523 83 511 76 q 546 102 534 91 q 567 123 557 113 q 585 141 576 133 l 593 151 q 603 138 595 151 q 610 119 610 125 q 537 41 593 90 q 439 -8 481 -8 q 406 12 418 -8 q 393 62 393 31 q 403 134 393 85 q 408 158 406 149 q 410 170 410 167 q 378 120 396 145 q 334 64 361 95 q 276 13 307 33 q 218 -7 245 -7 q 124 47 159 -7 q 90 176 90 100 q 147 370 90 273 q 296 528 205 467 q 477 590 387 590 m 420 528 q 265 424 340 528 q 190 205 190 320 q 259 72 190 72 q 368 171 308 72 q 449 372 429 270 l 476 510 q 420 528 460 528 z "},"":{"ha":871,"x_min":-4,"x_max":815,"o":"m 465 404 q 567 407 528 404 q 572 412 572 407 q 564 476 572 419 q 543 609 555 533 q 528 713 532 685 q 361 408 361 411 q 362 406 361 406 q 465 404 393 404 m 541 861 q 594 898 562 898 q 605 895 600 898 l 718 179 q 734 81 731 94 q 768 47 738 61 q 812 33 799 33 q 815 26 815 33 q 808 -4 815 9 q 768 -3 793 -4 q 724 0 743 -1 q 704 1 705 1 q 553 -67 636 1 q 471 -189 471 -136 q 513 -232 471 -232 q 567 -219 541 -232 q 608 -193 593 -206 q 625 -180 624 -180 q 627 -199 632 -182 q 617 -221 621 -217 q 467 -312 536 -312 q 417 -291 437 -312 q 397 -241 397 -270 q 442 -126 397 -190 q 544 -15 487 -62 q 602 40 587 22 q 616 85 616 58 q 585 324 616 98 q 581 331 585 327 q 448 338 574 338 q 326 334 399 338 l 321 331 q 287 275 319 328 q 222 159 255 222 q 190 75 190 95 q 209 49 190 60 q 243 35 228 38 q 264 33 259 33 q 267 24 267 33 q 260 -4 267 9 q 132 3 136 3 q 86 1 106 3 q 43 -1 66 0 q -1 -4 20 -3 q -4 7 -4 -1 q 5 33 -4 33 q 47 41 20 33 q 84 61 73 49 q 167 189 114 94 l 541 861 z "},"":{"ha":602,"x_min":77,"x_max":620,"o":"m 461 538 q 276 406 372 538 q 180 164 180 274 q 182 123 180 138 q 197 90 183 109 q 240 71 212 71 q 353 172 283 71 q 441 366 422 273 l 468 506 q 469 513 468 507 q 469 522 469 519 q 461 538 469 538 m 471 590 q 571 571 552 590 l 490 144 q 488 121 488 137 q 518 71 488 71 q 551 95 530 71 q 589 144 572 119 q 606 170 605 170 q 610 165 608 170 q 616 153 613 160 q 620 140 620 145 q 536 19 601 91 q 479 -35 532 15 q 401 -121 427 -84 q 376 -189 376 -157 q 418 -232 376 -232 q 472 -219 446 -232 q 513 -193 498 -206 q 530 -180 529 -180 q 532 -199 537 -182 q 522 -221 526 -217 q 372 -312 441 -312 q 322 -292 342 -312 q 302 -244 302 -273 q 348 -129 302 -197 q 452 -3 393 -61 q 410 27 425 1 q 395 91 395 53 q 399 146 395 111 l 404 182 l 403 184 l 400 182 q 311 58 373 125 q 191 -9 250 -9 q 103 26 129 -9 q 77 133 77 62 q 120 294 77 209 q 223 442 163 378 q 352 548 283 506 q 471 590 420 590 z "},"":{"ha":787,"x_min":81,"x_max":882,"o":"m 606 964 q 589 978 589 964 q 640 1030 589 986 q 723 1095 692 1074 q 746 1097 731 1097 q 804 1087 783 1097 q 825 1065 825 1077 q 728 1003 825 1042 q 606 964 632 964 m 593 905 q 882 844 685 905 q 854 675 857 689 q 822 655 850 655 q 807 659 811 655 q 806 696 807 680 q 792 743 804 712 q 759 795 780 774 q 693 831 738 815 q 586 848 648 848 q 326 699 446 848 q 205 351 205 549 q 275 136 205 221 q 475 50 346 50 q 646 95 575 50 q 705 144 680 115 q 741 190 730 172 q 754 208 753 208 q 770 193 758 208 q 781 174 783 179 q 713 50 720 57 q 608 9 693 27 q 435 -8 522 -8 q 178 102 274 -8 q 81 362 81 213 q 121 548 81 452 q 228 724 161 644 q 391 854 294 803 q 593 905 488 905 z "},"":{"ha":442,"x_min":92,"x_max":655,"o":"m 420 673 q 414 678 418 673 q 411 689 411 684 q 469 764 411 699 q 567 860 526 829 q 602 867 578 867 q 655 834 655 867 q 546 739 655 804 q 420 673 437 673 m 393 590 q 511 544 457 590 q 515 517 515 528 q 503 475 515 491 q 468 458 490 458 q 423 496 446 458 q 377 534 400 534 q 256 440 319 534 q 193 220 193 346 q 282 76 193 76 q 303 79 293 76 q 323 85 313 81 q 342 94 332 90 q 359 106 351 99 q 375 118 368 113 q 389 130 382 123 q 398 140 395 136 q 404 146 401 144 l 408 151 q 418 138 411 151 q 426 119 426 125 q 350 39 407 87 q 237 -8 293 -8 q 130 47 167 -8 q 92 198 92 102 q 191 459 92 328 q 393 590 290 590 z "},"":{"ha":787,"x_min":81,"x_max":882,"o":"m 779 987 q 644 1066 753 987 q 547 1015 604 1042 q 477 987 490 987 q 469 1015 463 987 q 490 1031 475 1020 q 530 1059 506 1042 q 574 1090 555 1076 q 648 1153 620 1123 q 666 1164 661 1164 q 681 1153 677 1164 q 724 1088 705 1109 q 758 1053 739 1072 q 788 1025 777 1035 q 799 1015 799 1016 q 779 987 792 987 m 593 905 q 882 844 685 905 q 854 675 857 689 q 822 655 850 655 q 807 659 811 655 q 806 696 807 680 q 792 743 804 712 q 759 795 780 774 q 693 831 738 815 q 586 848 648 848 q 326 699 446 848 q 205 351 205 549 q 275 136 205 221 q 475 50 346 50 q 646 95 575 50 q 705 144 680 115 q 741 190 730 172 q 754 208 753 208 q 770 193 758 208 q 781 174 783 179 q 713 50 720 57 q 608 9 693 27 q 435 -8 522 -8 q 178 102 274 -8 q 81 362 81 213 q 121 548 81 452 q 228 724 161 644 q 391 854 294 803 q 593 905 488 905 z "},"":{"ha":442,"x_min":92,"x_max":570,"o":"m 393 590 q 511 544 457 590 q 515 517 515 528 q 503 475 515 491 q 468 458 490 458 q 423 496 446 458 q 377 534 400 534 q 256 440 319 534 q 193 220 193 346 q 282 76 193 76 q 303 79 293 76 q 323 85 313 81 q 342 94 332 90 q 359 106 351 99 q 375 118 368 113 q 389 130 382 123 q 398 140 395 136 q 404 146 401 144 l 408 151 q 418 138 411 151 q 426 119 426 125 q 350 39 407 87 q 237 -8 293 -8 q 130 47 167 -8 q 92 198 92 102 q 191 459 92 328 q 393 590 290 590 z "},"":{"ha":787,"x_min":81,"x_max":882,"o":"m 568 1007 q 561 1017 568 1007 q 559 1055 553 1027 q 587 1103 564 1084 q 636 1123 609 1123 q 676 1103 662 1123 q 685 1055 690 1084 q 658 1007 680 1027 q 609 987 636 987 q 568 1007 583 987 m 593 905 q 882 844 685 905 q 854 675 857 689 q 822 655 850 655 q 807 659 811 655 q 806 696 807 680 q 792 743 804 712 q 759 795 780 774 q 693 831 738 815 q 586 848 648 848 q 326 699 446 848 q 205 351 205 549 q 275 136 205 221 q 475 50 346 50 q 646 95 575 50 q 705 144 680 115 q 741 190 730 172 q 754 208 753 208 q 770 193 758 208 q 781 174 783 179 q 713 50 720 57 q 608 9 693 27 q 435 -8 522 -8 q 178 102 274 -8 q 81 362 81 213 q 121 548 81 452 q 228 724 161 644 q 391 854 294 803 q 593 905 488 905 z "},"":{"ha":442,"x_min":92,"x_max":515,"o":"m 393 590 q 511 544 457 590 q 515 517 515 528 q 503 475 515 491 q 468 458 490 458 q 423 496 446 458 q 377 534 400 534 q 256 440 319 534 q 193 220 193 346 q 282 76 193 76 q 303 79 293 76 q 323 85 313 81 q 342 94 332 90 q 359 106 351 99 q 375 118 368 113 q 389 130 382 123 q 398 140 395 136 q 404 146 401 144 l 408 151 q 418 138 411 151 q 426 119 426 125 q 350 39 407 87 q 237 -8 293 -8 q 130 47 167 -8 q 92 198 92 102 q 191 459 92 328 q 393 590 290 590 z "},"":{"ha":787,"x_min":81,"x_max":882,"o":"m 628 1085 q 776 1164 751 1164 q 781 1137 788 1164 q 767 1126 780 1135 q 732 1098 754 1116 q 689 1063 709 1080 q 624 998 654 1032 q 609 987 616 987 q 598 998 604 987 q 557 1061 586 1024 q 521 1105 543 1080 q 495 1137 499 1131 q 513 1164 502 1164 q 563 1137 524 1164 q 628 1085 602 1109 m 593 905 q 882 844 685 905 q 854 675 857 689 q 822 655 850 655 q 807 659 811 655 q 806 696 807 680 q 792 743 804 712 q 759 795 780 774 q 693 831 738 815 q 586 848 648 848 q 326 699 446 848 q 205 351 205 549 q 275 136 205 221 q 475 50 346 50 q 646 95 575 50 q 705 144 680 115 q 741 190 730 172 q 754 208 753 208 q 770 193 758 208 q 781 174 783 179 q 713 50 720 57 q 608 9 693 27 q 435 -8 522 -8 q 178 102 274 -8 q 81 362 81 213 q 121 548 81 452 q 228 724 161 644 q 391 854 294 803 q 593 905 488 905 z "},"":{"ha":442,"x_min":92,"x_max":528,"o":"m 393 590 q 511 544 457 590 q 515 517 515 528 q 503 475 515 491 q 468 458 490 458 q 423 496 446 458 q 377 534 400 534 q 256 440 319 534 q 193 220 193 346 q 282 76 193 76 q 303 79 293 76 q 323 85 313 81 q 342 94 332 90 q 359 106 351 99 q 375 118 368 113 q 389 130 382 123 q 398 140 395 136 q 404 146 401 144 l 408 151 q 418 138 411 151 q 426 119 426 125 q 350 39 407 87 q 237 -8 293 -8 q 130 47 167 -8 q 92 198 92 102 q 191 459 92 328 q 393 590 290 590 z "},"":{"ha":906,"x_min":33,"x_max":933,"o":"m 639 1085 q 787 1164 762 1164 q 792 1137 799 1164 q 778 1126 791 1135 q 743 1098 765 1116 q 700 1063 720 1080 q 635 998 665 1032 q 620 987 627 987 q 609 998 614 987 q 568 1061 597 1024 q 532 1105 553 1080 q 506 1137 510 1131 q 524 1164 513 1164 q 574 1137 534 1164 q 639 1085 613 1109 m 575 892 q 842 795 751 892 q 933 549 933 697 q 913 406 933 480 q 848 258 892 331 q 743 126 804 184 q 593 32 682 68 q 399 -4 503 -4 q 302 -1 374 -4 q 184 3 231 3 l 34 -4 q 33 7 33 -3 q 39 33 33 33 q 90 43 54 33 q 130 66 125 54 q 165 193 149 106 l 263 697 q 278 823 281 793 q 247 845 277 834 q 202 856 217 856 q 199 861 199 856 q 209 892 199 883 q 354 890 271 890 q 476 891 401 890 q 575 892 551 892 m 572 833 q 410 811 427 833 q 373 704 388 784 l 274 189 q 270 131 270 170 q 273 85 270 92 q 430 58 285 58 q 633 132 544 58 q 768 320 723 206 q 814 562 814 434 q 754 757 814 681 q 572 833 694 833 z "},"":{"ha":628,"x_min":99,"x_max":860,"o":"m 484 590 q 491 590 518 590 l 502 590 l 540 792 q 544 830 544 811 q 461 856 544 856 q 457 864 457 856 q 468 891 457 880 q 643 929 562 899 q 651 903 651 924 l 631 802 l 503 144 q 499 110 499 127 q 513 76 499 76 q 532 83 521 76 q 555 102 544 91 q 576 123 567 113 q 594 141 586 133 l 602 151 q 612 138 605 151 q 620 119 620 125 q 547 41 602 90 q 449 -8 491 -8 q 415 12 427 -8 q 403 62 403 31 q 412 134 403 84 q 416 153 415 145 q 419 163 418 160 q 420 171 420 167 q 379 106 403 140 q 311 33 355 72 q 229 -7 266 -7 q 133 47 167 -7 q 99 176 99 100 q 224 456 99 323 q 484 590 349 590 m 475 463 q 469 508 480 488 q 433 528 458 528 q 275 424 350 528 q 199 203 199 320 q 269 72 199 72 q 378 172 319 72 q 458 374 438 271 l 475 463 z "},"":{"ha":894,"x_min":27,"x_max":928,"o":"m 570 899 q 730 871 661 899 q 843 795 800 844 q 907 687 886 747 q 928 556 928 627 q 907 412 928 487 q 843 264 887 338 q 738 133 799 191 q 587 39 677 75 q 393 3 498 3 q 297 6 369 3 q 179 9 225 9 q 104 8 142 9 q 47 4 66 7 l 28 3 q 27 14 27 4 q 34 39 27 39 q 84 51 49 39 q 125 73 119 62 q 160 199 144 113 l 258 704 q 273 830 275 802 q 241 852 271 841 q 197 863 212 863 q 194 868 194 863 q 203 899 194 890 q 349 897 266 897 q 471 898 396 897 q 570 899 545 899 m 567 840 q 526 839 553 840 q 455 833 499 838 q 404 818 411 827 q 385 784 393 804 q 376 755 377 764 q 368 711 374 746 l 269 195 q 264 138 264 176 q 267 92 264 99 q 310 75 273 81 q 376 66 347 68 q 425 65 404 65 q 628 139 538 65 q 763 327 718 213 q 808 568 808 441 q 749 764 808 688 q 567 840 689 840 m 137 479 l 605 479 q 613 465 613 479 q 605 425 613 444 l 136 425 q 129 442 129 425 q 137 479 129 467 z "},"":{"ha":575,"x_min":81,"x_max":682,"o":"m 422 183 q 410 163 422 183 q 377 115 397 144 q 332 58 357 87 q 274 10 307 30 q 210 -9 241 -9 q 81 132 81 -9 q 142 335 81 225 q 287 517 203 445 q 433 590 370 590 q 491 578 467 590 l 494 578 l 496 576 q 499 582 499 576 l 534 758 q 547 825 547 814 q 481 857 547 857 q 473 861 473 857 q 479 880 473 869 q 487 890 484 890 q 533 895 507 890 q 581 908 559 901 q 623 923 604 916 q 654 936 643 930 l 666 941 q 673 920 673 941 q 632 802 646 876 l 513 168 q 507 127 507 146 q 543 71 507 71 q 591 120 559 71 q 624 170 623 170 q 632 159 627 170 q 639 141 637 148 q 578 44 623 96 q 490 -8 533 -8 q 414 90 414 -8 q 416 130 414 109 q 422 164 419 151 q 425 179 425 178 q 422 183 425 183 m 423 541 q 267 413 350 541 q 184 161 184 285 q 203 97 184 123 q 259 71 221 71 q 374 174 304 71 q 463 374 445 278 l 488 511 l 488 513 q 468 532 488 524 q 423 541 448 541 m 368 772 l 678 772 q 682 758 685 772 q 667 718 680 738 l 355 718 q 352 724 353 718 q 353 735 351 730 q 368 772 357 757 z "},"":{"ha":704,"x_min":33,"x_max":753,"o":"m 357 1000 q 366 1029 357 1006 q 385 1053 374 1053 l 700 1053 q 705 1043 707 1053 q 688 997 701 1025 q 683 991 686 993 q 678 987 680 989 l 675 987 l 363 987 q 357 990 363 987 q 357 1000 355 994 m 354 890 q 545 895 410 890 q 751 901 681 901 q 750 848 750 882 q 751 781 750 825 q 753 716 753 738 q 728 709 746 709 q 712 719 712 709 q 677 815 708 795 q 578 836 646 836 l 505 836 q 401 818 408 836 q 377 727 387 777 l 334 490 q 337 484 334 486 q 349 481 340 481 q 365 479 357 480 q 384 479 373 479 l 445 479 q 556 492 534 479 q 609 575 578 505 q 628 585 613 585 q 648 578 644 585 l 598 317 q 579 312 590 312 q 560 323 562 312 q 555 378 559 359 q 549 399 551 396 q 540 408 547 403 q 408 419 526 419 q 316 407 319 419 l 277 206 q 262 88 262 134 q 273 64 262 68 q 345 60 283 60 l 406 60 q 570 83 524 60 q 621 131 591 94 q 675 220 650 168 q 696 228 680 228 q 724 220 719 228 q 613 -5 629 43 q 390 -1 541 -5 q 184 3 239 3 l 34 -4 q 33 7 33 -3 q 39 33 33 33 q 90 43 54 33 q 130 66 125 54 q 165 193 149 106 l 263 697 q 278 823 281 793 q 247 845 277 834 q 202 856 217 856 q 199 861 199 856 q 209 892 199 883 q 354 890 271 890 z "},"":{"ha":487,"x_min":95,"x_max":532,"o":"m 239 685 q 248 713 239 690 q 264 735 256 735 l 526 735 q 532 726 533 735 q 515 682 529 713 l 505 673 l 244 673 q 239 675 244 673 q 239 685 237 680 m 396 590 q 486 558 458 590 q 514 488 514 526 q 453 370 514 429 q 319 280 392 312 q 202 248 247 248 q 197 201 197 248 q 220 108 197 140 q 285 76 244 76 q 306 79 296 76 q 326 85 316 81 q 345 94 335 90 q 362 106 354 99 q 378 118 370 113 q 391 130 385 123 q 401 140 397 136 q 407 146 404 144 l 411 151 q 421 138 414 151 q 429 119 429 125 q 353 39 410 87 q 240 -8 296 -8 q 132 47 170 -8 q 95 198 95 102 q 194 459 95 328 q 396 590 293 590 m 382 534 q 262 443 319 534 q 206 301 206 351 q 212 296 206 296 q 338 361 260 296 q 416 494 416 426 q 382 534 416 534 z "},"":{"ha":704,"x_min":33,"x_max":753,"o":"m 458 1074 q 471 1063 458 1074 q 525 1053 484 1053 q 600 1074 566 1053 q 650 1131 633 1095 q 656 1134 650 1134 q 670 1128 663 1134 q 675 1119 677 1123 l 674 1115 q 673 1109 673 1111 q 608 1024 655 1061 q 513 987 562 987 q 431 1023 463 987 q 400 1111 399 1059 l 400 1119 q 411 1128 401 1123 q 426 1134 420 1134 q 431 1131 431 1134 q 458 1074 433 1095 m 354 890 q 545 895 410 890 q 751 901 681 901 q 750 848 750 882 q 751 781 750 825 q 753 716 753 738 q 728 709 746 709 q 712 719 712 709 q 677 815 708 795 q 578 836 646 836 l 505 836 q 401 818 408 836 q 377 727 387 777 l 334 490 q 337 484 334 486 q 349 481 340 481 q 365 479 357 480 q 384 479 373 479 l 445 479 q 556 492 534 479 q 609 575 578 505 q 628 585 613 585 q 648 578 644 585 l 598 317 q 579 312 590 312 q 560 323 562 312 q 555 378 559 359 q 549 399 551 396 q 540 408 547 403 q 408 419 526 419 q 316 407 319 419 l 277 206 q 262 88 262 134 q 273 64 262 68 q 345 60 283 60 l 406 60 q 570 83 524 60 q 621 131 591 94 q 675 220 650 168 q 696 228 680 228 q 724 220 719 228 q 613 -5 629 43 q 390 -1 541 -5 q 184 3 239 3 l 34 -4 q 33 7 33 -3 q 39 33 33 33 q 90 43 54 33 q 130 66 125 54 q 165 193 149 106 l 263 697 q 278 823 281 793 q 247 845 277 834 q 202 856 217 856 q 199 861 199 856 q 209 892 199 883 q 354 890 271 890 z "},"":{"ha":487,"x_min":95,"x_max":544,"o":"m 396 590 q 486 558 458 590 q 514 488 514 526 q 453 370 514 429 q 319 280 392 312 q 202 248 247 248 q 197 201 197 248 q 220 108 197 140 q 285 76 244 76 q 306 79 296 76 q 326 85 316 81 q 345 94 335 90 q 362 106 354 99 q 378 118 370 113 q 391 130 385 123 q 401 140 397 136 q 407 146 404 144 l 411 151 q 421 138 414 151 q 429 119 429 125 q 353 39 410 87 q 240 -8 296 -8 q 132 47 170 -8 q 95 198 95 102 q 194 459 95 328 q 396 590 293 590 m 382 534 q 262 443 319 534 q 206 301 206 351 q 212 296 206 296 q 338 361 260 296 q 416 494 416 426 q 382 534 416 534 z "},"":{"ha":704,"x_min":33,"x_max":753,"o":"m 496 1007 q 489 1017 496 1007 q 487 1055 481 1027 q 515 1103 492 1084 q 564 1123 537 1123 q 604 1103 590 1123 q 613 1055 618 1084 q 586 1007 608 1027 q 537 987 564 987 q 496 1007 511 987 m 354 890 q 545 895 410 890 q 751 901 681 901 q 750 848 750 882 q 751 781 750 825 q 753 716 753 738 q 728 709 746 709 q 712 719 712 709 q 677 815 708 795 q 578 836 646 836 l 505 836 q 401 818 408 836 q 377 727 387 777 l 334 490 q 337 484 334 486 q 349 481 340 481 q 365 479 357 480 q 384 479 373 479 l 445 479 q 556 492 534 479 q 609 575 578 505 q 628 585 613 585 q 648 578 644 585 l 598 317 q 579 312 590 312 q 560 323 562 312 q 555 378 559 359 q 549 399 551 396 q 540 408 547 403 q 408 419 526 419 q 316 407 319 419 l 277 206 q 262 88 262 134 q 273 64 262 68 q 345 60 283 60 l 406 60 q 570 83 524 60 q 621 131 591 94 q 675 220 650 168 q 696 228 680 228 q 724 220 719 228 q 613 -5 629 43 q 390 -1 541 -5 q 184 3 239 3 l 34 -4 q 33 7 33 -3 q 39 33 33 33 q 90 43 54 33 q 130 66 125 54 q 165 193 149 106 l 263 697 q 278 823 281 793 q 247 845 277 834 q 202 856 217 856 q 199 861 199 856 q 209 892 199 883 q 354 890 271 890 z "},"":{"ha":487,"x_min":95,"x_max":514,"o":"m 396 590 q 486 558 458 590 q 514 488 514 526 q 453 370 514 429 q 319 280 392 312 q 202 248 247 248 q 197 201 197 248 q 220 108 197 140 q 285 76 244 76 q 306 79 296 76 q 326 85 316 81 q 345 94 335 90 q 362 106 354 99 q 378 118 370 113 q 391 130 385 123 q 401 140 397 136 q 407 146 404 144 l 411 151 q 421 138 414 151 q 429 119 429 125 q 353 39 410 87 q 240 -8 296 -8 q 132 47 170 -8 q 95 198 95 102 q 194 459 95 328 q 396 590 293 590 m 382 534 q 262 443 319 534 q 206 301 206 351 q 212 296 206 296 q 338 361 260 296 q 416 494 416 426 q 382 534 416 534 z "},"":{"ha":727,"x_min":-3,"x_max":718,"o":"m 578 -5 q 416 -68 488 -5 q 345 -189 345 -132 q 387 -232 345 -232 q 441 -219 415 -232 q 482 -193 467 -206 q 499 -180 498 -180 q 500 -199 506 -182 q 491 -221 495 -217 q 340 -312 410 -312 q 291 -292 311 -312 q 271 -244 271 -273 q 325 -111 271 -190 q 435 -4 378 -31 q 149 3 178 3 l -1 -4 q -3 7 -3 -3 q 4 33 -3 33 q 54 43 19 33 q 95 66 90 54 q 130 193 114 106 l 228 697 q 243 823 245 793 q 212 845 241 834 q 167 856 182 856 q 164 861 164 856 q 174 892 164 883 q 319 890 236 890 q 510 895 374 890 q 716 901 646 901 q 715 848 715 882 q 716 781 715 825 q 718 716 718 738 q 693 709 711 709 q 677 719 677 709 q 642 815 673 795 q 543 836 610 836 l 469 836 q 366 818 373 836 q 342 727 351 777 l 298 490 q 302 484 298 486 q 313 481 305 481 q 330 479 321 480 q 349 479 338 479 l 410 479 q 521 492 499 479 q 574 575 543 505 q 593 585 578 585 q 613 578 609 585 l 563 317 q 544 312 555 312 q 525 323 526 312 q 519 378 524 359 q 513 399 515 396 q 505 408 511 403 q 373 419 491 419 q 281 407 283 419 l 241 206 q 227 88 227 134 q 237 64 227 68 q 309 60 248 60 l 370 60 q 534 83 488 60 q 585 131 556 94 q 640 220 614 168 q 661 228 644 228 q 689 220 684 228 q 578 -5 594 43 z "},"":{"ha":473,"x_min":31,"x_max":442,"o":"m 320 537 q 202 445 260 537 q 144 304 144 353 q 153 296 144 296 q 275 355 201 296 q 349 477 349 414 q 320 537 349 537 m 347 590 q 442 483 442 590 q 384 373 442 430 q 254 282 326 316 q 140 248 183 248 q 134 236 134 248 q 237 76 134 76 q 294 99 264 76 q 343 145 324 122 q 363 168 362 168 q 368 163 365 168 q 374 151 370 159 q 377 138 377 144 q 362 111 376 130 q 265 2 332 66 q 151 -112 198 -62 q 103 -189 103 -161 q 145 -232 103 -232 q 199 -219 174 -232 q 241 -193 225 -206 q 258 -180 256 -180 q 259 -199 264 -182 q 250 -221 254 -217 q 99 -312 168 -312 q 50 -292 69 -312 q 31 -244 31 -273 q 92 -122 30 -201 q 198 -5 155 -43 q 84 54 133 -5 q 35 206 35 114 q 79 381 35 292 q 197 530 123 471 q 347 590 271 590 z "},"":{"ha":704,"x_min":33,"x_max":753,"o":"m 560 1085 q 708 1164 684 1164 q 713 1137 720 1164 q 699 1126 712 1135 q 664 1098 686 1116 q 621 1063 642 1080 q 556 998 586 1032 q 541 987 548 987 q 530 998 536 987 q 490 1061 518 1024 q 453 1105 475 1080 q 427 1137 431 1131 q 445 1164 434 1164 q 495 1137 456 1164 q 560 1085 534 1109 m 354 890 q 545 895 410 890 q 751 901 681 901 q 750 848 750 882 q 751 781 750 825 q 753 716 753 738 q 728 709 746 709 q 712 719 712 709 q 677 815 708 795 q 578 836 646 836 l 505 836 q 401 818 408 836 q 377 727 387 777 l 334 490 q 337 484 334 486 q 349 481 340 481 q 365 479 357 480 q 384 479 373 479 l 445 479 q 556 492 534 479 q 609 575 578 505 q 628 585 613 585 q 648 578 644 585 l 598 317 q 579 312 590 312 q 560 323 562 312 q 555 378 559 359 q 549 399 551 396 q 540 408 547 403 q 408 419 526 419 q 316 407 319 419 l 277 206 q 262 88 262 134 q 273 64 262 68 q 345 60 283 60 l 406 60 q 570 83 524 60 q 621 131 591 94 q 675 220 650 168 q 696 228 680 228 q 724 220 719 228 q 613 -5 629 43 q 390 -1 541 -5 q 184 3 239 3 l 34 -4 q 33 7 33 -3 q 39 33 33 33 q 90 43 54 33 q 130 66 125 54 q 165 193 149 106 l 263 697 q 278 823 281 793 q 247 845 277 834 q 202 856 217 856 q 199 861 199 856 q 209 892 199 883 q 354 890 271 890 z "},"":{"ha":487,"x_min":95,"x_max":543,"o":"m 396 590 q 486 558 458 590 q 514 488 514 526 q 453 370 514 429 q 319 280 392 312 q 202 248 247 248 q 197 201 197 248 q 220 108 197 140 q 285 76 244 76 q 306 79 296 76 q 326 85 316 81 q 345 94 335 90 q 362 106 354 99 q 378 118 370 113 q 391 130 385 123 q 401 140 397 136 q 407 146 404 144 l 411 151 q 421 138 414 151 q 429 119 429 125 q 353 39 410 87 q 240 -8 296 -8 q 132 47 170 -8 q 95 198 95 102 q 194 459 95 328 q 396 590 293 590 m 382 534 q 262 443 319 534 q 206 301 206 351 q 212 296 206 296 q 338 361 260 296 q 416 494 416 426 q 382 534 416 534 z "},"":{"ha":836,"x_min":81,"x_max":903,"o":"m 781 987 q 647 1066 755 987 q 549 1015 606 1042 q 480 987 492 987 q 472 1015 465 987 q 493 1031 477 1020 q 533 1059 509 1042 q 576 1090 557 1076 q 651 1153 623 1123 q 669 1164 663 1164 q 684 1153 680 1164 q 727 1088 708 1109 q 761 1053 742 1072 q 791 1025 780 1035 q 802 1015 802 1016 q 781 987 795 987 m 595 905 q 884 844 688 905 q 856 667 864 709 q 825 655 854 655 q 810 662 812 655 q 808 698 810 682 q 795 744 807 713 q 762 795 783 774 q 696 831 741 815 q 589 848 651 848 q 401 774 490 848 q 261 589 312 700 q 210 370 210 479 q 278 145 210 240 q 465 50 346 50 q 635 80 576 50 q 650 103 646 85 l 688 296 l 689 301 q 692 318 690 308 q 693 336 693 328 q 655 360 693 349 q 600 372 617 372 q 597 378 597 372 q 608 408 597 397 q 755 401 754 401 q 903 408 774 401 q 895 372 903 372 q 836 359 872 372 q 795 320 799 346 l 762 132 q 762 127 762 130 q 761 122 761 123 q 762 101 761 113 q 764 85 764 90 q 762 75 764 79 q 753 66 761 72 q 732 56 746 61 q 706 45 730 54 q 675 34 682 37 q 645 24 669 31 q 608 14 621 16 q 568 5 594 11 q 521 -2 543 0 q 469 -6 499 -4 q 406 -8 438 -8 q 172 93 262 -8 q 81 345 81 194 q 151 606 81 476 q 340 820 220 735 q 595 905 461 905 z "},"":{"ha":594,"x_min":20,"x_max":648,"o":"m 464 -160 q 447 -105 464 -130 q 397 -62 430 -80 q 338 -33 365 -43 q 274 -11 312 -23 q 237 -27 248 -22 q 198 -47 225 -33 q 158 -75 171 -62 q 134 -107 145 -87 q 122 -149 122 -127 q 300 -258 122 -258 q 415 -230 366 -258 q 464 -160 464 -202 m 376 540 q 280 475 317 540 q 243 335 243 411 q 264 247 243 282 q 326 212 286 212 q 420 271 382 212 q 457 399 457 331 q 435 496 457 453 q 376 540 414 540 m 397 591 q 487 573 438 591 q 582 555 536 555 l 640 555 q 648 544 648 555 q 644 521 648 534 q 633 502 639 507 l 557 502 q 549 494 549 502 q 557 423 557 445 q 543 330 557 373 q 505 260 529 288 q 466 220 481 233 q 434 197 450 206 q 379 169 420 189 q 315 134 338 149 q 292 104 292 118 q 318 81 292 92 q 383 56 345 69 q 460 24 422 43 q 524 -28 498 5 q 551 -106 551 -62 q 465 -259 551 -202 q 233 -316 378 -316 q 81 -281 140 -316 q 22 -183 22 -245 q 39 -120 22 -151 q 90 -65 57 -90 q 152 -24 123 -41 q 217 8 180 -8 l 193 24 q 159 73 159 47 q 207 126 159 96 q 294 165 255 156 q 235 179 269 165 q 172 229 202 193 q 141 313 141 264 q 220 509 141 427 q 397 591 300 591 z "},"":{"ha":836,"x_min":81,"x_max":903,"o":"m 557 1074 q 570 1063 557 1074 q 624 1053 583 1053 q 699 1074 665 1053 q 749 1131 732 1095 q 755 1134 749 1134 q 769 1128 762 1134 q 774 1119 776 1123 l 773 1115 q 772 1109 772 1111 q 707 1024 754 1061 q 612 987 661 987 q 530 1023 562 987 q 499 1111 498 1059 l 499 1119 q 510 1128 500 1123 q 525 1134 519 1134 q 530 1131 530 1134 q 557 1074 532 1095 m 595 905 q 884 844 688 905 q 856 667 864 709 q 825 655 854 655 q 810 662 812 655 q 808 698 810 682 q 795 744 807 713 q 762 795 783 774 q 696 831 741 815 q 589 848 651 848 q 401 774 490 848 q 261 589 312 700 q 210 370 210 479 q 278 145 210 240 q 465 50 346 50 q 635 80 576 50 q 650 103 646 85 l 688 296 l 689 301 q 692 318 690 308 q 693 336 693 328 q 655 360 693 349 q 600 372 617 372 q 597 378 597 372 q 608 408 597 397 q 755 401 754 401 q 903 408 774 401 q 895 372 903 372 q 836 359 872 372 q 795 320 799 346 l 762 132 q 762 127 762 130 q 761 122 761 123 q 762 101 761 113 q 764 85 764 90 q 762 75 764 79 q 753 66 761 72 q 732 56 746 61 q 706 45 730 54 q 675 34 682 37 q 645 24 669 31 q 608 14 621 16 q 568 5 594 11 q 521 -2 543 0 q 469 -6 499 -4 q 406 -8 438 -8 q 172 93 262 -8 q 81 345 81 194 q 151 606 81 476 q 340 820 220 735 q 595 905 461 905 z "},"":{"ha":594,"x_min":20,"x_max":648,"o":"m 464 -160 q 447 -105 464 -130 q 397 -62 430 -80 q 338 -33 365 -43 q 274 -11 312 -23 q 237 -27 248 -22 q 198 -47 225 -33 q 158 -75 171 -62 q 134 -107 145 -87 q 122 -149 122 -127 q 300 -258 122 -258 q 415 -230 366 -258 q 464 -160 464 -202 m 376 540 q 280 475 317 540 q 243 335 243 411 q 264 247 243 282 q 326 212 286 212 q 420 271 382 212 q 457 399 457 331 q 435 496 457 453 q 376 540 414 540 m 397 591 q 487 573 438 591 q 582 555 536 555 l 640 555 q 648 544 648 555 q 644 521 648 534 q 633 502 639 507 l 557 502 q 549 494 549 502 q 557 423 557 445 q 543 330 557 373 q 505 260 529 288 q 466 220 481 233 q 434 197 450 206 q 379 169 420 189 q 315 134 338 149 q 292 104 292 118 q 318 81 292 92 q 383 56 345 69 q 460 24 422 43 q 524 -28 498 5 q 551 -106 551 -62 q 465 -259 551 -202 q 233 -316 378 -316 q 81 -281 140 -316 q 22 -183 22 -245 q 39 -120 22 -151 q 90 -65 57 -90 q 152 -24 123 -41 q 217 8 180 -8 l 193 24 q 159 73 159 47 q 207 126 159 96 q 294 165 255 156 q 235 179 269 165 q 172 229 202 193 q 141 313 141 264 q 220 509 141 427 q 397 591 300 591 z "},"":{"ha":836,"x_min":81,"x_max":903,"o":"m 571 1007 q 564 1017 571 1007 q 562 1055 556 1027 q 589 1103 567 1084 q 639 1123 612 1123 q 679 1103 665 1123 q 688 1055 693 1084 q 661 1007 682 1027 q 612 987 639 987 q 571 1007 586 987 m 595 905 q 884 844 688 905 q 856 667 864 709 q 825 655 854 655 q 810 662 812 655 q 808 698 810 682 q 795 744 807 713 q 762 795 783 774 q 696 831 741 815 q 589 848 651 848 q 401 774 490 848 q 261 589 312 700 q 210 370 210 479 q 278 145 210 240 q 465 50 346 50 q 635 80 576 50 q 650 103 646 85 l 688 296 l 689 301 q 692 318 690 308 q 693 336 693 328 q 655 360 693 349 q 600 372 617 372 q 597 378 597 372 q 608 408 597 397 q 755 401 754 401 q 903 408 774 401 q 895 372 903 372 q 836 359 872 372 q 795 320 799 346 l 762 132 q 762 127 762 130 q 761 122 761 123 q 762 101 761 113 q 764 85 764 90 q 762 75 764 79 q 753 66 761 72 q 732 56 746 61 q 706 45 730 54 q 675 34 682 37 q 645 24 669 31 q 608 14 621 16 q 568 5 594 11 q 521 -2 543 0 q 469 -6 499 -4 q 406 -8 438 -8 q 172 93 262 -8 q 81 345 81 194 q 151 606 81 476 q 340 820 220 735 q 595 905 461 905 z "},"":{"ha":594,"x_min":20,"x_max":648,"o":"m 464 -160 q 447 -105 464 -130 q 397 -62 430 -80 q 338 -33 365 -43 q 274 -11 312 -23 q 237 -27 248 -22 q 198 -47 225 -33 q 158 -75 171 -62 q 134 -107 145 -87 q 122 -149 122 -127 q 300 -258 122 -258 q 415 -230 366 -258 q 464 -160 464 -202 m 376 540 q 280 475 317 540 q 243 335 243 411 q 264 247 243 282 q 326 212 286 212 q 420 271 382 212 q 457 399 457 331 q 435 496 457 453 q 376 540 414 540 m 397 591 q 487 573 438 591 q 582 555 536 555 l 640 555 q 648 544 648 555 q 644 521 648 534 q 633 502 639 507 l 557 502 q 549 494 549 502 q 557 423 557 445 q 543 330 557 373 q 505 260 529 288 q 466 220 481 233 q 434 197 450 206 q 379 169 420 189 q 315 134 338 149 q 292 104 292 118 q 318 81 292 92 q 383 56 345 69 q 460 24 422 43 q 524 -28 498 5 q 551 -106 551 -62 q 465 -259 551 -202 q 233 -316 378 -316 q 81 -281 140 -316 q 22 -183 22 -245 q 39 -120 22 -151 q 90 -65 57 -90 q 152 -24 123 -41 q 217 8 180 -8 l 193 24 q 159 73 159 47 q 207 126 159 96 q 294 165 255 156 q 235 179 269 165 q 172 229 202 193 q 141 313 141 264 q 220 509 141 427 q 397 591 300 591 z "},"":{"ha":836,"x_min":81,"x_max":903,"o":"m 328 -146 q 366 -94 328 -115 q 445 -72 403 -72 q 463 -127 463 -85 q 419 -235 463 -178 q 335 -313 376 -292 q 324 -316 332 -316 q 300 -307 300 -316 q 315 -295 300 -304 q 347 -267 330 -286 q 369 -224 363 -248 q 351 -182 373 -202 q 328 -146 328 -163 m 595 905 q 884 844 688 905 q 856 667 864 709 q 825 655 854 655 q 810 662 812 655 q 808 698 810 682 q 795 744 807 713 q 762 795 783 774 q 696 831 741 815 q 589 848 651 848 q 401 774 490 848 q 261 589 312 700 q 210 370 210 479 q 278 145 210 240 q 465 50 346 50 q 635 80 576 50 q 650 103 646 85 l 688 296 l 689 301 q 692 318 690 308 q 693 336 693 328 q 655 360 693 349 q 600 372 617 372 q 597 378 597 372 q 608 408 597 397 q 755 401 754 401 q 903 408 774 401 q 895 372 903 372 q 836 359 872 372 q 795 320 799 346 l 762 132 q 762 127 762 130 q 761 122 761 123 q 762 101 761 113 q 764 85 764 90 q 762 75 764 79 q 753 66 761 72 q 732 56 746 61 q 706 45 730 54 q 675 34 682 37 q 645 24 669 31 q 608 14 621 16 q 568 5 594 11 q 521 -2 543 0 q 469 -6 499 -4 q 406 -8 438 -8 q 172 93 262 -8 q 81 345 81 194 q 151 606 81 476 q 340 820 220 735 q 595 905 461 905 z "},"":{"ha":594,"x_min":20,"x_max":648,"o":"m 464 -160 q 447 -105 464 -130 q 397 -62 430 -80 q 338 -33 365 -43 q 274 -11 312 -23 q 237 -27 248 -22 q 198 -47 225 -33 q 158 -75 171 -62 q 134 -107 145 -87 q 122 -149 122 -127 q 300 -258 122 -258 q 415 -230 366 -258 q 464 -160 464 -202 m 376 540 q 280 475 317 540 q 243 335 243 411 q 264 247 243 282 q 326 212 286 212 q 420 271 382 212 q 457 399 457 331 q 435 496 457 453 q 376 540 414 540 m 397 591 q 487 573 438 591 q 582 555 536 555 l 640 555 q 648 544 648 555 q 644 521 648 534 q 633 502 639 507 l 557 502 q 549 494 549 502 q 557 423 557 445 q 543 330 557 373 q 505 260 529 288 q 466 220 481 233 q 434 197 450 206 q 379 169 420 189 q 315 134 338 149 q 292 104 292 118 q 318 81 292 92 q 383 56 345 69 q 460 24 422 43 q 524 -28 498 5 q 551 -106 551 -62 q 465 -259 551 -202 q 233 -316 378 -316 q 81 -281 140 -316 q 22 -183 22 -245 q 39 -120 22 -151 q 90 -65 57 -90 q 152 -24 123 -41 q 217 8 180 -8 l 193 24 q 159 73 159 47 q 207 126 159 96 q 294 165 255 156 q 235 179 269 165 q 172 229 202 193 q 141 313 141 264 q 220 509 141 427 q 397 591 300 591 z "},"":{"ha":850,"x_min":33,"x_max":991,"o":"m 827 987 q 693 1066 802 987 q 595 1015 652 1042 q 526 987 538 987 q 518 1015 511 987 q 539 1031 524 1020 q 579 1059 555 1042 q 623 1090 604 1076 q 697 1153 669 1123 q 715 1164 709 1164 q 730 1153 726 1164 q 773 1088 754 1109 q 807 1053 788 1072 q 837 1025 826 1035 q 848 1015 848 1016 q 827 987 841 987 m 538 495 q 716 506 715 495 l 753 694 q 768 819 768 769 q 739 845 768 834 q 692 856 709 856 q 689 863 689 856 q 700 892 689 882 q 764 888 716 891 q 846 884 812 884 q 931 888 879 884 q 991 892 983 892 l 991 888 q 982 856 991 856 q 937 845 971 856 q 899 825 903 834 q 864 699 879 780 l 765 189 q 750 66 750 114 q 768 47 750 56 q 806 35 787 38 l 823 33 q 826 27 826 33 q 818 -4 826 12 q 677 3 692 3 q 528 -4 673 3 q 525 7 525 -1 q 534 33 525 33 q 583 41 551 33 q 621 62 616 50 q 656 193 642 109 l 700 416 l 700 418 q 668 427 700 425 q 514 429 636 429 q 316 412 319 429 l 273 189 q 258 66 258 114 q 276 47 258 56 q 312 35 294 38 l 331 33 q 334 27 334 33 q 326 -4 334 12 q 184 3 201 3 q 35 -4 182 3 q 33 7 33 -1 q 42 33 33 33 q 91 41 58 33 q 129 62 123 50 q 164 193 149 109 l 260 694 q 275 819 275 769 q 246 845 275 834 q 199 856 217 856 q 197 863 197 856 q 208 892 197 882 q 272 888 224 891 q 354 884 320 884 q 437 888 387 884 q 498 892 488 892 l 498 888 q 488 856 498 856 q 443 845 477 856 q 404 825 408 834 q 369 699 382 774 l 335 507 l 335 506 q 371 497 335 499 q 538 495 407 495 z "},"":{"ha":625,"x_min":90,"x_max":637,"o":"m 422 987 q 288 1066 396 987 q 190 1015 247 1042 q 121 987 133 987 q 113 1015 106 987 q 134 1031 118 1020 q 174 1059 149 1042 q 217 1090 198 1076 q 292 1153 263 1123 q 309 1164 304 1164 q 324 1153 320 1164 q 368 1088 349 1109 q 401 1053 382 1072 q 431 1025 420 1035 q 442 1015 442 1016 q 422 987 435 987 m 517 590 q 585 500 585 590 q 566 353 585 439 l 521 144 q 517 110 517 127 q 530 76 517 76 q 550 83 538 76 q 573 102 562 91 q 594 123 585 113 q 612 141 604 133 l 620 151 q 630 138 623 151 q 637 119 637 125 q 564 41 620 90 q 467 -8 509 -8 q 433 12 445 -8 q 420 62 420 31 q 430 134 420 84 l 477 358 q 487 431 487 403 q 461 490 487 490 q 322 367 416 490 q 201 106 228 244 l 178 0 q 136 -5 160 -5 q 90 0 111 -5 l 236 758 q 248 830 248 818 q 165 856 248 856 q 161 864 161 856 q 172 891 161 880 q 343 929 262 899 q 351 903 351 925 q 334 802 351 892 l 264 448 l 240 323 q 299 407 254 347 q 410 528 345 467 q 517 590 476 590 z "},"":{"ha":928,"x_min":65,"x_max":1031,"o":"m 887 637 l 800 189 q 785 62 784 104 q 818 44 787 53 q 861 35 849 35 q 861 15 865 35 q 856 -4 859 0 q 713 3 730 3 q 559 -4 705 3 q 558 18 555 1 q 567 35 562 35 q 616 43 583 35 q 656 62 650 52 q 689 183 677 109 l 731 397 l 730 403 q 543 406 610 406 q 347 399 349 406 l 307 189 q 293 62 292 110 q 326 44 294 53 q 369 35 357 35 q 370 19 373 34 q 363 -4 368 4 q 218 3 239 3 q 66 -4 212 3 q 65 16 62 3 q 73 35 68 35 q 123 43 90 35 q 163 62 156 52 q 195 183 183 109 l 283 637 l 241 637 q 239 655 235 637 q 252 689 243 675 l 294 689 q 312 830 313 785 q 280 850 311 841 q 233 859 250 859 q 232 876 229 859 q 241 898 235 891 q 307 893 256 897 q 391 890 357 890 q 439 891 415 890 q 492 895 464 892 q 538 898 521 897 q 536 875 540 891 q 529 859 533 859 q 481 849 517 859 q 442 830 446 840 q 404 689 423 787 q 598 688 419 688 q 787 689 736 688 q 806 830 807 795 q 774 850 804 841 q 727 859 743 859 q 724 867 724 860 q 728 885 724 875 q 735 898 731 895 q 801 893 750 897 q 886 890 852 890 q 970 894 918 890 q 1031 898 1023 898 q 1029 878 1031 884 q 1021 859 1027 859 q 974 849 1009 859 q 935 830 939 840 q 897 689 917 791 l 948 689 q 952 671 956 689 q 937 637 949 652 l 887 637 m 589 639 q 393 637 450 639 l 362 477 q 365 473 362 473 q 556 471 487 471 q 743 473 629 471 q 746 479 746 476 l 777 637 q 589 639 726 639 z "},"":{"ha":575,"x_min":81,"x_max":633,"o":"m 227 745 q 236 831 236 793 q 180 853 235 853 l 171 853 q 167 868 164 853 q 170 880 167 871 q 178 890 174 890 q 245 901 214 894 q 295 914 277 907 q 326 927 313 921 q 346 937 339 933 l 353 941 l 354 941 q 365 920 365 941 q 330 802 345 876 q 235 327 235 331 l 236 326 l 237 327 q 354 486 267 382 q 498 590 441 590 q 566 500 566 590 q 544 340 566 445 l 503 144 q 500 121 500 130 q 532 71 500 71 q 565 95 544 71 q 602 144 586 119 q 620 170 618 170 q 624 165 621 170 q 630 153 627 160 q 633 140 633 145 q 575 48 621 104 q 484 -8 529 -8 q 408 91 408 -8 q 438 262 408 126 q 468 431 468 397 q 442 490 468 490 q 310 362 400 490 q 193 106 220 235 l 170 0 q 127 -5 152 -5 q 81 0 103 -5 l 227 745 m 172 772 l 483 772 q 487 758 490 772 q 472 718 484 738 l 160 718 q 157 724 157 718 q 157 735 156 730 q 172 772 161 757 z "},"":{"ha":357,"x_min":33,"x_max":605,"o":"m 168 1000 q 164 1023 159 1000 q 195 1074 168 1044 q 304 1128 248 1128 q 406 1093 346 1128 q 507 1057 465 1057 q 545 1072 522 1057 q 583 1101 567 1086 q 601 1116 600 1116 q 605 1093 610 1116 q 574 1040 601 1072 q 468 987 525 987 q 366 1023 425 987 q 263 1059 307 1059 q 206 1029 243 1059 q 168 1000 170 1000 m 369 699 l 273 189 q 258 66 258 114 q 276 47 258 56 q 312 35 294 38 l 331 33 q 334 27 334 33 q 326 -4 334 12 q 184 3 201 3 q 35 -4 182 3 q 33 7 33 -1 q 42 33 33 33 q 91 41 58 33 q 129 62 123 50 q 164 193 149 109 l 260 694 q 275 819 275 769 q 246 845 275 834 q 199 856 217 856 q 197 863 197 856 q 208 892 197 882 q 272 888 224 891 q 354 884 320 884 q 437 888 387 884 q 498 892 488 892 l 498 888 q 488 856 498 856 q 443 845 477 856 q 404 825 408 834 q 369 699 387 787 z "},"":{"ha":293,"x_min":-20,"x_max":372,"o":"m 224 492 q 193 298 224 458 q 161 121 161 137 q 191 71 161 71 q 224 95 203 71 q 262 144 245 119 q 279 170 278 170 q 283 165 281 170 q 290 153 286 160 q 293 140 293 145 q 235 48 281 104 q 144 -8 189 -8 q 68 91 68 -8 q 77 174 68 130 l 126 418 q 130 456 130 446 q 92 511 130 511 q 46 461 79 511 l 12 412 q 8 417 11 412 q 1 429 5 422 q -3 442 -3 437 q 56 534 9 477 q 146 590 102 590 q 224 492 224 590 z "},"":{"ha":357,"x_min":33,"x_max":552,"o":"m 203 1000 q 212 1029 203 1006 q 232 1053 221 1053 l 547 1053 q 552 1043 553 1053 q 534 997 548 1025 q 530 991 533 993 q 525 987 526 989 l 522 987 l 210 987 q 203 990 210 987 q 203 1000 202 994 m 369 699 l 273 189 q 258 66 258 114 q 276 47 258 56 q 312 35 294 38 l 331 33 q 334 27 334 33 q 326 -4 334 12 q 184 3 201 3 q 35 -4 182 3 q 33 7 33 -1 q 42 33 33 33 q 91 41 58 33 q 129 62 123 50 q 164 193 149 109 l 260 694 q 275 819 275 769 q 246 845 275 834 q 199 856 217 856 q 197 863 197 856 q 208 892 197 882 q 272 888 224 891 q 354 884 320 884 q 437 888 387 884 q 498 892 488 892 l 498 888 q 488 856 498 856 q 443 845 477 856 q 404 825 408 834 q 369 699 387 787 z "},"":{"ha":293,"x_min":-3,"x_max":330,"o":"m 37 685 q 45 713 37 690 q 62 735 54 735 l 324 735 q 330 726 331 735 q 313 682 327 713 l 302 673 l 42 673 q 37 675 42 673 q 37 685 35 680 m 224 492 q 193 298 224 458 q 161 121 161 137 q 191 71 161 71 q 224 95 203 71 q 262 144 245 119 q 279 170 278 170 q 283 165 281 170 q 290 153 286 160 q 293 140 293 145 q 235 48 281 104 q 144 -8 189 -8 q 68 91 68 -8 q 77 174 68 130 l 126 418 q 130 456 130 446 q 92 511 130 511 q 46 461 79 511 l 12 412 q 8 417 11 412 q 1 429 5 422 q -3 442 -3 437 q 56 534 9 477 q 146 590 102 590 q 224 492 224 590 z "},"":{"ha":357,"x_min":33,"x_max":534,"o":"m 317 1074 q 330 1063 317 1074 q 384 1053 343 1053 q 458 1074 425 1053 q 509 1131 492 1095 q 515 1134 509 1134 q 529 1128 522 1134 q 534 1119 536 1123 l 533 1115 q 532 1109 532 1111 q 467 1024 514 1061 q 372 987 420 987 q 290 1023 321 987 q 259 1111 258 1059 l 259 1119 q 270 1128 260 1123 q 285 1134 279 1134 q 290 1131 290 1134 q 317 1074 292 1095 m 369 699 l 273 189 q 258 66 258 114 q 276 47 258 56 q 312 35 294 38 l 331 33 q 334 27 334 33 q 326 -4 334 12 q 184 3 201 3 q 35 -4 182 3 q 33 7 33 -1 q 42 33 33 33 q 91 41 58 33 q 129 62 123 50 q 164 193 149 109 l 260 694 q 275 819 275 769 q 246 845 275 834 q 199 856 217 856 q 197 863 197 856 q 208 892 197 882 q 272 888 224 891 q 354 884 320 884 q 437 888 387 884 q 498 892 488 892 l 498 888 q 488 856 498 856 q 443 845 477 856 q 404 825 408 834 q 369 699 387 787 z "},"":{"ha":293,"x_min":-3,"x_max":358,"o":"m 224 492 q 193 298 224 458 q 161 121 161 137 q 191 71 161 71 q 224 95 203 71 q 262 144 245 119 q 279 170 278 170 q 283 165 281 170 q 290 153 286 160 q 293 140 293 145 q 235 48 281 104 q 144 -8 189 -8 q 68 91 68 -8 q 77 174 68 130 l 126 418 q 130 456 130 446 q 92 511 130 511 q 46 461 79 511 l 12 412 q 8 417 11 412 q 1 429 5 422 q -3 442 -3 437 q 56 534 9 477 q 146 590 102 590 q 224 492 224 590 z "},"":{"ha":463,"x_min":-18,"x_max":461,"o":"m 332 699 l 236 189 q 221 66 221 114 q 239 47 221 56 q 277 35 258 38 l 294 33 q 297 27 297 33 q 289 -4 297 12 q 225 -14 260 -4 q 104 -89 155 -34 q 54 -189 54 -144 q 96 -232 54 -232 q 151 -219 125 -232 q 192 -193 176 -206 q 209 -180 208 -180 q 210 -199 216 -182 q 201 -221 205 -217 q 50 -312 119 -312 q 1 -292 20 -312 q -18 -244 -18 -273 q 36 -104 -18 -182 q 148 3 90 -26 q -1 -4 144 3 q -4 7 -4 -1 q 5 33 -4 33 q 54 41 22 33 q 92 62 87 50 q 127 193 113 109 l 224 694 q 239 819 239 769 q 210 845 239 834 q 163 856 180 856 q 160 863 160 856 q 171 892 160 882 q 235 888 187 891 q 317 884 283 884 q 401 888 350 884 q 461 892 452 892 l 461 888 q 452 856 461 856 q 406 845 441 856 q 368 825 372 834 q 332 699 350 787 z "},"":{"ha":370,"x_min":31,"x_max":327,"o":"m 114 -189 q 156 -232 114 -232 q 210 -219 184 -232 q 252 -193 236 -206 q 269 -180 267 -180 q 270 -199 275 -182 q 260 -221 264 -217 q 110 -312 179 -312 q 60 -292 80 -312 q 41 -244 41 -273 q 83 -122 41 -197 q 164 -4 125 -47 q 102 91 102 4 q 111 174 102 130 l 160 418 q 164 456 164 446 q 126 511 164 511 q 79 461 113 511 l 46 412 q 42 417 45 412 q 35 429 39 422 q 31 442 31 437 q 90 534 43 477 q 180 590 136 590 q 258 492 258 590 q 245 402 258 469 q 218 255 233 335 q 198 146 202 175 q 195 121 195 122 q 225 71 195 71 q 258 95 237 71 q 296 144 279 119 q 313 170 312 170 q 317 165 315 170 q 323 153 320 160 q 327 140 327 145 q 248 27 307 88 q 114 -189 114 -113 m 259 876 q 294 860 279 876 q 308 822 308 844 q 287 765 308 789 q 235 741 266 741 q 201 758 213 741 q 189 799 189 774 q 209 853 189 830 q 259 876 229 876 z "},"":{"ha":357,"x_min":33,"x_max":498,"o":"m 331 1007 q 323 1017 331 1007 q 321 1055 316 1027 q 349 1103 327 1084 q 399 1123 372 1123 q 439 1103 425 1123 q 448 1055 453 1084 q 420 1007 442 1027 q 372 987 399 987 q 331 1007 346 987 m 369 699 l 273 189 q 258 66 258 114 q 276 47 258 56 q 312 35 294 38 l 331 33 q 334 27 334 33 q 326 -4 334 12 q 184 3 201 3 q 35 -4 182 3 q 33 7 33 -1 q 42 33 33 33 q 91 41 58 33 q 129 62 123 50 q 164 193 149 109 l 260 694 q 275 819 275 769 q 246 845 275 834 q 199 856 217 856 q 197 863 197 856 q 208 892 197 882 q 272 888 224 891 q 354 884 320 884 q 437 888 387 884 q 498 892 488 892 l 498 888 q 488 856 498 856 q 443 845 477 856 q 404 825 408 834 q 369 699 387 787 z "},"":{"ha":293,"x_min":-3,"x_max":293,"o":"m 224 492 q 193 298 224 458 q 161 121 161 137 q 191 71 161 71 q 224 95 203 71 q 262 144 245 119 q 279 170 278 170 q 283 165 281 170 q 290 153 286 160 q 293 140 293 145 q 235 48 281 104 q 144 -8 189 -8 q 68 91 68 -8 q 77 174 68 130 l 126 418 q 130 456 130 446 q 92 511 130 511 q 46 461 79 511 l 12 412 q 8 417 11 412 q 1 429 5 422 q -3 442 -3 437 q 56 534 9 477 q 146 590 102 590 q 224 492 224 590 z "},"":{"ha":707,"x_min":65,"x_max":875,"o":"m 545 148 l 647 694 q 662 819 662 781 q 628 845 662 834 q 576 856 594 856 q 574 863 574 856 q 585 892 574 882 q 649 888 601 891 q 731 884 697 884 q 814 888 764 884 q 875 892 865 892 l 875 888 q 865 856 875 856 q 825 845 854 856 q 791 825 795 834 q 755 699 769 774 l 654 157 q 600 -29 635 54 q 527 -165 566 -113 q 444 -252 488 -217 q 362 -302 400 -288 q 289 -316 324 -316 q 281 -292 281 -307 l 282 -283 q 450 -151 393 -248 q 545 148 507 -53 m 401 699 l 305 189 q 290 66 290 114 q 309 47 290 56 q 345 35 327 38 l 363 33 q 366 27 366 33 q 358 -4 366 12 q 217 3 233 3 q 68 -4 214 3 q 65 7 65 -1 q 75 33 65 33 q 123 41 91 33 q 161 62 156 50 q 197 193 182 109 l 293 694 q 308 819 308 769 q 279 845 308 834 q 232 856 250 856 q 229 863 229 856 q 240 892 229 882 q 304 888 256 891 q 387 884 353 884 q 470 888 419 884 q 530 892 521 892 l 530 888 q 521 856 530 856 q 475 845 510 856 q 437 825 441 834 q 401 699 419 787 z "},"":{"ha":614,"x_min":151,"x_max":703,"o":"m 307 590 q 340 570 328 590 q 353 519 353 551 q 345 448 353 491 l 285 144 q 281 110 281 127 q 294 76 281 76 q 314 83 302 76 q 337 102 326 91 q 358 123 349 113 q 376 141 368 133 l 384 151 q 394 138 387 151 q 401 119 401 125 q 328 41 384 90 q 231 -8 273 -8 q 197 12 209 -8 q 184 62 184 31 q 194 134 184 84 l 250 418 q 256 472 256 460 q 243 506 256 506 q 228 500 237 506 q 208 484 218 494 q 190 467 198 475 q 175 450 182 458 l 168 442 q 158 455 165 442 q 151 473 151 468 q 219 545 167 500 q 307 590 271 590 m 346 876 q 380 860 366 876 q 395 822 395 844 q 374 765 395 789 q 321 741 353 741 q 288 758 300 741 q 275 799 275 774 q 296 853 275 830 q 346 876 316 876 m 614 590 q 648 570 636 590 q 661 519 661 551 q 652 448 661 492 l 578 61 q 488 -168 549 -85 q 396 -261 450 -220 q 300 -319 342 -302 q 288 -292 288 -309 q 407 -168 355 -252 q 480 30 458 -83 l 557 418 q 564 472 564 467 q 551 506 564 506 q 536 500 545 506 q 516 484 526 494 q 498 467 506 475 q 483 450 490 458 q 476 442 476 442 q 466 455 473 442 q 458 473 458 468 q 527 545 475 500 q 614 590 579 590 m 654 876 q 688 860 674 876 q 703 822 703 844 q 682 765 703 789 q 629 741 661 741 q 595 758 608 741 q 583 799 583 774 q 604 853 583 830 q 654 876 624 876 z "},"":{"ha":345,"x_min":-109,"x_max":538,"o":"m 518 987 q 384 1066 492 987 q 286 1015 343 1042 q 217 987 229 987 q 209 1015 202 987 q 230 1031 214 1020 q 270 1059 245 1042 q 313 1090 294 1076 q 388 1153 359 1123 q 406 1164 400 1164 q 420 1153 416 1164 q 464 1088 445 1109 q 498 1053 479 1072 q 528 1025 517 1035 q 538 1015 538 1016 q 518 987 532 987 m 156 148 l 258 694 q 273 819 273 781 q 239 845 273 834 q 187 856 205 856 q 184 863 184 856 q 195 892 184 882 q 260 888 212 891 q 342 884 308 884 q 425 888 374 884 q 486 892 476 892 l 486 888 q 476 856 486 856 q 435 845 465 856 q 401 825 406 834 q 366 699 380 774 l 264 157 q 211 -29 245 54 q 138 -165 176 -113 q 55 -252 99 -217 q -27 -302 11 -288 q -100 -316 -65 -316 q -109 -292 -109 -307 l -107 -283 q 61 -151 4 -248 q 156 148 118 -53 z "},"":{"ha":427,"x_min":-11,"x_max":475,"o":"m 279 590 q 357 492 357 590 q 279 61 357 448 q 190 -168 251 -85 q 98 -261 152 -220 q 1 -319 43 -302 q -11 -292 -11 -307 q 1 -282 -11 -290 q 118 -154 77 -225 q 182 30 159 -83 l 259 418 q 263 456 263 446 q 225 511 263 511 q 179 461 212 511 l 145 412 q 141 417 144 412 q 134 429 138 422 q 130 442 130 437 q 189 534 142 477 q 279 590 235 590 z "},"":{"ha":871,"x_min":33,"x_max":945,"o":"m 343 -146 q 380 -94 343 -115 q 460 -72 418 -72 q 477 -127 477 -85 q 434 -235 477 -178 q 350 -313 391 -292 q 339 -316 347 -316 q 315 -307 315 -316 q 330 -295 315 -304 q 361 -267 345 -286 q 384 -224 378 -248 q 366 -182 388 -202 q 343 -146 343 -163 m 369 699 l 273 189 q 258 66 258 114 q 276 47 258 56 q 312 35 294 38 l 331 33 q 334 27 334 33 q 326 -4 334 12 q 184 3 201 3 q 35 -4 182 3 q 33 7 33 -1 q 42 33 33 33 q 91 41 58 33 q 129 62 123 50 q 164 193 149 109 l 260 694 q 275 819 275 769 q 246 845 275 834 q 199 856 217 856 q 197 863 197 856 q 208 892 197 882 q 272 888 224 891 q 354 884 320 884 q 437 888 387 884 q 498 892 488 892 l 498 888 q 488 856 498 856 q 443 845 477 856 q 404 825 408 834 q 369 699 387 787 m 321 442 q 489 580 384 480 q 689 784 594 680 q 699 794 690 785 q 713 810 707 803 q 724 825 719 817 q 730 838 730 834 q 706 856 730 850 q 665 861 682 861 q 661 869 661 861 q 667 892 661 882 q 710 889 684 891 q 758 886 736 887 q 800 884 780 884 q 885 888 833 884 q 945 892 937 892 q 937 861 945 861 q 793 802 842 850 l 463 471 q 456 454 456 464 q 464 433 456 444 l 741 98 q 814 54 764 69 q 883 38 864 38 q 886 30 886 38 q 879 1 886 15 q 777 -3 810 -3 q 696 11 734 -3 q 644 37 659 24 q 620 60 628 49 q 321 442 350 403 z "},"":{"ha":658,"x_min":117,"x_max":643,"o":"m 296 -149 q 333 -96 296 -118 q 412 -75 370 -75 q 430 -130 430 -88 q 387 -237 430 -180 q 302 -316 343 -294 q 292 -319 300 -319 q 267 -309 267 -319 q 282 -298 267 -307 q 314 -270 297 -289 q 336 -227 331 -251 q 318 -185 340 -205 q 296 -149 296 -165 m 521 590 q 592 564 562 590 q 623 498 623 537 q 545 353 623 410 q 345 275 467 296 q 469 114 426 153 q 541 75 511 75 q 588 95 566 75 q 621 134 610 115 q 634 123 625 134 q 643 107 643 113 q 593 39 636 84 q 510 -5 549 -5 q 475 0 492 -5 q 441 18 458 5 q 410 41 425 30 q 379 73 396 52 q 351 108 362 95 q 323 148 340 121 q 300 186 307 175 q 277 225 293 197 q 256 259 260 254 l 206 0 q 161 -7 182 -7 q 117 0 144 -7 l 264 758 q 277 830 277 814 q 194 856 277 856 q 190 864 190 856 q 201 891 190 880 q 372 929 289 899 q 380 903 380 925 q 362 802 380 887 l 292 437 l 307 454 q 342 493 321 472 q 391 537 363 514 q 454 575 419 560 q 521 590 488 590 m 472 526 q 353 435 429 526 q 278 315 278 345 q 281 312 278 312 q 295 313 286 312 q 329 319 304 315 q 378 331 354 324 q 429 351 401 338 q 477 379 457 363 q 512 418 498 395 q 526 468 526 441 q 472 526 526 526 z "},"":{"ha":606,"x_min":26,"x_max":564,"o":"m 203 435 q 218 451 205 435 q 253 490 232 467 q 300 536 274 513 q 357 574 326 559 q 419 590 389 590 q 498 558 465 590 q 532 480 532 526 q 511 397 532 433 q 451 338 491 361 q 366 302 411 316 q 259 278 321 289 q 389 112 346 149 q 469 75 431 75 q 494 83 481 75 q 514 100 507 92 q 530 123 521 109 q 540 138 540 137 q 545 140 541 140 q 564 123 562 140 q 517 45 555 91 q 437 0 479 0 q 376 16 407 0 q 315 66 346 31 q 264 125 283 100 q 211 197 244 149 q 168 259 178 245 l 167 262 q 165 259 165 262 l 115 0 q 71 -7 91 -7 q 26 0 53 -7 l 109 420 q 121 479 121 475 q 56 511 121 511 q 47 515 47 511 q 53 534 47 524 q 61 544 58 544 q 107 549 81 544 q 155 562 133 555 q 197 577 178 570 q 228 590 217 585 l 240 595 q 247 574 247 595 q 206 456 221 530 l 201 444 q 203 435 197 435 m 190 312 q 216 315 199 313 q 275 328 233 317 q 350 353 317 339 q 409 393 382 366 q 435 452 435 419 q 422 505 435 484 q 381 526 408 526 q 262 435 338 526 q 187 315 187 345 q 190 312 187 312 z "},"":{"ha":675,"x_min":33,"x_max":724,"o":"m 336 964 q 319 978 319 964 q 370 1030 319 986 q 453 1095 422 1074 q 476 1097 461 1097 q 534 1087 513 1097 q 555 1065 555 1077 q 458 1003 555 1042 q 336 964 362 964 m 274 189 q 260 88 260 110 q 272 64 260 68 q 345 60 283 60 l 406 60 q 570 83 524 60 q 621 131 591 94 q 675 220 650 168 q 696 228 680 228 q 724 220 719 228 q 613 -5 629 43 q 391 -1 543 -5 q 184 3 239 3 l 34 -4 q 33 7 33 -3 q 42 39 33 39 q 92 47 60 39 q 130 66 125 56 q 165 193 149 106 l 262 694 q 277 819 277 769 q 248 845 277 834 q 201 856 218 856 q 198 863 198 856 q 209 892 198 882 q 273 888 225 891 q 355 884 321 884 q 439 888 388 884 q 499 892 490 892 l 499 888 q 490 856 499 856 q 444 845 479 856 q 406 825 410 834 q 370 699 388 787 l 274 189 z "},"":{"ha":336,"x_min":117,"x_max":471,"o":"m 251 964 q 233 978 233 964 q 285 1030 233 986 q 368 1095 336 1074 q 391 1097 376 1097 q 448 1087 427 1097 q 469 1065 469 1077 q 373 1003 469 1042 q 251 964 277 964 m 126 134 l 254 792 q 258 830 258 812 q 175 856 258 856 q 171 864 171 856 q 182 891 171 880 q 355 929 274 899 q 363 903 363 925 q 346 802 363 887 l 217 144 q 213 110 213 127 q 227 76 213 76 q 246 83 235 76 q 270 102 258 91 q 292 123 282 113 q 309 142 301 133 q 316 151 316 151 q 327 138 320 151 q 334 119 334 125 q 260 41 316 90 q 163 -8 205 -8 q 130 12 142 -8 q 117 62 117 31 q 126 134 117 85 z "},"":{"ha":675,"x_min":33,"x_max":724,"o":"m 259 -148 q 296 -95 259 -117 q 376 -73 334 -73 q 393 -129 393 -87 q 350 -236 393 -179 q 266 -315 307 -293 q 255 -317 263 -317 q 231 -308 231 -317 q 245 -296 231 -305 q 277 -269 260 -288 q 300 -225 294 -250 q 281 -184 304 -203 q 259 -148 259 -164 m 274 189 q 260 88 260 110 q 272 64 260 68 q 345 60 283 60 l 406 60 q 570 83 524 60 q 621 131 591 94 q 675 220 650 168 q 696 228 680 228 q 724 220 719 228 q 613 -5 629 43 q 391 -1 543 -5 q 184 3 239 3 l 34 -4 q 33 7 33 -3 q 42 39 33 39 q 92 47 60 39 q 130 66 125 56 q 165 193 149 106 l 262 694 q 277 819 277 769 q 248 845 277 834 q 201 856 218 856 q 198 863 198 856 q 209 892 198 882 q 273 888 225 891 q 355 884 321 884 q 439 888 388 884 q 499 892 490 892 l 499 888 q 490 856 499 856 q 444 845 479 856 q 406 825 410 834 q 370 699 388 787 l 274 189 z "},"":{"ha":336,"x_min":75,"x_max":363,"o":"m 103 -146 q 140 -94 103 -115 q 220 -72 178 -72 q 237 -127 237 -85 q 194 -235 237 -178 q 110 -313 151 -292 q 99 -316 107 -316 q 75 -307 75 -316 q 90 -295 75 -304 q 121 -267 104 -286 q 144 -224 138 -248 q 125 -182 148 -202 q 103 -146 103 -163 m 126 134 l 254 792 q 258 830 258 812 q 175 856 258 856 q 171 864 171 856 q 182 891 171 880 q 355 929 274 899 q 363 903 363 925 q 346 802 363 887 l 217 144 q 213 110 213 127 q 227 76 213 76 q 246 83 235 76 q 270 102 258 91 q 292 123 282 113 q 309 142 301 133 q 316 151 316 151 q 327 138 320 151 q 334 119 334 125 q 260 41 316 90 q 163 -8 205 -8 q 130 12 142 -8 q 117 62 117 31 q 126 134 117 85 z "},"":{"ha":675,"x_min":33,"x_max":860,"o":"m 274 189 q 260 88 260 110 q 272 64 260 68 q 345 60 283 60 l 406 60 q 570 83 524 60 q 621 131 591 94 q 675 220 650 168 q 696 228 680 228 q 724 220 719 228 q 613 -5 629 43 q 391 -1 543 -5 q 184 3 239 3 l 34 -4 q 33 7 33 -3 q 42 39 33 39 q 92 47 60 39 q 130 66 125 56 q 165 193 149 106 l 262 694 q 277 819 277 769 q 248 845 277 834 q 201 856 218 856 q 198 863 198 856 q 209 892 198 882 q 273 888 225 891 q 355 884 321 884 q 439 888 388 884 q 499 892 490 892 l 499 888 q 490 856 499 856 q 444 845 479 856 q 406 825 410 834 q 370 699 388 787 l 274 189 z "},"":{"ha":336,"x_min":117,"x_max":571,"o":"m 126 134 l 254 792 q 258 830 258 812 q 175 856 258 856 q 171 864 171 856 q 182 891 171 880 q 355 929 274 899 q 363 903 363 925 q 346 802 363 887 l 217 144 q 213 110 213 127 q 227 76 213 76 q 246 83 235 76 q 270 102 258 91 q 292 123 282 113 q 309 142 301 133 q 316 151 316 151 q 327 138 320 151 q 334 119 334 125 q 260 41 316 90 q 163 -8 205 -8 q 130 12 142 -8 q 117 62 117 31 q 126 134 117 85 z "},"":{"ha":675,"x_min":33,"x_max":724,"o":"m 555 404 q 547 413 555 404 q 545 452 540 423 q 573 500 551 480 q 623 519 595 519 q 663 500 648 519 q 671 452 677 480 q 644 404 666 423 q 595 384 623 384 q 555 404 570 384 m 274 189 q 260 88 260 110 q 272 64 260 68 q 345 60 283 60 l 406 60 q 570 83 524 60 q 621 131 591 94 q 675 220 650 168 q 696 228 680 228 q 724 220 719 228 q 613 -5 629 43 q 391 -1 543 -5 q 184 3 239 3 l 34 -4 q 33 7 33 -3 q 42 39 33 39 q 92 47 60 39 q 130 66 125 56 q 165 193 149 106 l 262 694 q 277 819 277 769 q 248 845 277 834 q 201 856 218 856 q 198 863 198 856 q 209 892 198 882 q 273 888 225 891 q 355 884 321 884 q 439 888 388 884 q 499 892 490 892 l 499 888 q 490 856 499 856 q 444 845 479 856 q 406 825 410 834 q 370 699 388 787 l 274 189 z "},"":{"ha":480,"x_min":117,"x_max":486,"o":"m 369 357 q 361 367 369 357 q 359 406 354 377 q 387 454 365 434 q 437 473 410 473 q 477 454 463 473 q 486 406 491 434 q 458 357 480 377 q 410 338 437 338 q 369 357 384 338 m 126 134 l 254 792 q 258 830 258 812 q 175 856 258 856 q 171 864 171 856 q 182 891 171 880 q 355 929 274 899 q 363 903 363 925 q 346 802 363 887 l 217 144 q 213 110 213 127 q 227 76 213 76 q 246 83 235 76 q 270 102 258 91 q 292 123 282 113 q 309 142 301 133 q 316 151 316 151 q 327 138 320 151 q 334 119 334 125 q 260 41 316 90 q 163 -8 205 -8 q 130 12 142 -8 q 117 62 117 31 q 126 134 117 85 z "},"":{"ha":773,"x_min":68,"x_max":761,"o":"m 301 707 q 316 830 317 803 q 284 850 315 841 q 237 859 254 859 q 236 876 233 859 q 245 898 239 891 q 311 893 260 897 q 395 890 361 890 q 444 891 419 890 q 496 895 468 892 q 543 898 525 897 q 541 878 543 884 q 533 859 538 859 q 486 849 521 859 q 446 830 450 840 q 411 704 427 787 l 358 434 l 628 606 q 640 583 633 600 q 642 564 646 567 l 347 380 l 311 193 q 300 73 298 126 q 382 60 301 60 l 444 60 q 606 83 560 60 q 658 131 628 94 q 712 220 688 168 q 731 228 716 228 q 761 220 755 228 q 731 163 751 202 q 698 101 711 125 q 671 46 685 77 q 650 -5 656 15 q 446 -1 585 -5 q 221 3 307 3 l 68 -1 q 68 20 64 3 q 76 38 71 38 q 126 46 94 38 q 168 66 159 54 q 202 194 182 84 l 222 298 l 136 241 q 122 281 114 274 l 232 353 l 301 707 z "},"":{"ha":338,"x_min":37,"x_max":400,"o":"m 122 353 q 113 391 103 381 l 205 454 l 262 745 q 271 831 271 799 q 216 853 270 853 l 206 853 q 202 868 199 853 q 205 880 202 871 q 213 890 209 890 q 281 901 250 894 q 330 914 312 907 q 361 927 349 921 q 381 937 374 933 l 388 941 l 389 941 q 400 920 400 941 q 365 802 380 876 l 312 526 l 381 574 q 392 537 399 544 l 301 475 l 245 183 q 231 62 229 95 q 256 44 231 53 q 294 35 282 35 q 296 18 298 34 q 290 -4 294 3 q 167 3 175 3 q 37 -4 159 3 l 45 35 q 87 44 58 35 q 121 62 117 53 q 146 157 133 92 l 195 403 l 122 353 z "},"":{"ha":899,"x_min":33,"x_max":1040,"o":"m 643 964 q 625 978 625 964 q 677 1030 625 986 q 760 1095 728 1074 q 783 1097 768 1097 q 840 1087 819 1097 q 861 1065 861 1077 q 765 1003 861 1042 q 643 964 669 964 m 349 887 q 476 892 373 887 q 575 626 496 812 q 736 275 654 439 q 751 331 746 302 l 821 696 q 838 821 838 784 q 801 846 838 837 q 743 856 764 856 q 741 865 741 856 q 750 892 741 886 q 892 886 890 886 q 1040 892 911 886 q 1032 856 1040 856 q 975 846 1019 856 q 926 826 930 836 q 892 700 909 783 l 791 184 q 772 76 783 142 q 758 -5 761 9 q 745 -11 753 -11 q 709 20 726 -11 q 376 788 708 23 l 255 191 q 241 71 241 125 q 263 50 241 60 q 307 37 285 41 l 330 33 q 332 26 332 33 q 326 -4 332 9 q 184 3 201 3 q 35 -4 182 3 q 33 7 33 -1 q 42 33 33 33 q 100 43 58 33 q 146 65 141 54 q 183 195 161 95 l 288 700 q 300 822 300 760 q 264 847 300 838 q 208 856 229 856 q 205 865 205 856 q 214 892 205 886 q 349 887 320 887 z "},"":{"ha":667,"x_min":115,"x_max":704,"o":"m 469 673 q 463 678 467 673 q 460 689 460 684 q 517 764 460 699 q 616 860 575 829 q 651 867 627 867 q 704 834 704 867 q 595 739 704 804 q 469 673 486 673 m 271 590 q 305 570 293 590 q 317 519 317 551 q 309 448 317 490 l 285 323 q 344 407 298 347 q 455 528 389 467 q 562 590 521 590 q 629 500 629 590 q 610 353 629 439 l 566 144 q 562 110 562 127 q 575 76 562 76 q 595 83 583 76 q 618 102 606 91 q 639 123 629 113 q 656 141 648 133 l 665 151 q 675 138 667 151 q 682 119 682 125 q 609 41 665 90 q 511 -8 553 -8 q 477 12 490 -8 q 465 62 465 31 q 475 134 465 84 l 522 358 q 532 431 532 403 q 506 490 532 490 q 367 367 461 490 q 245 106 273 244 l 222 0 q 180 -5 205 -5 q 134 0 156 -5 l 214 418 q 221 472 221 467 q 208 506 221 506 q 193 500 202 506 q 173 484 183 494 q 155 467 163 475 q 140 450 146 458 q 133 442 133 442 q 123 455 130 442 q 115 473 115 468 q 184 545 132 500 q 271 590 236 590 z "},"":{"ha":899,"x_min":33,"x_max":1040,"o":"m 378 -146 q 416 -94 378 -115 q 495 -72 453 -72 q 513 -127 513 -85 q 469 -235 513 -178 q 385 -313 426 -292 q 374 -316 382 -316 q 350 -307 350 -316 q 365 -295 350 -304 q 397 -267 380 -286 q 419 -224 414 -248 q 401 -182 423 -202 q 378 -146 378 -163 m 349 887 q 476 892 373 887 q 575 626 496 812 q 736 275 654 439 q 751 331 746 302 l 821 696 q 838 821 838 784 q 801 846 838 837 q 743 856 764 856 q 741 865 741 856 q 750 892 741 886 q 892 886 890 886 q 1040 892 911 886 q 1032 856 1040 856 q 975 846 1019 856 q 926 826 930 836 q 892 700 909 783 l 791 184 q 772 76 783 142 q 758 -5 761 9 q 745 -11 753 -11 q 709 20 726 -11 q 376 788 708 23 l 255 191 q 241 71 241 125 q 263 50 241 60 q 307 37 285 41 l 330 33 q 332 26 332 33 q 326 -4 332 9 q 184 3 201 3 q 35 -4 182 3 q 33 7 33 -1 q 42 33 33 33 q 100 43 58 33 q 146 65 141 54 q 183 195 161 95 l 288 700 q 300 822 300 760 q 264 847 300 838 q 208 856 229 856 q 205 865 205 856 q 214 892 205 886 q 349 887 320 887 z "},"":{"ha":667,"x_min":115,"x_max":682,"o":"m 288 -146 q 325 -94 288 -115 q 404 -72 362 -72 q 422 -127 422 -85 q 378 -235 422 -178 q 294 -313 335 -292 q 283 -316 292 -316 q 259 -307 259 -316 q 274 -295 259 -304 q 306 -267 289 -286 q 328 -224 323 -248 q 310 -182 332 -202 q 288 -146 288 -163 m 271 590 q 305 570 293 590 q 317 519 317 551 q 309 448 317 490 l 285 323 q 344 407 298 347 q 455 528 389 467 q 562 590 521 590 q 629 500 629 590 q 610 353 629 439 l 566 144 q 562 110 562 127 q 575 76 562 76 q 595 83 583 76 q 618 102 606 91 q 639 123 629 113 q 656 141 648 133 l 665 151 q 675 138 667 151 q 682 119 682 125 q 609 41 665 90 q 511 -8 553 -8 q 477 12 490 -8 q 465 62 465 31 q 475 134 465 84 l 522 358 q 532 431 532 403 q 506 490 532 490 q 367 367 461 490 q 245 106 273 244 l 222 0 q 180 -5 205 -5 q 134 0 156 -5 l 214 418 q 221 472 221 467 q 208 506 221 506 q 193 500 202 506 q 173 484 183 494 q 155 467 163 475 q 140 450 146 458 q 133 442 133 442 q 123 455 130 442 q 115 473 115 468 q 184 545 132 500 q 271 590 236 590 z "},"":{"ha":899,"x_min":33,"x_max":1040,"o":"m 665 1085 q 812 1164 788 1164 q 818 1137 825 1164 q 804 1126 817 1135 q 768 1098 791 1116 q 726 1063 746 1080 q 661 998 690 1032 q 646 987 652 987 q 635 998 640 987 q 594 1061 623 1024 q 557 1105 579 1080 q 532 1137 536 1131 q 549 1164 538 1164 q 600 1137 560 1164 q 665 1085 639 1109 m 349 887 q 476 892 373 887 q 575 626 496 812 q 736 275 654 439 q 751 331 746 302 l 821 696 q 838 821 838 784 q 801 846 838 837 q 743 856 764 856 q 741 865 741 856 q 750 892 741 886 q 892 886 890 886 q 1040 892 911 886 q 1032 856 1040 856 q 975 846 1019 856 q 926 826 930 836 q 892 700 909 783 l 791 184 q 772 76 783 142 q 758 -5 761 9 q 745 -11 753 -11 q 709 20 726 -11 q 376 788 708 23 l 255 191 q 241 71 241 125 q 263 50 241 60 q 307 37 285 41 l 330 33 q 332 26 332 33 q 326 -4 332 9 q 184 3 201 3 q 35 -4 182 3 q 33 7 33 -1 q 42 33 33 33 q 100 43 58 33 q 146 65 141 54 q 183 195 161 95 l 288 700 q 300 822 300 760 q 264 847 300 838 q 208 856 229 856 q 205 865 205 856 q 214 892 205 886 q 349 887 320 887 z "},"":{"ha":667,"x_min":115,"x_max":682,"o":"m 271 590 q 305 570 293 590 q 317 519 317 551 q 309 448 317 490 l 285 323 q 344 407 298 347 q 455 528 389 467 q 562 590 521 590 q 629 500 629 590 q 610 353 629 439 l 566 144 q 562 110 562 127 q 575 76 562 76 q 595 83 583 76 q 618 102 606 91 q 639 123 629 113 q 656 141 648 133 l 665 151 q 675 138 667 151 q 682 119 682 125 q 609 41 665 90 q 511 -8 553 -8 q 477 12 490 -8 q 465 62 465 31 q 475 134 465 84 l 522 358 q 532 431 532 403 q 506 490 532 490 q 367 367 461 490 q 245 106 273 244 l 222 0 q 180 -5 205 -5 q 134 0 156 -5 l 214 418 q 221 472 221 467 q 208 506 221 506 q 193 500 202 506 q 173 484 183 494 q 155 467 163 475 q 140 450 146 458 q 133 442 133 442 q 123 455 130 442 q 115 473 115 468 q 184 545 132 500 q 271 590 236 590 z "},"":{"ha":846,"x_min":118,"x_max":791,"o":"m 380 590 q 414 570 401 590 q 426 519 426 551 q 418 448 426 490 l 393 323 q 452 407 407 347 q 564 528 498 467 q 670 590 629 590 q 738 500 738 590 q 719 353 738 439 l 674 144 q 670 110 670 127 q 684 76 670 76 q 703 83 692 76 q 726 102 715 91 q 747 123 738 113 q 765 141 757 133 l 773 151 q 783 138 776 151 q 791 119 791 125 q 718 41 773 90 q 620 -8 662 -8 q 586 12 598 -8 q 574 62 574 31 q 583 134 574 84 l 631 358 q 640 431 640 403 q 614 490 640 490 q 475 367 570 490 q 354 106 381 244 l 331 0 q 289 -5 313 -5 q 243 0 264 -5 l 323 418 q 330 472 330 467 q 316 506 330 506 q 301 500 311 506 q 281 484 292 494 q 263 467 271 475 q 248 450 255 458 q 241 442 241 442 q 231 455 239 442 q 224 473 224 468 q 292 545 240 500 q 380 590 345 590 z "},"":{"ha":925,"x_min":5,"x_max":1013,"o":"m 750 109 q 691 -54 734 22 q 600 -175 648 -129 q 507 -255 552 -221 q 431 -302 461 -289 l 400 -316 q 389 -309 396 -316 q 382 -294 382 -301 l 385 -277 q 437 -240 407 -263 q 513 -174 467 -217 q 600 -66 559 -130 q 662 66 642 -3 l 349 788 l 228 191 q 214 71 214 125 q 236 50 214 60 q 279 37 258 41 l 302 33 q 305 26 305 33 q 298 -4 305 9 q 157 3 174 3 q 8 -4 155 3 q 5 7 5 -1 q 15 33 5 33 q 73 43 31 33 q 119 65 114 54 q 156 195 134 95 l 260 700 q 273 822 273 760 q 237 847 273 838 q 180 856 202 856 q 178 864 178 857 q 180 880 178 871 q 187 892 183 890 q 321 887 293 887 q 449 892 346 887 q 548 626 469 812 q 709 275 627 439 q 724 331 719 302 l 793 696 q 811 821 811 784 q 774 846 811 837 q 716 856 736 856 q 713 865 713 856 q 723 892 713 886 q 865 886 863 886 q 1013 892 884 886 q 1005 856 1013 856 q 947 846 991 856 q 899 826 903 836 q 865 700 882 783 l 750 109 z "},"":{"ha":689,"x_min":35,"x_max":566,"o":"m 457 590 q 537 546 509 590 q 566 439 566 502 q 552 316 566 387 l 502 61 q 414 -168 473 -88 q 321 -261 376 -220 q 225 -319 267 -302 q 213 -292 213 -307 q 225 -282 213 -290 q 342 -154 301 -225 q 406 30 382 -83 q 472 423 472 354 q 460 475 472 460 q 422 490 449 490 q 302 372 382 490 q 199 142 221 254 l 171 0 q 127 -7 148 -7 q 81 0 109 -7 l 165 435 q 167 456 167 441 q 130 511 167 511 q 83 461 117 511 l 49 412 q 45 417 47 412 q 39 429 42 422 q 35 442 35 437 q 94 534 47 477 q 184 590 140 590 q 260 491 260 590 q 237 343 260 450 l 237 340 q 240 339 239 339 l 247 353 q 269 389 255 366 q 299 437 282 411 q 336 491 316 464 q 377 541 357 518 q 418 576 397 563 q 457 590 439 590 z "},"":{"ha":846,"x_min":81,"x_max":909,"o":"m 435 1000 q 444 1029 435 1006 q 464 1053 453 1053 l 779 1053 q 784 1043 785 1053 q 766 997 780 1025 q 762 991 765 993 q 757 987 758 989 l 754 987 l 442 987 q 435 990 442 987 q 435 1000 434 994 m 555 848 q 307 696 408 848 q 205 362 205 545 q 265 134 205 224 q 437 45 326 45 q 681 199 578 45 q 784 536 784 353 q 724 760 784 671 q 555 848 665 848 m 586 905 q 816 802 723 905 q 909 555 909 700 q 839 277 909 408 q 651 66 769 145 q 401 -14 533 -14 q 169 90 256 -14 q 81 351 81 194 q 156 622 81 492 q 347 828 231 751 q 586 905 464 905 z "},"":{"ha":559,"x_min":92,"x_max":559,"o":"m 262 685 q 271 713 262 690 q 288 735 279 735 l 549 735 q 555 726 556 735 q 538 682 552 713 l 528 673 l 267 673 q 262 675 267 673 q 262 685 260 680 m 374 534 q 251 428 307 534 q 195 214 195 321 q 220 92 195 136 q 283 49 245 49 q 404 155 351 49 q 456 370 456 262 q 434 492 456 450 q 374 534 412 534 m 391 590 q 515 534 471 590 q 559 381 559 479 q 460 117 559 241 q 259 -7 362 -7 q 135 46 178 -7 q 92 197 92 99 q 190 464 92 338 q 391 590 288 590 z "}}}
